<?xml version="1.0" encoding="utf-8" standalone="no"?>
<!DOCTYPE svg PUBLIC "-//W3C//DTD SVG 1.1//EN" "http://www.w3.org/Graphics/SVG/1.1/DTD/svg11.dtd">
<svg version="1.1" xmlns="http://www.w3.org/2000/svg" xmlns:xlink="http://www.w3.org/1999/xlink" width="792pt" height="612pt" viewBox="0 0 792 612" xml:space="preserve" enable-background="new 0 0 792 612">
<g color-interpolation="linearRGB" transform="scale(0.24,0.24)">
<g>
	<rect x="0" y="0" width="3300" height="2550" fill="#FFFFFF" fill-opacity="1" />
</g>
<g id="Sprint_Course_2017_Map_Frame">
<g transform="matrix(4.1666667 0 0 -4.1666667 0 2550)">
<path d="M36 36 L36 576 L756 576 L756 36 L36 36 Z "  stroke="none" fill="#FFFFFF" fill-rule="nonzero" fill-opacity="0"/>
</g>
<g id="buildings">
<clipPath id="cp_2">
<path d="M3150 2400 L3150 150 L150 150 L150 2400 Z " />
</clipPath>
<g clip-path="url(#cp_2)">
<g transform="matrix(4.1666667 0 0 -4.1666667 1650 1275)">
<path d="M6.7152415 201.58224 L29.063574 175.73301 L6.0848154 156.71235 L13.284464 147.14632 L38.41928 168.77268 L51.027802 153.0303 L61.08587 157.7384 L70.232957 146.04993 L62.092237 132.90234 L37.039652 113.57841 L21.955108 128.19699 L-23.645715 89.466897 L-23.910677 81.655095 L5.0706517 49.201855 L-48.743984 4.1035458 L-89.264851 53.130597 L-70.680985 68.735928 L-73.595564 75.204648 L-65.532352 82.207679 L-60.575894 77.415708 L-44.769558 90.67293 L-45.747176 95.570153 L-54.424545 105.2482 L-83.691519 80.357696 L-105.60111 105.96762 L-67.044543 138.99599 L-61.399734 131.48513 L-53.294016 138.77718 L-75.320281 166.22453 L-51.484967 185.56577 L-29.40178 160.12944 L-19.488178 166.51844 L-25.454764 174.20896 L6.7152415 201.58224 Z M-5.6648656 149.92385 L-17.720649 164.14629 L-25.564403 157.21486 L-19.227079 146.92606 L-42.63677 127.66913 L-49.079793 135.62658 L-54.19854 134.04442 L-58.346561 127.96857 L-45.445667 111.44045 L-49.557142 107.62134 L-45.125886 99.434939 L7.3456677 141.61867 L8.8003892 145.54052 L-1.8955324 144.49609 L-5.6648656 149.92385 Z "  stroke="none" fill="#FEBE10" fill-rule="nonzero" fill-opacity="1"/>
</g>
</g>
<g clip-path="url(#cp_2)">
<g transform="matrix(4.1666667 0 0 -4.1666667 1650 1275)">
<path d="M6.7152415 201.58224 L29.063574 175.73301 L6.0848154 156.71235 L13.284464 147.14632 L38.41928 168.77268 L51.027802 153.0303 L61.08587 157.7384 L70.232957 146.04993 L62.092237 132.90234 L37.039652 113.57841 L21.955108 128.19699 L-23.645715 89.466897 L-23.910677 81.655095 L5.0706517 49.201855 L-48.743984 4.1035458 L-89.264851 53.130597 L-70.680985 68.735928 L-73.595564 75.204648 L-65.532352 82.207679 L-60.575894 77.415708 L-44.769558 90.67293 L-45.747176 95.570153 L-54.424545 105.2482 L-83.691519 80.357696 L-105.60111 105.96762 L-67.044543 138.99599 L-61.399734 131.48513 L-53.294016 138.77718 L-75.320281 166.22453 L-51.484967 185.56577 L-29.40178 160.12944 L-19.488178 166.51844 L-25.454764 174.20896 L6.7152415 201.58224 Z M-5.6648656 149.92385 L-17.720649 164.14629 L-25.564403 157.21486 L-19.227079 146.92606 L-42.63677 127.66913 L-49.079793 135.62658 L-54.19854 134.04442 L-58.346561 127.96857 L-45.445667 111.44045 L-49.557142 107.62134 L-45.125886 99.434939 L7.3456677 141.61867 L8.8003892 145.54052 L-1.8955324 144.49609 L-5.6648656 149.92385 Z "  stroke="#000000" fill="none" stroke-opacity="1" stroke-width="0.75" stroke-linecap="round" stroke-linejoin="round" stroke-miterlimit="10" />
</g>
</g>
<g clip-path="url(#cp_2)">
<g transform="matrix(4.1666667 0 0 -4.1666667 1650 1275)">
<path d="M95.474556 166.75286 L81.871516 154.00218 L86.524531 148.36129 L79.241655 143.02571 L48.502798 178.91114 L56.171714 184.69779 L61.982598 180.24826 L69.237067 187.3474 L65.421466 191.45533 L70.589285 196.20992 L95.474556 166.75286 Z M68.643187 176.21901 L66.276805 173.08516 L78.967557 161.70094 L80.073087 165.94946 L68.643187 176.21901 Z "  stroke="none" fill="#FEBE10" fill-rule="nonzero" fill-opacity="1"/>
</g>
</g>
<g clip-path="url(#cp_2)">
<g transform="matrix(4.1666667 0 0 -4.1666667 1650 1275)">
<path d="M95.474556 166.75286 L81.871516 154.00218 L86.524531 148.36129 L79.241655 143.02571 L48.502798 178.91114 L56.171714 184.69779 L61.982598 180.24826 L69.237067 187.3474 L65.421466 191.45533 L70.589285 196.20992 L95.474556 166.75286 Z M68.643187 176.21901 L66.276805 173.08516 L78.967557 161.70094 L80.073087 165.94946 L68.643187 176.21901 Z "  stroke="#000000" fill="none" stroke-opacity="1" stroke-width="0.75" stroke-linecap="round" stroke-linejoin="round" stroke-miterlimit="10" />
</g>
</g>
<g clip-path="url(#cp_2)">
<g transform="matrix(4.1666667 0 0 -4.1666667 1650 1275)">
<path d="M-103.79663 3.2626632 L-110.7542 14.206374 L-96.287898 23.403465 L-89.330327 12.459755 L-103.79663 3.2626632 Z "  stroke="none" fill="#FEBE10" fill-rule="nonzero" fill-opacity="1"/>
</g>
</g>
<g clip-path="url(#cp_2)">
<g transform="matrix(4.1666667 0 0 -4.1666667 1650 1275)">
<path d="M-103.79663 3.2626632 L-110.7542 14.206374 L-96.287898 23.403465 L-89.330327 12.459755 L-103.79663 3.2626632 Z "  stroke="#000000" fill="none" stroke-opacity="1" stroke-width="0.75" stroke-linecap="round" stroke-linejoin="round" stroke-miterlimit="10" />
</g>
</g>
<g clip-path="url(#cp_2)">
<g transform="matrix(4.1666667 0 0 -4.1666667 1650 1275)">
<path d="M178.16374 14.400506 L215.71547 -11.487357 L220.46555 -29.332443 L213.86382 -40.049561 L205.01587 -33.928457 L198.82161 -40.939944 L187.42334 -33.44693 L181.68644 -41.76482 L145.75475 -16.616393 L144.47705 -13.146375 L148.64335 -6.4949223 L141.59902 0.33926227 L147.84846 10.837228 L145.81304 14.637895 L149.05486 20.764224 L153.54057 18.996221 L154.79229 24.432504 L165.18975 25.876088 L178.16374 14.400506 Z "  stroke="none" fill="#FEBE10" fill-rule="nonzero" fill-opacity="1"/>
</g>
</g>
<g clip-path="url(#cp_2)">
<g transform="matrix(4.1666667 0 0 -4.1666667 1650 1275)">
<path d="M178.16374 14.400506 L215.71547 -11.487357 L220.46555 -29.332443 L213.86382 -40.049561 L205.01587 -33.928457 L198.82161 -40.939944 L187.42334 -33.44693 L181.68644 -41.76482 L145.75475 -16.616393 L144.47705 -13.146375 L148.64335 -6.4949223 L141.59902 0.33926227 L147.84846 10.837228 L145.81304 14.637895 L149.05486 20.764224 L153.54057 18.996221 L154.79229 24.432504 L165.18975 25.876088 L178.16374 14.400506 Z "  stroke="#000000" fill="none" stroke-opacity="1" stroke-width="0.75" stroke-linecap="round" stroke-linejoin="round" stroke-miterlimit="10" />
</g>
</g>
</g>
<g transform="matrix(4.1666667 0 0 -4.1666667 0 2550)">
<path d="M36 36 L36 576 L756 576 L756 36 L36 36 "  stroke="#000000" fill="none" stroke-opacity="1" stroke-width="1" stroke-linecap="round" stroke-linejoin="round" stroke-miterlimit="10" />
</g>
</g>
</g>
</svg>
