<?xml version="1.0" encoding="utf-8" standalone="no"?>
<!DOCTYPE svg PUBLIC "-//W3C//DTD SVG 1.1//EN" "http://www.w3.org/Graphics/SVG/1.1/DTD/svg11.dtd">
<svg version="1.1" xmlns="http://www.w3.org/2000/svg" xmlns:xlink="http://www.w3.org/1999/xlink" width="720pt" height="720pt" viewBox="0 0 720 720" xml:space="preserve" enable-background="new 0 0 720 720">
<g color-interpolation="linearRGB" transform="scale(0.24,0.24)">
<g id="jnqCourse25k">
<g transform="matrix(4.1666667 0 0 -4.1666667 1500 1500)">
<path d="M-69.75467 -49.425906 L-73.118371 -50.249632 L-77.502489 -51.418182 L-81.923408 -52.443734 L-86.652725 -53.541993 L-94.043405 -55.618545 L-95.459914 -56.104537 L-96.84062 -56.657155 L-98.178591 -57.272095 L-99.472866 -57.947134 L-100.72244 -58.680065 L-101.92629 -59.468687 L-103.08332 -60.310802 L-104.19244 -61.204209 L-105.25251 -62.146699 L-106.26237 -63.136051 L-107.22084 -64.170032 L-108.12673 -65.246397 L-108.97884 -66.362883 L-109.77594 -67.517215 L-110.51684 -68.707107 L-111.20031 -69.930262 L-111.82515 -71.184377 L-112.39016 -72.467143 L-112.89414 -73.776253 L-113.3359 -75.109402 L-113.71428 -76.464293 L-114.0281 -77.838642 L-114.2762 -79.23018 L-114.45741 -80.636657 L-114.57059 -82.055847 L-114.61456 -83.485548 L-114.58816 -84.923586 L-114.4902 -86.367817 L-114.31947 -87.816123 L-114.07474 -89.266413 L-113.75474 -90.716619 L-113.35826 -92.164369 L-112.88837 -93.592704 L-112.3533 -94.980305 L-111.75538 -96.325966 L-111.0968 -97.628696 L-110.37977 -98.887466 L-109.60648 -100.10121 L-108.7791 -101.26883 L-107.89983 -102.38919 L-106.97086 -103.46112 L-105.99439 -104.48344 L-104.97264 -105.45495 L-103.90785 -106.37442 L-102.80226 -107.24061 L-101.65813 -108.05229 L-100.47772 -108.80821 L-99.263333 -109.50714 L-98.017242 -110.14783 L-96.741742 -110.72905 L-95.439128 -111.24959 L-94.111688 -111.70822 L-92.761703 -112.10375 L-91.391443 -112.43497 L-90.003163 -112.70069 L-88.599096 -112.89973 L-87.181456 -113.03089 L-85.752428 -113.09299 L-84.31417 -113.08482 L-82.868813 -113.00518 L-81.418459 -112.85283 L-79.965183 -112.6265 L-78.511036 -112.32492 L-77.011337 -111.93458 L-72.761036 -110.81958 L-67.702506 -109.16378 L-62.841235 -108.30959 L-57.764415 -107.06603 L-52.698585 -106.30975 L-47.564042 -105.46316 L-42.90888 -104.82011 L-37.770991 -103.98323 L-33.010767 -103.06099 L-27.948762 -101.7391 L-23.325095 -100.56137 L-22.969439 -100.53586 L-17.569281 -101.11161 L-17.152606 -101.2521 L-12.735052 -103.92528 L-12.583225 -104.038 L-9.1043594 -107.17103 L-8.9852426 -107.29879 L-6.1295258 -110.95498 L-3.5559017 -115.01572 L-1.4432779 -119.06942 L1.3798222 -122.98532 L3.6849427 -127.59106 L7.1394773 -131.50641 L10.617133 -134.71515 L14.18349 -136.97663 L18.881646 -139.28986 L22.900553 -141.91089 L26.750389 -143.10874 L31.089161 -143.71868 L35.886529 -144.23011 L40.889399 -143.88939 L45.729073 -143.46328 L50.005934 -141.87269 L53.836289 -138.25891 L57.802419 -135.5592 L62.380495 -132.55626 L62.684195 -132.42246 L67.405567 -131.21977 L67.641925 -131.18878 L72.386075 -131.13502 L77.262731 -131.90166 L82.90751 -133.03789 L87.503306 -134.21775 L92.759706 -136.42301 L96.953943 -138.74154 L97.122136 -138.85842 L101.23826 -142.39361 L104.32877 -145.69307 L108.40674 -147.58514 L112.4117 -149.91923 L116.88553 -153.40958 L117.12569 -153.67883 L117.31379 -153.9867 L119.20143 -158.87462 L119.26536 -159.33077 L118.74561 -165.08709 L118.62082 -165.49016 L116.07475 -170.03727 L115.93038 -170.23428 L112.5104 -173.87327 L112.36523 -174.00058 L108.70913 -176.62992 L105.62468 -180.05177 L101.7103 -183.33956 L97.368754 -185.89278 L92.506084 -188.01051 L92.267484 -188.08081 L87.60853 -188.84375 L82.273432 -189.61164 L82.024006 -189.61622 L76.881616 -189.06806 L71.644872 -188.43509 L66.371861 -187.71845 L61.918165 -187.50252 L57.828279 -188.95033 L57.503712 -189.00797 L52.103342 -189.06914 L51.766875 -189.01532 L46.765318 -187.30999 L46.58487 -187.22774 L42.510988 -184.85857 L38.36948 -183.38 L33.82822 -181.52348 L28.87473 -180.56453 L23.070292 -180.23736 L22.820512 -180.19109 L18.167714 -178.7007 L13.598878 -178.30332 L8.6951228 -178.91605 L4.1966003 -179.84899 L-0.58973011 -180.52833 L-1.0033939 -180.50118 L-5.7215579 -179.18478 L-5.9408589 -179.0945 L-10.113723 -176.76602 L-14.223853 -174.9268 L-18.093876 -172.55828 L-22.82502 -170.91845 L-26.797251 -170.78547 L-32.233634 -171.24316 L-32.54425 -171.22095 L-37.690928 -170.03331 L-37.920554 -169.9498 L-42.244812 -167.74873 L-46.346714 -166.37828 L-51.748437 -164.75242 L-56.362759 -162.95203 L-56.606594 -162.81513 L-60.394518 -159.9284 L-64.492736 -157.80871 L-68.810215 -155.74106 L-73.44475 -153.94321 L-77.490681 -152.2481 L-81.890156 -152.02341 L-87.032044 -151.67085 L-87.212666 -151.64172 L-91.794083 -150.46561 L-92.02617 -150.37402 L-96.737295 -147.79743 L-98.660388 -147.153 L-99.99968 -147.20516 L-101.84541 -148.03842 L-103.8483 -149.32129 L-104.20859 -149.46376 L-109.0109 -150.35477 L-111.78066 -150.59364 L-113.5713 -150.94184 L-115.96488 -151.91299 L-119.64357 -152.73534 L-123.16855 -153.38915 L-127.38686 -154.8056 L-129.88311 -155.32019 L-130.18441 -155.33609 L-133.24636 -155.03551 L-133.60088 -154.93284 L-135.35056 -154.05308 L-137.37048 -153.43861 L-139.69039 -153.43952 L-142.00273 -154.09787 L-146.81241 -155.75932 L-147.12967 -155.81442 L-151.45875 -155.86329 L-155.62665 -157.14608 L-160.14278 -159.65506 L-164.44154 -162.04035 L-169.18623 -163.7758 L-169.51787 -163.83698 L-172.91577 -163.88525 L-176.59039 -163.45001 L-180.38326 -162.5914 L-185.3844 -160.61892 L-190.14181 -159.35401 L-193.56239 -158.16206 L-195.78474 -157.38763 L-197.524 -156.47212 L-200.38156 -155.24981 L-203.86071 -154.53974 L-208.17923 -153.63786 L-212.42959 -153.43157 L-217.05216 -153.55386 L-220.42169 -153.66572 L-224.23204 -153.74949 L-232.44813 -153.7321 L-236.70824 -155.1955 L-241.26374 -156.05266 L-245.83239 -157.08502 L-250.62832 -158.05208 L-250.87891 -158.07054 L-255.75502 -157.81694 L-255.92831 -157.79263 L-260.70538 -156.69006 L-261.11543 -156.48997 L-263.55998 -154.50858 L-263.84636 -154.13649 L-264.03879 -153.70821 L-264.58134 -150.86531 L-264.57558 -150.45849 L-264.48803 -150.06117 L-262.99813 -146.7214 L-262.72632 -146.35995 L-262.38067 -146.06831 L-259.53278 -144.60126 L-259.35869 -144.53133 L-254.66399 -143.13955 L-252.49255 -142.74307 L-249.78749 -142.5927 L-249.51516 -142.61478 L-247.16844 -143.13282 L-245.02857 -143.9096 L-240.39452 -144.37588 L-235.66826 -142.97011 L-232.31986 -140.56301 L-228.56967 -137.71851 L-224.97519 -134.6441 L-221.27487 -131.69645 L-218.24995 -127.56222 L-215.73835 -124.00864 L-213.13854 -119.14713 L-210.84183 -115.11319 L-209.7998 -111.46614 L-208.15765 -107.00893 L-206.92435 -103.15465 L-205.15816 -97.856095 L-203.86185 -92.671032 L-202.61257 -87.127211 L-201.21836 -82.170139 L-200.19983 -77.312333 L-198.7249 -72.809898 L-197.72425 -67.960836 L-196.54739 -63.724095 L-195.27936 -58.695767 L-194.13462 -54.382589 L-192.9518 -49.655651 L-192.19538 -44.521149 L-192.4345 -39.895961 L-192.95234 -37.791113 L-194.71051 -33.567116 L-195.22368 -32.717317 L-195.23826 -32.693105 L-197.15864 -29.513153 L-197.23869 -29.348103 L-199.20235 -24.130718 L-200.28344 -19.166902 L-201.84128 -14.146816 L-203.83818 -9.3878935 L-205.62155 -4.3784536 L-207.21009 1.1595313 L-207.24375 1.3340493 L-207.79217 6.7066222 L-207.92388 12.14061 L-207.88906 12.428345 L-206.6839 16.867487 L-206.60324 21.211219 L-206.20732 25.882014 L-207.23188 30.227199 L-207.25681 30.519874 L-206.95524 35.405858 L-206.00522 40.777864 L-205.81524 41.213253 L-202.80605 45.189304 L-200.59005 48.847532 L-200.2824 53.177221 L-200.46529 57.760304 L-200.7975 62.857462 L-200.57682 67.789293 L-200.35909 72.655096 L-199.92953 77.494668 L-199.09562 82.70404 L-198.21576 87.679425 L-197.66705 92.787331 L-196.87883 97.610239 L-197.29545 101.89601 L-198.56219 106.50099 L-199.0468 111.30157 L-199.04368 111.53035 L-198.38364 116.6607 L-198.26323 117.02501 L-195.73062 121.54771 L-192.90999 125.46714 L-191.40779 129.82176 L-190.45821 134.09482 L-189.26037 138.5072 L-188.84296 143.21005 L-188.76923 143.5087 L-186.69481 148.47691 L-185.82756 153.6885 L-185.75985 153.91951 L-183.82977 158.41754 L-182.40795 162.43991 L-182.59538 167.47724 L-182.52508 167.88695 L-180.62388 172.68839 L-179.03947 177.18304 L-177.82298 182.58185 L-176.07584 187.96869 L-174.02643 193.03903 L-172.4741 197.33044 L-171.07141 201.47201 L-169.97773 205.99531 L-168.48098 210.62649 L-166.39483 215.11029 L-166.25183 215.33429 L-163.08386 219.08906 L-162.71087 219.36602 L-162.28434 219.55011 L-157.19467 220.45638 L-152.15027 220.6154 L-147.0951 220.58045 L-143.05396 222.17214 L-138.06852 223.9496 L-132.85106 225.14091 L-127.48661 225.70288 L-122.06584 226.36451 L-117.36349 226.41763 L-112.20912 226.47586 L-107.4866 227.39078 L-102.2267 228.14772 L-97.003766 228.79265 L-92.393651 229.63624 L-87.744087 230.08175 L-82.916462 230.99321 L-77.707108 232.36726 L-73.217085 234.47843 L-67.820179 235.97294 L-63.1998 237.00282 L-58.846447 238.34433 L-58.594928 238.38788 L-54.467961 238.56961 L-54.008878 238.48197 L-51.266099 237.25298 L-50.89568 236.96935 L-48.813659 234.42138 L-48.609278 234.00082 L-47.99544 231.25083 L-48.000206 230.78896 L-48.683264 228.00074 L-50.516527 223.44032 L-50.727306 223.11529 L-50.99654 222.83675 L-55.429717 219.74298 L-55.690801 219.61245 L-60.57923 218.00378 L-60.799477 217.95786 L-65.606565 217.50869 L-70.046788 216.66091 L-74.630502 216.51088 L-79.682879 215.50834 L-84.802564 214.25422 L-89.936713 213.60507 L-94.081994 212.627 L-98.854082 210.80357 L-104.04504 209.5636 L-108.43924 207.9073 L-112.11269 204.75301 L-115.69137 201.63421 L-119.70124 198.49349 L-123.53367 195.63608 L-126.85915 192.66341 L-130.49283 189.81735 L-132.57254 185.48843 L-133.57186 181.26143 L-133.70947 176.65809 L-133.24441 171.09803 L-133.19116 166.38204 L-133.2171 166.1437 L-134.30347 161.46543 L-134.39176 161.22728 L-136.85923 156.50869 L-139.41906 152.27168 L-139.60273 152.04817 L-143.4111 148.58102 L-144.64367 147.71005 L-150.24872 142.07695 L-150.69995 141.81368 L-155.97406 140.36304 L-156.33442 140.33124 L-161.2028 140.78217 L-165.65722 140.99474 L-169.17693 139.31905 L-172.55748 136.29724 L-175.87958 132.58552 L-178.89874 128.37674 L-181.68872 124.79857 L-183.79565 120.97955 L-186.15517 116.68806 L-187.68485 112.0635 L-188.57626 107.02275 L-190.01537 102.87543 L-190.84859 98.163758 L-190.92581 93.057908 L-191.76599 88.024435 L-192.37339 83.093251 L-192.72047 78.321195 L-193.06623 73.455033 L-193.14607 68.68624 L-193.22563 64.54938 L-191.96488 60.020516 L-190.5462 54.789403 L-189.29823 49.606745 L-189.27319 49.294655 L-189.62226 44.719881 L-188.96451 39.761008 L-188.9728 39.444314 L-189.98703 34.002717 L-191.6161 29.499351 L-193.37503 24.706844 L-193.5261 24.434847 L-196.27176 20.913605 L-197.81637 16.244022 L-199.64766 11.720032 L-201.20015 6.6388376 L-201.68502 2.7865411 L-200.53375 -1.1862752 L-198.31651 -4.9797821 L-195.64833 -9.5621495 L-193.6322 -13.982587 L-191.27965 -18.201187 L-189.38187 -22.56663 L-187.29795 -26.939661 L-186.15137 -28.805644 L-185.32281 -29.543224 L-183.25061 -30.306707 L-180.6297 -31.035925 L-179.33103 -31.030264 L-173.13734 -32.062609 L-172.96701 -32.106657 L-165.24476 -34.846765 L-161.16488 -36.138715 L-156.42507 -36.955924 L-152.53836 -36.629352 L-149.00987 -36.098634 L-144.46546 -34.97381 L-140.03018 -34.139173 L-135.38036 -32.922443 L-130.34249 -31.623331 L-125.95924 -29.727288 L-121.13118 -28.181992 L-116.55452 -26.480023 L-113.18218 -23.846812 L-112.34995 -22.897167 L-111.4839 -22.018773 L-109.15918 -19.66124 L-105.7604 -16.319898 L-102.31983 -13.362365 L-99.181475 -9.9535243 L-95.598131 -6.2272801 L-92.22141 -3.0080929 L-88.772714 0.24203053 L-88.368521 0.4753223 L-82.838154 2.1327465 L-82.441139 2.1695651 L-77.243266 1.6153131 L-71.941274 1.0742944 L-66.783401 0.018652523 L-62.017458 -1.2126449 L-57.617155 -2.2281061 L-53.112014 -3.0566167 L-48.421457 -3.9912985 L-43.576325 -4.9829096 L-38.945721 -5.1177928 L-34.212872 -4.9671523 L-29.340405 -4.8120636 L-24.380248 -5.0447299 L-19.110862 -4.3040949 L-14.260193 -4.2492126 L-9.0197378 -3.8079781 L-4.0345325 -2.9544326 L-3.733164 -2.9486625 L1.3882488 -3.6249102 L5.9847052 -5.0551235 L6.2891002 -5.2105658 L8.2352674 -6.6675101 L11.081495 -8.7297368 L14.521443 -11.016279 L14.678724 -11.145661 L18.570942 -15.074849 L18.684718 -15.212276 L21.786558 -19.723186 L21.931038 -20.038862 L23.124102 -24.595602 L23.743717 -29.726383 L24.577138 -34.003762 L25.876772 -38.854497 L27.704644 -43.892177 L28.722554 -48.501455 L29.901071 -53.118921 L31.449983 -57.947871 L32.484861 -62.536975 L33.150049 -67.550181 L34.100093 -71.852114 L35.777216 -76.474276 L38.058548 -79.717132 L42.116065 -81.575347 L47.189986 -82.255644 L51.94417 -82.688843 L56.972804 -83.126184 L61.493869 -83.655117 L66.2176 -83.69455 L70.730621 -82.975485 L75.670923 -82.319083 L80.503583 -81.966714 L85.469352 -81.51379 L90.228228 -81.359382 L95.00496 -81.403202 L99.864128 -81.151446 L104.97078 -81.192699 L110.42943 -81.130812 L115.37381 -81.783565 L120.25828 -82.428406 L125.06699 -83.47158 L130.04032 -84.489244 L134.79474 -85.336567 L135.00817 -85.399688 L139.81994 -87.426778 L140.11529 -87.61781 L143.89442 -91.135269 L144.0682 -91.348442 L146.84195 -95.906779 L148.82449 -100.87102 L148.8855 -101.09801 L149.61603 -106.09427 L150.98564 -110.95966 L152.22019 -115.17019 L154.00389 -119.61555 L155.77682 -124.49763 L157.39043 -129.82529 L157.43067 -130.19627 L157.0432 -135.15464 L156.88871 -135.61874 L156.62693 -136.03194 L152.8073 -139.6822 L152.57947 -139.84579 L148.30193 -142.08745 L148.03682 -142.18189 L143.17112 -143.17705 L138.24225 -143.44113 L133.10193 -143.08391 L128.36588 -142.0248 L122.89866 -140.89538 L118.07817 -139.55054 L113.5527 -138.22938 L108.97356 -137.0287 L104.04614 -136.10372 L99.08791 -134.87772 L94.463143 -133.94202 L89.900883 -132.70861 L85.429472 -131.693 L80.734699 -130.75763 L76.162201 -129.60225 L71.75469 -128.23093 L67.151384 -126.33277 L62.636233 -123.81013 L57.717183 -121.5893 L57.512815 -121.46587 L53.163196 -118.07233 L49.166868 -114.69832 L45.713226 -112.19637 L41.68271 -109.94735 L36.860382 -107.34776 L32.443807 -104.90121 L28.157469 -102.15129 L23.9254 -99.338262 L19.835171 -96.625815 L15.631303 -93.780588 L11.788899 -91.760704 L7.3897997 -90.964365 L7.196227 -90.908765 L2.446253 -89.009839 L2.2372944 -88.895909 L-2.0094104 -85.876743 L-6.2532269 -83.391192 L-10.631323 -80.572854 L-15.153318 -77.750992 L-19.403101 -74.779525 L-23.199275 -71.73488 L-26.697936 -68.95858 L-30.186836 -66.478133 L-35.023763 -64.197451 L-35.227272 -64.069691 L-39.22571 -60.832335 L-39.447069 -60.674958 "  stroke="#FF0000" fill="none" stroke-opacity="1" stroke-width="3" stroke-linecap="round" stroke-linejoin="round" stroke-miterlimit="10" />
</g>
</g>
<g id="jnqCourse25k_low_snow">
<g transform="matrix(4.1666667 0 0 -4.1666667 1500 1500)">
<path d="M-75.973746 -48.24274 L-75.973746 -48.24274 L-79.953414 -50.270444 L-84.515476 -52.366594 L-89.576873 -53.854229 L-94.466816 -55.488247 L-98.293097 -58.066686 L-102.25775 -60.92278 L-106.21497 -64.442514 L-109.65026 -68.055199 L-112.81141 -72.377988 L-115.46028 -75.944803 L-118.44241 -80.079962 L-121.6104 -83.302282 L-126.77222 -84.926947 L-131.54483 -85.924796 L-136.28166 -87.585963 L-140.97258 -89.807254 L-145.62603 -92.333031 L-149.69597 -95.895216 L-152.97299 -99.48966 L-154.71934 -104.27457 L-155.84725 -108.67333 L-154.25373 -113.42065 L-150.87531 -116.80383 L-146.57232 -118.83702 L-142.33513 -120.55758 L-137.35888 -120.54261 L-132.13413 -119.97244 L-127.7798 -118.53001 L-123.18341 -117.46402 L-118.68297 -116.4239 L-113.71947 -115.7825 L-109.07921 -116.101 L-103.99115 -115.95696 L-99.219631 -114.86015 L-94.845581 -113.16184 L-89.88698 -113.58816 L-84.734781 -113.11358 L-79.655067 -112.23173 L-74.701482 -111.71817 L-70.043346 -110.60609 L-64.870576 -109.94999 L-59.881407 -109.0773 L-55.266274 -108.66651 L-50.58568 -108.54355 L-45.544333 -108.77916 L-40.357331 -108.37841 L-35.525552 -107.60653 L-30.88399 -107.03046 L-25.966515 -106.83054 L-21.148876 -106.80909 L-15.779483 -107.51505 L-11.070289 -108.9169 L-7.3683627 -111.85942 L-5.1208161 -115.8614 L-2.9146438 -120.20594 L-0.12393335 -123.67407 L2.9597674 -127.01525 L6.0425291 -131.2757 L9.7787781 -134.24675 L13.823448 -137.45744 L18.184488 -140.11226 L22.735248 -143.01633 L26.941344 -144.98448 L31.704284 -146.13005 L36.185004 -146.85015 L40.788398 -146.40232 L45.003061 -144.62327 L50.132453 -143.13484 L54.185336 -141.06903 L58.637038 -138.72664 L63.134567 -135.93442 L67.955806 -134.231 L72.786846 -133.88768 L77.505427 -134.61745 L81.940081 -135.76668 L86.173719 -137.16567 L91.120858 -139.07993 L95.339891 -141.68682 L99.796301 -144.25394 L103.75175 -147.07814 L108.19645 -149.11768 L112.91539 -151.37257 L116.16502 -155.35901 L118.14748 -159.93689 L117.65181 -165.15289 L115.13825 -169.15933 L112.2099 -172.53979 L108.55659 -176.38594 L104.83786 -179.96086 L100.30069 -182.25469 L95.529967 -183.92471 L91.007772 -184.54891 L86.776349 -185.84593 L81.515643 -187.24116 L76.902924 -188.36515 L71.484242 -187.8124 L67.139785 -186.63311 L62.221235 -185.74901 L57.697474 -184.73267 L52.831433 -184.48268 L48.117833 -184.20223 L43.617025 -182.7074 L39.19154 -181.36829 L34.143942 -179.59105 L29.757135 -180.16428 L24.802727 -180.61608 L19.775554 -179.63422 L15.233838 -180.03186 L10.592302 -181.11087 L6.0373258 -181.33967 L1.4873429 -181.50241 L-3.5067798 -179.94308 L-8.10965 -178.93574 L-12.680776 -177.23559 L-17.18142 -175.75299 L-21.427011 -174.30055 L-26.925528 -173.19621 L-31.665886 -172.54903 L-36.396654 -172.24805 L-41.182479 -172.08372 L-46.121956 -169.84761 L-50.707428 -167.37262 L-55.187677 -165.18905 L-59.555781 -163.91521 L-63.630156 -161.07984 L-67.848425 -158.53468 L-72.04318 -156.06755 L-76.634095 -154.61484 L-81.59936 -153.10036 L-86.860558 -153.4484 L-91.53824 -153.33641 L-97.007415 -152.81701 L-102.33928 -152.93075 L-107.27866 -152.7022 L-112.21723 -153.54938 L-116.74726 -155.97907 L-121.60344 -157.10161 L-126.36615 -156.97805 L-131.0376 -157.41834 L-136.31172 -158.63214 L-141.91022 -158.69535 L-146.62808 -159.03297 L-151.53898 -159.32339 L-156.2776 -160.832 L-161.19699 -161.87279 L-165.73188 -163.87374 L-171.0202 -165.33907 L-176.12102 -164.8525 L-181.33673 -163.72003 L-185.85503 -162.67863 L-190.28323 -160.58918 L-194.4288 -158.96236 L-199.62129 -157.87495 L-204.55584 -158.0749 L-209.23289 -156.51584 L-214.4164 -154.71521 L-219.63056 -154.72453 L-224.28322 -153.81238 L-228.96247 -153.56013 L-233.85087 -154.83951 L-238.48086 -156.94455 L-243.3072 -157.20501 L-248.07735 -156.92495 L-253.05208 -156.57292 L-257.40042 -155.53781 L-261.98881 -153.80046 L-266.81354 -152.69231 L-271.31124 -152.47505 L-276.26822 -151.18712 L-280.92967 -151.50755 L-285.57492 -150.74782 L-290.08606 -151.34688 L-294.73287 -151.95976 L-299.56359 -150.82284 L-302.43925 -146.83617 L-304.48206 -141.89195 L-301.46793 -138.06971 L-297.3783 -136.23874 L-292.71222 -136.33048 L-288.38391 -135.08628 L-283.99886 -133.85383 L-278.90842 -132.41553 L-274.04792 -131.6765 L-269.55015 -132.90784 L-265.36885 -134.69512 L-260.45497 -136.18143 L-255.78395 -137.71169 L-251.15566 -139.97628 L-246.64782 -141.60319 L-241.76752 -142.6199 L-237.15253 -142.19274 L-232.64222 -141.02484 L-228.5263 -138.01045 L-224.82975 -133.96202 L-221.0416 -131.00493 L-217.82799 -127.80695 L-215.14263 -123.95128 L-212.0059 -119.96276 L-210.13734 -114.97033 L-208.9349 -110.64914 L-207.56623 -106.00443 L-205.71031 -100.89263 L-204.42289 -96.578742 L-203.19872 -92.178908 L-201.97538 -87.202011 L-200.83698 -82.72485 L-199.61214 -78.378614 L-198.35879 -73.553932 L-197.00744 -68.884732 L-195.5415 -64.333745 L-194.11975 -59.882304 L-192.18469 -55.771197 L-190.77813 -50.973603 L-189.85903 -46.630813 L-189.40784 -41.967733 L-189.98425 -37.039955 L-191.98521 -32.800237 L-194.29306 -28.963712 L-196.55521 -24.656809 L-198.67211 -20.682195 L-200.65341 -16.681265 L-202.3217 -12.322416 L-203.62314 -7.8645121 L-204.82352 -2.8324281 L-205.27868 2.389337 L-205.34098 7.409471 L-205.3109 12.26983 L-204.89848 16.86244 L-204.58665 21.342672 L-204.65964 26.304948 L-205.28738 30.766321 L-204.23354 35.708357 L-202.15636 40.27027 L-199.53778 44.516756 L-197.8145 48.831536 L-198.54001 53.427835 L-199.75278 58.055719 L-199.20831 62.48497 L-199.33306 67.520925 L-199.01768 72.182473 L-198.13331 77.09378 L-197.43918 82.307855 L-197.06315 87.11861 L-196.3899 92.17173 L-196.37473 96.850548 L-197.22711 102.15036 L-198.21627 106.52936 L-198.45872 111.4608 L-197.59531 116.22345 L-196.30456 121.24233 L-194.54492 125.34319 L-191.94219 129.48643 L-190.04845 133.7454 L-189.11462 138.28212 L-188.41456 142.96867 L-187.55809 147.33957 L-185.64026 151.96983 L-183.89903 156.70117 L-182.88389 161.05734 L-181.7315 165.7903 L-180.8939 170.83289 L-179.32055 175.88388 L-177.16231 180.28187 L-175.3646 184.5191 L-173.81265 188.96386 L-172.46749 193.67008 L-170.78818 197.86487 L-169.59101 202.14068 L-168.27028 206.50443 L-167.05785 211.93475 L-166.0116 216.54278 L-163.67742 220.89742 L-159.92632 224.10142 L-155.28851 224.97822 L-150.33032 224.56021 L-145.76032 224.4263 L-140.69748 226.27242 L-135.21804 226.81252 L-129.92532 226.84751 L-125.42506 226.37074 L-120.28092 226.02901 L-115.45976 225.20955 L-110.42669 225.17572 L-105.67887 225.33658 L-100.69346 225.51654 L-95.298307 226.00212 L-90.422725 226.88167 L-85.800239 227.61407 L-81.480242 228.56563 L-76.466588 229.74763 L-71.371233 230.71624 L-66.598867 231.71001 L-61.400515 232.57681 L-57.032683 233.801 L-52.830957 235.20056 L-48.000861 235.09033 L-46.648161 230.1136 L-48.779151 225.81895 L-52.55585 223.38542 L-56.452092 220.5094 L-60.573405 218.00599 L-65.867758 216.61464 L-70.19155 215.5022 L-74.492489 214.36946 L-78.989712 213.57247 L-84.291047 213.2941 L-89.40586 213.54956 L-94.244956 212.94259 L-98.646806 211.72621 L-103.78116 210.19655 L-108.71353 208.82999 L-113.27851 206.01246 L-117.282 203.10232 L-121.43529 199.92257 L-125.6186 196.39203 L-128.66746 193.16702 L-131.87498 188.95093 L-132.64414 184.37071 L-132.81664 179.09651 L-132.66451 174.14752 L-133.16044 168.93145 L-133.36287 163.80121 L-135.39507 158.76971 L-137.94739 154.68879 L-141.37542 151.44308 L-145.77703 153.20299 L-149.99185 150.45535 L-152.25533 146.35714 L-156.63181 145.38847 L-161.65844 144.34243 L-166.52546 143.19925 L-170.57304 141.17901 L-174.81316 138.66608 L-177.53497 135.04497 L-179.73733 131.04631 L-181.54803 126.95312 L-183.47892 122.4794 L-185.60295 117.55421 L-187.71659 112.71971 L-189.36425 107.7216 L-189.65444 102.3306 L-189.62624 97.322478 L-189.41982 92.077252 L-189.51329 87.310995 L-190.30783 82.466698 L-191.49979 77.72513 L-192.51366 72.750492 L-192.8965 67.54406 L-192.592 62.637902 L-191.51631 57.612774 L-189.67302 53.301147 L-188.3322 48.860215 L-186.98145 44.048385 L-186.15342 39.399638 L-186.87324 34.960145 L-188.43729 30.074217 L-190.32126 25.448478 L-192.05812 21.331442 L-193.95867 16.672568 L-195.21182 12.33014 L-196.69668 7.4575014 L-198.06991 3.2208332 L-198.04785 -1.7461491 L-196.4283 -6.2993141 L-194.26752 -11.151483 L-191.93085 -15.041191 L-189.74029 -19.019102 L-187.65077 -23.080675 L-184.87151 -27.554852 L-181.70384 -30.829189 L-177.43255 -33.567604 L-172.85609 -35.259671 L-167.99394 -36.680482 L-163.56766 -37.100486 L-158.86685 -37.768793 L-153.45063 -38.622788 L-148.2878 -38.090512 L-143.98127 -36.434213 L-139.06553 -34.573133 L-134.43107 -33.37905 L-129.7488 -31.401092 L-125.07717 -29.485117 L-121.08494 -26.566861 L-116.73712 -24.052676 L-112.90788 -21.235204 L-109.29647 -17.682299 L-106.23417 -14.131465 L-103.59241 -9.9381765 L-100.76827 -6.3570789 L-96.912198 -3.4115227 L-93.624201 -0.2951396 L-89.944535 2.2239107 L-85.374548 4.6128637 L-80.541659 4.2799497 L-75.667849 2.8304382 L-71.045822 1.6130649 L-66.218206 0.24133363 L-61.001664 -0.47466198 L-56.144202 -0.47737957 L-50.871877 -1.1268339 L-45.695207 -1.82261 L-41.660052 -3.7020601 L-37.185415 -4.3976039 L-32.672486 -4.9731061 L-27.881683 -5.5908047 L-23.514081 -4.3295126 L-18.688321 -3.0341157 L-13.949918 -2.5188055 L-9.2865931 -1.8807033 L-4.1015179 -1.3191173 L0.67998448 -0.61366986 L5.3012123 0.24655562 L10.251813 1.0198263 L15.44205 2.1214816 L20.622685 3.0747077 L25.901997 2.8170747 L31.121051 1.87448 L35.7607 -0.38963457 L38.661407 -4.5738359 L39.204201 -9.5142691 L38.673436 -14.63594 L38.276287 -19.562329 L37.134554 -24.220958 L36.812838 -28.812564 L36.541732 -33.865295 L35.871837 -39.202865 L35.183802 -43.934747 L34.767989 -49.211703 L34.546332 -53.633194 L34.038694 -58.799946 L33.420154 -64.169884 L31.831567 -69.373562 L29.864242 -73.621052 L26.866987 -76.911562 L22.708367 -80.635605 L18.749623 -83.508247 L14.628803 -86.073578 L10.420636 -88.41721 L6.1494886 -89.702223 L1.0429224 -89.706511 L-3.4335127 -90.363063 L-7.8857637 -91.151335 L-12.441635 -92.291132 L-17.353863 -93.962652 L-22.355223 -94.752994 L-27.25911 -95.657603 L-31.64862 -96.989268 L-36.492531 -96.693603 L-41.523692 -97.859405 L-46.644326 -99.116901 L-51.205232 -100.31446 L-56.218262 -100.58133 L-61.168946 -101.35041 L-66.005556 -102.19658 L-70.683871 -103.02857 L-75.228175 -104.69175 L-79.719289 -106.05334 L-85.024463 -106.01435 L-89.991559 -107.3401 L-94.552714 -108.51696 L-99.716522 -106.95946 L-102.79833 -103.77892 L-105.76688 -100.09429 L-108.76028 -95.717392 L-110.05128 -90.690483 L-110.07463 -85.616401 L-109.38465 -80.542426 L-107.38568 -76.574956 L-103.81479 -72.935951 L-99.698144 -69.50097 L-94.895669 -67.142449 L-90.324362 -64.864731 L-85.518837 -63.272875 L-80.647657 -61.478244 L-76.302465 -59.734995 L-71.264648 -58.156928 L-66.172743 -56.858567 L-61.497566 -55.75868 L-56.632713 -54.409369 L-51.770567 -52.820876 L-47.180007 -51.746719 L-45.08077 -51.14994 "  stroke="#005CE6" fill="none" stroke-opacity="1" stroke-width="2" stroke-linecap="round" stroke-linejoin="round" stroke-miterlimit="10" />
</g>
</g>
<g id="DXCJNQ1kCourseOption1_GPXtoF1">
<g transform="matrix(4.1666667 0 0 -4.1666667 1500 1500)">
<path d="M-71.946659 -46.902815 L-71.946659 -46.902815 L-77.245671 -48.413704 L-81.560749 -49.814617 L-85.659046 -51.864313 L-90.25089 -54.331805 L-95.351598 -56.351608 L-99.759945 -58.017261 L-104.27875 -60.434441 L-108.30845 -64.04981 L-111.87296 -67.75051 L-114.81359 -71.547339 L-116.96925 -75.677393 L-119.60138 -79.72214 L-123.83553 -82.783192 L-127.65231 -85.703595 L-132.41636 -88.465711 L-136.16242 -91.129674 L-140.54855 -92.762189 L-144.62572 -95.186642 L-147.63455 -98.963567 L-149.23533 -103.10387 L-148.43645 -108.6721 L-145.5173 -112.99635 L-141.40458 -115.72414 L-137.27999 -117.5037 L-132.68005 -117.25386 L-127.32273 -115.88667 L-122.69807 -115.82204 L-117.64815 -115.3157 L-112.94704 -115.50171 L-108.28697 -115.56445 L-102.94662 -115.20737 L-98.492673 -115.06223 L-93.483057 -115.49614 L-88.744736 -115.97433 L-84.279632 -115.81263 L-78.852394 -115.12877 L-73.939066 -114.05926 L-69.233573 -112.62511 L-64.971091 -111.07232 L-60.454265 -110.4854 L-55.92669 -108.34014 L-50.885217 -107.08768 L-45.758308 -106.37837 L-41.109463 -105.95066 L-36.362157 -105.21681 L-31.627021 -103.40725 L-26.80752 -102.04603 L-22.388528 -101.31992 L-17.737046 -100.62433 L-13.112324 -100.06496 L-8.7723082 -101.86254 L-5.7752081 -106.05797 L-4.9728253 -110.92544 L-1.8189293 -114.47199 L0.41074723 -119.3892 L2.7550535 -123.43543 L5.9081138 -127.40237 L9.712851 -131.4238 L13.476205 -134.79023 L17.332915 -137.40532 L21.388826 -140.1048 L26.259784 -141.78923 L31.671948 -142.27208 L36.664397 -142.68964 L41.569107 -142.34964 L45.820563 -140.82571 L50.691328 -139.49266 L55.972658 -137.92411 L60.077368 -135.43732 L64.134327 -133.2313 L68.434214 -130.9814 L73.058489 -129.88611 L78.058493 -130.46426 L82.981105 -131.71105 L88.119032 -133.96947 L92.531423 -136.15782 L97.458864 -139.32549 L101.55563 -141.63289 L105.55486 -144.8276 L109.83129 -147.50386 L114.0754 -150.81943 L116.03453 -155.3357 L116.07994 -159.84072 L114.42901 -165.02871 L112.30468 -169.41404 L109.87419 -173.25872 L106.82664 -177.10636 L101.94143 -179.6639 L97.735204 -181.18726 L92.87852 -183.76512 L89.49647 -187.5711 L84.943337 -188.95832 L79.89261 -187.90253 L75.070249 -187.01322 L70.163162 -186.14542 L64.969437 -184.45652 L60.900137 -182.57754 L55.955303 -180.86928 L50.915001 -180.73261 L46.482583 -179.28234 L42.039025 -178.84628 L37.693229 -177.54748 L32.791785 -176.67555 L27.650318 -177.10065 L23.287129 -176.26373 L18.907423 -176.96878 L13.93018 -177.39603 L8.8989227 -177.06141 L3.6389634 -177.52077 L-1.5185725 -176.53211 L-6.9406376 -175.67833 L-11.463088 -174.27438 L-15.968034 -173.41435 L-21.199341 -172.40594 L-26.023068 -171.39282 L-31.360604 -170.50511 L-36.0898 -169.84137 L-41.11444 -169.58905 L-46.113853 -167.55969 L-50.476512 -164.76064 L-54.252264 -162.29704 L-57.977697 -159.77927 L-62.238908 -157.4448 L-66.913061 -154.13808 L-71.853359 -151.32489 L-77.161973 -149.98751 L-81.926305 -149.21277 L-86.409552 -149.2717 L-91.960609 -149.02529 L-96.445084 -147.97119 L-102.07405 -148.34393 L-106.48336 -149.42838 L-112.14083 -151.79252 L-116.48323 -153.28843 L-121.91482 -153.09424 L-126.37458 -153.72581 L-131.32689 -155.36049 L-135.75844 -156.98939 L-140.75464 -158.24942 L-145.41373 -158.27734 L-149.90704 -159.44926 L-154.90558 -159.49742 L-159.91566 -161.02975 L-164.23022 -162.49235 L-169.09437 -162.40709 L-173.51908 -163.64421 L-178.20809 -163.52814 L-183.19279 -162.79702 L-187.62395 -161.9484 L-192.19851 -161.94227 L-197.53685 -161.48305 L-202.77261 -160.5775 L-207.33021 -160.56713 L-212.02916 -160.07187 L-216.3276 -157.93973 L-220.84584 -156.39952 L-225.52775 -155.40931 L-230.01963 -155.70319 L-235.17235 -156.63933 L-240.29124 -157.56269 L-245.14776 -156.64869 L-250.28038 -156.36031 L-255.40519 -154.74438 L-258.37414 -150.51968 L-257.30972 -146.00629 L-254.53209 -142.29793 L-249.40976 -140.67384 L-244.77123 -139.32716 L-239.44082 -138.58279 L-235.12088 -136.59672 L-230.81483 -134.88276 L-227.27037 -131.90787 L-222.53482 -130.12729 L-217.11134 -129.60444 L-212.77371 -128.68574 L-207.90662 -128.02899 L-203.48456 -127.06812 L-199.03479 -126.5521 L-193.75729 -125.6393 L-189.14988 -124.54856 L-184.82904 -122.64486 L-180.48727 -121.59005 L-175.88547 -121.00217 L-170.95171 -120.23339 L-165.97 -118.69736 L-161.62569 -117.36632 L-156.77257 -115.97592 L-152.36692 -115.06466 L-147.73196 -114.41048 L-143.27591 -112.95039 L-138.74551 -111.55546 L-133.43936 -110.67523 L-128.20526 -108.93015 L-123.2159 -108.07405 L-118.04855 -106.93157 L-113.60968 -105.45926 L-108.4769 -104.76647 L-104.30289 -102.89731 L-104.37376 -98.12465 L-107.40655 -94.774573 L-110.35439 -90.417813 L-111.57174 -84.891292 L-111.54897 -80.389632 L-110.99361 -75.428519 L-109.3816 -70.78517 L-105.39562 -67.813367 L-100.85171 -66.117369 L-96.120985 -64.415026 L-91.635429 -62.068246 L-87.192067 -60.488747 L-82.174654 -59.11295 L-77.350927 -57.632125 L-72.304395 -55.827242 L-67.506466 -54.066475 L-62.663645 -52.268017 L-57.802617 -50.58069 L-52.625492 -49.81318 L-47.749755 -48.925338 L-44.054086 -48.817546 "  stroke="#00734C" fill="none" stroke-opacity="1" stroke-width="2" stroke-linecap="round" stroke-linejoin="round" stroke-miterlimit="10" />
</g>
</g>
<g opacity="0.75">
</g>
<g opacity="0.75">
</g>
<g opacity="0.75">
</g>
<g opacity="0.75">
</g>
<g opacity="0.75">
</g>
<g opacity="0.75">
</g>
</g>
</svg>
