<?xml version="1.0" encoding="utf-8" standalone="no"?>
<!DOCTYPE svg PUBLIC "-//W3C//DTD SVG 1.1//EN" "http://www.w3.org/Graphics/SVG/1.1/DTD/svg11.dtd">
<svg version="1.1" xmlns="http://www.w3.org/2000/svg" xmlns:xlink="http://www.w3.org/1999/xlink" width="792pt" height="612pt" viewBox="0 0 792 612" xml:space="preserve" enable-background="new 0 0 792 612">
<g color-interpolation="linearRGB" transform="scale(0.24,0.24)">
<g>
	<rect x="0" y="0" width="3300" height="2550" fill="#FFFFFF" fill-opacity="1" />
</g>
<g id="Sprint_Course_2017_Map_Frame">
<g id="jv25k2018">
<clipPath id="cp_2">
<path d="M3150 2400 L3150 150 L150 150 L150 2400 Z " />
</clipPath>
<g clip-path="url(#cp_2)">
<g transform="matrix(4.1666667 0 0 -4.1666667 1650 1275)">
<path d="M46.730417 -89.850832 L46.730417 -89.850832 L51.846523 -93.656861 L57.850521 -96.899745 L64.011749 -100.0983 L69.693285 -102.22127 L74.267633 -105.15265 L78.506088 -108.87071 L82.669189 -111.61096 L88.208001 -115.06328 L92.1976 -117.96725 L96.653573 -122.30842 L100.44272 -125.05289 L102.92836 -129.33555 L105.0812 -133.64329 L108.12434 -137.08984 L111.8999 -141.21328 L116.7095 -144.78451 L123.34527 -149.10523 L129.32652 -153.43346 L134.32795 -156.90461 L140.43419 -160.39726 L146.86831 -164.45643 L153.33042 -168.92388 L159.33879 -173.0559 L165.53283 -177.07523 L171.44846 -180.75734 L175.38016 -183.70009 L178.94256 -188.60888 L179.32881 -194.32388 L175.38796 -198.30498 L172.36819 -202.07977 L167.11539 -206.33955 L161.67243 -209.29496 L156.34173 -211.32141 L151.8391 -213.18535 L147.42726 -214.80984 L142.52032 -215.54638 L137.42017 -214.71478 L131.92307 -213.92169 L127.11804 -213.33785 L121.35755 -213.02852 L116.6417 -212.57983 L111.0958 -211.60856 L105.45086 -210.14908 L99.715227 -209.44802 L93.501417 -209.36516 L88.084538 -209.46051 L82.730544 -209.43177 L77.675691 -209.50179 L72.241629 -209.63144 L66.504639 -209.84523 L60.657163 -210.11145 L55.183622 -209.84572 L49.399181 -207.93662 L42.682839 -205.79548 L37.029737 -204.1232 L31.053538 -202.82904 L25.622886 -201.18825 L21.474842 -198.23505 L16.106906 -196.97228 L10.364608 -194.6499 L4.7106961 -191.35619 L-2.1763843 -187.54882 L-7.3960644 -184.92259 L-12.235857 -182.29633 L-18.322469 -180.53954 L-24.824061 -179.80445 L-31.003773 -179.63171 L-37.176051 -179.08014 L-44.715708 -179.07171 L-52.88171 -179.49163 L-59.955511 -180.87806 L-66.537006 -181.87154 L-72.688433 -182.64743 L-79.931568 -183.53779 L-86.276228 -184.28183 L-92.397522 -186.69572 L-98.759872 -188.46124 L-105.38865 -188.89348 L-111.20401 -188.89535 L-117.80456 -189.23364 L-123.85649 -188.99132 L-130.22698 -188.48442 L-136.79196 -187.83502 L-143.26862 -186.72503 L-150.18013 -185.40295 L-156.70146 -183.96152 L-164.07229 -182.33399 L-169.81995 -181.07959 L-175.59027 -180.41264 L-180.9673 -180.92867 L-186.78012 -182.1942 L-192.97859 -183.46844 L-199.8214 -183.05614 L-206.05197 -181.47521 L-211.5121 -178.25576 L-213.42736 -172.70257 L-211.05456 -168.02457 L-205.22799 -166.42697 L-200.00459 -167.32137 L-194.3512 -169.54282 L-187.67351 -170.33988 L-183.01112 -169.16388 L-176.6398 -165.60252 L-170.5373 -161.00166 L-165.78099 -155.71372 L-163.64776 -150.52775 L-161.84598 -143.93696 L-158.27562 -135.58987 L-155.74789 -131.18243 L-152.71157 -127.30123 L-149.22522 -119.79777 L-148.04378 -112.61812 L-146.33701 -105.89649 L-144.44445 -99.066349 L-143.62089 -91.767369 L-142.38308 -85.438198 L-140.82342 -79.671383 L-139.4427 -74.093827 L-138.78441 -68.72872 L-138.77202 -63.090039 L-139.84651 -57.472149 L-142.68924 -51.04858 L-145.49456 -42.760712 L-149.59879 -35.896063 L-150.95558 -28.566337 L-151.81343 -21.426752 L-152.10449 -14.272245 L-151.83826 -7.3072223 L-152.15178 -0.23816092 L-153.03077 6.7054156 L-152.7993 13.129648 L-150.37896 19.280651 L-147.52164 26.066339 L-146.65095 32.808395 L-146.50414 39.486946 L-146.35498 46.98262 L-145.81608 55.167785 L-145.31353 63.978029 L-144.89463 71.915096 L-144.72183 78.879067 L-145.58759 86.201538 L-145.7904 93.301702 L-143.8727 99.44704 L-140.7231 105.70406 L-139.28541 110.36738 L-139.53031 117.04994 L-138.42685 121.81581 L-136.86541 126.38691 L-133.92672 134.24163 L-131.74345 141.71344 L-129.84318 147.85006 L-128.44936 153.81068 L-125.57167 159.81363 L-123.24075 166.63178 L-120.81704 173.50621 L-118.38866 179.9723 L-116.1974 186.73343 L-114.24902 192.74296 L-112.28413 198.8463 L-110.04092 204.1101 L-105.44049 207.1196 L-99.884764 207.30579 L-92.540623 206.44824 L-87.885206 206.14329 L-79.698847 206.26559 L-72.212974 205.79267 L-64.68781 205.46481 L-57.429121 205.44476 L-50.049152 205.55789 L-42.046047 205.86105 L-33.879959 206.74068 L-25.979516 208.36619 L-18.357427 210.84393 L-10.464594 213.14177 L-3.3728738 216.00508 L3.7419796 218.88145 L8.6376914 218.00062 L9.7247864 212.82541 L6.5660144 208.43623 L1.0949656 204.89335 L-5.7420565 202.76918 L-9.6831035 198.81379 L-15.260986 195.41868 L-22.182156 192.45943 L-30.505811 192.59513 L-38.187559 192.81476 L-45.118186 191.72784 L-52.26288 189.93219 L-58.577666 187.09468 L-64.100745 183.50457 L-69.281908 179.13088 L-74.394567 173.86441 L-78.118872 167.78799 L-80.004466 160.3579 L-80.109988 152.62439 L-81.274034 144.9556 L-84.453271 138.22574 L-89.542726 132.96808 L-95.877227 129.28791 L-102.26364 127.09229 L-108.66362 125.58589 L-114.91995 123.77477 L-120.34573 121.39008 L-124.10037 117.99433 L-127.09304 112.33481 L-130.35675 106.8679 L-132.71668 102.6241 L-135.04471 96.584804 L-136.31444 89.468025 L-136.95064 82.141301 L-136.8204 74.738236 L-137.11664 66.806816 L-138.32847 59.218325 L-139.13239 54.328205 L-140.32377 49.591202 L-140.70351 44.91433 L-140.10088 40.193201 L-138.44851 34.117993 L-135.83666 27.432285 L-135.25202 18.608718 L-135.98307 13.995914 L-137.11845 9.4680062 L-140.17694 1.3480362 L-143.22452 -5.6695869 L-145.70189 -13.502137 L-146.19941 -22.240026 L-143.76022 -30.715102 L-140.59911 -37.900999 L-137.16649 -44.807234 L-133.10729 -51.30643 L-129.0675 -56.597308 L-123.17918 -61.003417 L-115.16317 -63.359877 L-110.28866 -64.930423 L-105.06855 -65.539639 L-99.668114 -65.550974 L-94.744142 -64.776277 L-90.19434 -63.469463 L-85.384705 -61.887481 L-76.984292 -59.469072 L-69.053606 -56.856021 L-61.804686 -52.35693 L-56.107813 -48.08809 L-50.833636 -42.615484 L-45.584866 -36.968714 L-40.35819 -31.428602 L-35.350388 -25.66107 L-30.001358 -21.651507 L-24.489613 -21.687098 L-19.195131 -22.15496 L-13.686584 -22.943803 L-7.9050773 -22.546506 L-2.7260191 -24.177382 L3.1656622 -24.736356 L8.7291383 -24.703194 L15.869778 -25.626776 L22.543443 -26.598074 L28.396949 -27.400032 L33.883261 -28.286965 L38.775517 -28.848677 L44.298432 -28.841425 L51.414073 -29.101371 L59.464954 -28.337856 L66.648058 -26.30332 L72.296272 -23.937155 L79.5861 -23.582295 L86.148581 -22.997346 L92.53105 -25.086873 L97.482825 -29.869306 L98.236732 -36.57595 L97.801633 -45.121656 L96.831275 -53.362812 L95.870384 -61.923103 L94.583894 -70.116762 L93.77227 -76.896474 L93.094842 -83.649077 L92.626699 -89.795144 L93.002131 -95.591092 L94.123363 -101.70637 L97.445429 -107.07751 L100.0674 -113.07364 L102.95561 -119.87105 L106.48658 -126.65692 L110.605 -132.15946 L114.87102 -137.27305 L118.54266 -142.02743 L121.63045 -146.83522 L124.26791 -153.67801 L126.02292 -160.01162 L126.46961 -164.87482 L123.43351 -168.76044 L119.23922 -172.5613 L113.54951 -175.40035 L107.11471 -177.98403 L100.12214 -179.31857 L93.846495 -179.44924 L88.162243 -177.61144 L82.179363 -175.20241 L75.517415 -171.15 L69.688989 -167.41582 L66.246723 -163.82055 L62.035753 -158.39985 L58.594377 -151.78322 L56.541759 -146.00189 L53.165301 -141.50377 L50.412235 -136.82832 L47.57057 -132.59222 L44.968708 -127.85119 L39.884207 -121.67017 L34.546064 -114.25789 L30.653288 -107.51435 L27.934764 -103.3066 L25.454307 -98.96425 L23.106526 -94.977823 L20.515304 -90.662315 L17.633343 -85.954187 L19.172983 -85.145266 L46.730417 -89.850832 L19.172983 -85.145266 "  stroke="#002673" fill="none" stroke-opacity="1" stroke-width="3" stroke-linecap="round" stroke-linejoin="round" stroke-miterlimit="10" />
</g>
</g>
</g>
<g id="sprintcourse2018">
<g clip-path="url(#cp_2)">
<g transform="matrix(4.1666667 0 0 -4.1666667 1650 1275)">
<path d="M-5.8302901 -82.517244 L-5.8302901 -82.517244 L-13.001703 -81.46208 L-19.893977 -83.906086 L-27.467177 -86.600359 L-34.531105 -89.373856 L-41.742607 -92.527859 L-48.148912 -95.051429 L-53.623405 -96.764427 L-59.468837 -99.268853 L-65.647068 -102.83661 L-68.740863 -107.83353 L-72.388751 -111.37696 L-78.125391 -114.71856 L-83.120563 -116.95371 L-89.182731 -119.42227 L-94.735473 -123.00862 L-100.4338 -127.6774 L-106.34099 -132.48044 L-112.33085 -137.2121 L-118.12669 -141.5287 L-123.81708 -145.86544 L-129.34522 -149.04713 L-135.17224 -151.64063 L-141.64723 -155.85429 L-148.0614 -160.27582 L-153.68891 -163.45862 L-159.45724 -165.55773 L-164.73993 -167.69827 L-171.03304 -170.42898 L-176.28883 -172.88409 L-182.11868 -175.74989 L-187.076 -176.16746 L-192.67625 -175.54976 L-197.63524 -172.70758 L-200.44798 -168.9434 L-198.10045 -164.6231 L-193.8349 -162.97495 L-187.42117 -164.20918 L-180.96816 -165.30242 L-175.43121 -163.93784 L-169.13962 -161.07952 L-161.68136 -156.46326 L-156.12778 -150.35359 L-152.68626 -143.53574 L-150.12823 -136.11504 L-148.38899 -127.61 L-149.26253 -122.18977 L-148.76586 -117.51585 L-146.93152 -113.29504 L-143.289 -105.1301 L-141.2742 -99.290124 L-138.88107 -93.833048 L-136.72827 -88.829826 L-134.55689 -82.371014 L-133.2183 -77.206795 L-132.12765 -71.82828 L-131.65887 -66.235524 L-127.66288 -61.432758 L-120.83945 -60.134432 L-112.26715 -61.55257 L-106.37446 -62.20527 L-101.12065 -63.205641 L-95.171819 -63.129955 L-89.697194 -62.468144 L-85.025501 -61.606829 L-78.631605 -59.023838 L-69.9099 -56.074185 L-62.166476 -52.927004 L-54.931078 -48.781214 L-49.180373 -43.069172 L-44.643981 -37.992171 L-40.596464 -33.099402 L-36.794295 -27.703019 L-32.066906 -22.981271 L-27.099418 -20.89107 L-21.904153 -20.853572 L-17.134772 -21.914576 L-12.277754 -22.974687 L-7.213007 -24.313204 L-1.94618 -25.436705 L3.4834586 -26.485961 L8.5680561 -27.513627 L13.363148 -28.263701 L18.287572 -29.080442 L23.091821 -30.128223 L29.253452 -30.782 L34.988087 -30.376659 L41.007005 -29.780855 L48.013079 -30.173946 L54.634497 -29.626649 L62.103736 -28.082469 L69.71378 -26.072847 L77.929857 -24.418042 L85.541347 -24.076591 L91.170755 -26.251208 L93.872486 -32.07199 L93.790205 -41.320118 L92.794764 -46.829507 L91.786838 -52.271004 L90.784742 -57.193157 L89.640012 -61.908462 L89.049869 -66.566412 L87.019935 -75.172822 L86.342707 -83.495747 L85.475098 -91.527273 L85.67693 -98.508235 L87.715137 -103.02158 L90.932425 -108.43219 L94.874427 -113.83886 L98.750899 -120.16968 L102.98807 -126.35181 L107.2872 -131.80977 L111.24076 -136.68858 L115.23371 -141.43079 L119.15423 -146.99944 L121.64016 -153.36731 L122.08815 -159.37953 L120.22881 -163.94971 L116.6285 -168.59069 L111.3253 -172.53184 L104.74601 -174.22766 L97.702097 -174.12446 L90.661252 -173.26372 L85.662381 -172.0735 L80.957233 -169.98619 L74.961079 -165.89223 L68.363898 -160.85181 L62.761851 -155.42553 L57.956535 -149.13069 L55.022985 -142.45723 L52.114667 -136.46006 L48.917563 -130.24916 L44.720266 -123.96875 L40.051559 -117.86802 L35.050651 -112.36271 L30.125356 -105.79261 L25.371067 -98.318378 L22.86899 -94.129397 L20.426915 -89.561093 L18.038614 -85.098491 L15.366731 -79.328513 "  stroke="#FF0000" fill="none" stroke-opacity="1" stroke-width="3" stroke-linecap="round" stroke-linejoin="round" stroke-miterlimit="10" />
</g>
</g>
</g>
<g transform="matrix(4.1666667 0 0 -4.1666667 0 2550)">
<path d="M36 36 L36 576 L756 576 L756 36 L36 36 "  stroke="#000000" fill="none" stroke-opacity="1" stroke-width="1" stroke-linecap="round" stroke-linejoin="round" stroke-miterlimit="10" />
</g>
</g>
</g>
</svg>
