<?xml version="1.0" encoding="UTF-8" standalone="no"?>
<svg
   xmlns:dc="http://purl.org/dc/elements/1.1/"
   xmlns:cc="http://creativecommons.org/ns#"
   xmlns:rdf="http://www.w3.org/1999/02/22-rdf-syntax-ns#"
   xmlns:svg="http://www.w3.org/2000/svg"
   xmlns="http://www.w3.org/2000/svg"
   xmlns:sodipodi="http://sodipodi.sourceforge.net/DTD/sodipodi-0.dtd"
   xmlns:inkscape="http://www.inkscape.org/namespaces/inkscape"
   version="1.1"
   width="792pt"
   height="612pt"
   viewBox="0 0 792 612"
   xml:space="preserve"
   enable-background="new 0 0 792 612"
   id="svg2"
   inkscape:version="0.91 r13725"
   sodipodi:docname="trails.svg"><metadata
     id="metadata117"><rdf:RDF><cc:Work
         rdf:about=""><dc:format>image/svg+xml</dc:format><dc:type
           rdf:resource="http://purl.org/dc/dcmitype/StillImage" /></cc:Work></rdf:RDF></metadata><defs
     id="defs115"><clipPath
       id="cp_2"><path
         inkscape:connector-curvature="0"
         id="path17"
         d="m 3150,2400 0,-2250 -3000,0 0,2250 z" /></clipPath><clipPath
       id="clipPath3566"><path
         inkscape:connector-curvature="0"
         id="path3568"
         d="m 3150,2400 0,-2250 -3000,0 0,2250 z" /></clipPath><clipPath
       id="clipPath3570"><path
         inkscape:connector-curvature="0"
         id="path3572"
         d="m 3150,2400 0,-2250 -3000,0 0,2250 z" /></clipPath></defs><sodipodi:namedview
     pagecolor="#ffffff"
     bordercolor="#666666"
     borderopacity="1"
     objecttolerance="10"
     gridtolerance="10"
     guidetolerance="10"
     inkscape:pageopacity="0"
     inkscape:pageshadow="2"
     inkscape:window-width="1600"
     inkscape:window-height="837"
     id="namedview113"
     showgrid="false"
     inkscape:zoom="0.87581699"
     inkscape:cx="495"
     inkscape:cy="382.5"
     inkscape:window-x="-8"
     inkscape:window-y="-8"
     inkscape:window-maximized="1"
     inkscape:current-layer="svg2" /><g
     inkscape:groupmode="layer"
     id="layer1"
     inkscape:label="trails"
     style="display:inline"><g
       transform="matrix(0.24,0,0,0.24,3.5295319e-6,1.1567132e-6)"
       style="color-interpolation:linearRGB"
       id="jnqCourse25k"><clipPath
         id="clipPath3575"><path
           inkscape:connector-curvature="0"
           id="path3577"
           d="m 3150,2400 0,-2250 -3000,0 0,2250 z" /></clipPath><g
         id="g19"
         clip-path="url(#cp_2)"><g
           id="g21"
           transform="matrix(4.1666667,0,0,-4.1666667,1650,1275)"><path
             style="fill:none;stroke:#ff0000;stroke-width:3;stroke-linecap:round;stroke-linejoin:round;stroke-miterlimit:10;stroke-opacity:1"
             inkscape:connector-curvature="0"
             id="path23"
             stroke-miterlimit="10"
             d="m -14.802298,-75.91743 -3.473137,-0.850526 -4.52554,-1.206244 -4.562895,-1.058487 -4.883733,-1.134119 -7.632916,-2.144613 -1.465594,-0.502832 -1.428377,-0.571698 -1.384189,-0.636181 -1.338996,-0.698365 -1.292763,-0.758261 -1.245451,-0.815879 -1.197024,-0.871222 -1.147452,-0.924284 -1.096703,-0.97506 -1.044755,-1.023538 -0.991587,-1.069704 -0.937184,-1.113546 -0.881535,-1.155048 -0.824635,-1.194198 -0.766481,-1.230982 -0.707073,-1.265392 -0.646416,-1.297419 -0.584517,-1.327062 -0.521384,-1.35432 -0.457023,-1.37919 -0.391447,-1.40169 -0.324659,-1.42183 -0.256669,-1.43961 -0.187478,-1.45508 -0.117088,-1.46823 -0.04549,-1.47911 0.02731,-1.48774 0.101347,-1.49414 0.176629,-1.49834 0.253185,-1.50039 0.331046,-1.50027 0.410163,-1.49772 0.48611,-1.47763 0.553541,-1.43551 0.61858,-1.39215 0.681331,-1.34774 0.741808,-1.30227 0.800023,-1.2557 0.855974,-1.20797 0.909661,-1.15908 0.961076,-1.10898 1.010209,-1.05765 1.057046,-1.00507 1.101573,-0.95123 1.143778,-0.89611 1.183646,-0.83971 1.221165,-0.78202 1.256324,-0.72306 1.28912,-0.66282 1.319543,-0.60129 1.347598,-0.53852 1.373286,-0.47447 1.396615,-0.40919 1.417596,-0.34266 1.436245,-0.2749 1.452583,-0.20591 1.466631,-0.1357 1.478415,-0.0642 1.487963,0.008 1.495304,0.0824 1.500466,0.15762 1.503473,0.23414 1.504353,0.31199 1.549835,0.40339 4.389708,1.15157 5.219599,1.70853 5.0160768,0.88139 5.2402179,1.28358 5.2272242,0.78038 5.3002692,0.87391 4.8056689,0.66384 5.3058,0.86423 4.917177,0.95265 5.227552,1.36512 4.767441,1.21435 0.355656,0.0255 5.562019,-0.59301 0.416675,-0.14049 4.551738,-2.75437 0.151827,-0.11273 3.587017,-3.23042 0.119117,-0.12777 2.944388,-3.76972 2.653702,-4.18708 2.181853,-4.18654 2.9141,-4.04213 2.381118,-4.75758 3.574041,-4.0508 3.596874,-3.31874 3.689584,-2.33962 4.849744,-2.38787 4.153165,-2.70858 3.987959,-1.24083 4.485379,-0.63055 4.959231,-0.52868 5.170961,0.35216 5.005546,0.44071 4.43567,1.64966 3.96005,3.73614 4.08971,2.78383 4.7212,3.09682 0.3037,0.1338 4.86515,1.23932 0.23636,0.031 4.88832,0.0554 5.02767,-0.79038 5.82433,-1.17237 4.73821,-1.21643 5.41884,-2.27341 4.32395,-2.39023 0.16819,-0.11688 4.24408,-3.64509 3.19666,-3.41279 4.21854,-1.95728 4.12811,-2.40587 4.61049,-3.59696 0.24016,-0.26925 0.1881,-0.30787 1.94391,-5.03363 0.0639,-0.45615 -0.53527,-5.92829 -0.12479,-0.40307 -2.62316,-4.68478 -0.14438,-0.19701 -3.52575,-3.75154 -0.14517,-0.12732 -3.77745,-2.7166 -3.18586,-3.53436 -4.03341,-3.38776 -4.47393,-2.63107 -5.01267,-2.18306 -0.2386,-0.0703 -4.80506,-0.78687 -5.50305,-0.79206 -0.24942,-0.005 -5.30426,0.56541 -5.40519,0.65333 -5.44587,0.74014 -4.61327,0.22366 -4.22915,-1.4971 -0.32457,-0.0576 -5.5642,-0.063 -0.33647,0.0538 -5.15508,1.75768 -0.18044,0.0822 -4.20804,2.44719 -4.279698,1.52791 -4.692707,1.91844 -5.124271,0.992 -5.992443,0.33777 -0.24978,0.0463 -4.806284,1.53955 -4.730664,0.41146 -5.07174,-0.63372 -4.644555,-0.96322 -4.932471,-0.70009 -0.413664,0.0272 -4.860619,1.35614 -0.219301,0.0903 -4.306978,2.40331 -4.24188,1.89818 -3.997619,2.44661 -4.900028,1.69837 -4.114291,0.13774 -5.610993,-0.4724 -0.310616,0.0222 -5.304387,1.22404 -0.229627,0.0835 -4.464888,2.27265 -4.2400607,1.4166 -5.574903,1.67799 -4.75695665,1.85604 -0.24383565,0.1369 -3.9113299,2.98078 -4.2366636,2.1913 -4.4602575,2.13602 -4.785943,1.85659 -4.186417,1.75397 -4.552492,0.2325 -5.304686,0.36373 -0.180622,0.0291 -4.722827,1.21242 -0.232087,0.0916 -4.865004,2.66074 -2.001976,0.67087 -1.407053,-0.0548 -1.921225,-0.86734 -2.066375,-1.32353 -0.360282,-0.14247 -4.948381,-0.91812 -2.859621,-0.24662 -1.858087,-0.36131 -2.471845,-1.0029 -3.791288,-0.84752 -3.64231,-0.67558 -4.355359,-1.46247 -2.568388,-0.52945 -0.301298,-0.0159 -3.150197,0.30924 -0.35452,0.10266 -1.805878,0.90802 -2.099766,0.63877 -2.413591,-9.5e-4 -2.397525,-0.68261 -4.962018,-1.71407 -0.317261,-0.0551 -4.473244,-0.0505 -4.318123,-1.32903 -4.66811,-2.59341 -4.43337,-2.45999 -4.88828,-1.78796 -0.33165,-0.0612 -3.49807,-0.0497 -3.78586,0.44842 -3.9074,0.88453 -5.16177,2.03584 -4.91255,1.30616 -3.52892,1.2297 -2.28966,0.79789 -1.79354,0.94408 -2.95844,1.26546 -3.59799,0.73432 -4.46304,0.93206 -4.39536,0.21333 -4.77472,-0.12632 -3.47838,-0.11547 -3.93245,-0.0865 -8.49193,0.018 -4.40375,-1.51274 -4.69938,-0.88423 -4.71683,-1.06584 -4.94633,-0.9974 -0.25059,-0.0185 -5.02695,0.26144 -0.17328,0.0243 -4.92164,1.13593 -0.41005,0.2001 -2.51198,2.03605 -0.28638,0.37208 -0.19243,0.42829 -0.55745,2.92093 0.006,0.40682 0.0875,0.39732 1.53243,3.43511 0.27181,0.36145 0.34565,0.29164 2.9308,1.50976 0.1741,0.0699 4.8403,1.43495 2.23426,0.40795 2.7841,0.15476 0.27233,-0.0221 2.41417,-0.53293 2.21267,-0.80322 4.80465,-0.48344 4.90181,1.45798 3.46624,2.49181 3.87366,2.93816 3.71132,3.17435 3.82591,3.04769 3.12819,4.27537 2.59546,3.67224 2.6854,5.02154 2.37442,4.17044 1.0772,3.77016 1.69492,4.60042 1.2735,3.97992 1.82397,5.47192 1.33903,5.35591 1.28948,5.72222 1.43944,5.11787 1.05119,5.01358 1.52267,4.64817 1.03331,5.007349 1.21456,4.37242 1.30912,5.191329 1.18179,4.452744 1.22197,4.883382 0.78228,5.310099 -0.2475,4.787345 -0.53724,2.183721 -1.8188,4.369657 -0.53224,0.881382 -0.0151,0.025 -1.98097,3.2803 -0.0801,0.16505 -2.02446,5.37895 -1.11565,5.122497 -1.60998,5.188111 -2.06201,4.914077 -1.83978,5.167873 -1.63856,5.712397 -0.0337,0.174518 -0.56561,5.540993 -0.1358,5.602556 0.0348,0.287735 1.24501,4.5859359 0.0834,4.4901069 0.40942,4.830017 -1.05898,4.4911413 -0.0249,0.2926744 0.31081,5.0356135 0.97877,5.534582 0.18998,0.435389 3.1039,4.101194 2.2975,3.792765 0.31896,4.488887 -0.18898,4.735721 -0.34279,5.25929 0.22767,5.087799 0.22471,5.02177 0.44312,4.992432 0.86045,5.375104 0.90861,5.13796 0.5665,5.27354 0.81478,4.985458 -0.43145,4.438315 -1.30774,4.754043 -0.49937,4.94675 0.003,0.228787 0.68012,5.286461 0.12041,0.364308 2.6097,4.660361 2.91527,4.05094 1.55509,4.50792 0.98076,4.4134 1.23769,4.55918 0.43098,4.8557 0.0737,0.29865 2.14249,5.13123 0.89589,5.38371 0.0677,0.23101 1.99181,4.64189 1.47263,4.16611 -0.1937,5.20587 0.0703,0.40971 1.96068,4.95164 1.63733,4.64477 1.25601,5.57423 1.80204,5.55608 2.11528,5.23333 1.60317,4.43197 1.44921,4.27889 1.12916,4.67005 1.54319,4.77487 2.15013,4.62132 0.14299,0.224 3.26283,3.86718 0.37299,0.27696 0.42653,0.1841 5.24228,0.93344 5.201632,0.16397 5.229944,-0.0361 4.182514,1.64736 5.142094,1.83332 5.378699,1.22813 5.534646,0.5798 5.593107,0.68266 4.850878,0.0548 5.326934,0.0602 4.879455,0.94533 5.427838,0.78111 5.393093,0.66594 4.758357,0.87072 4.800133,0.45994 4.988937,0.94192 5.385776,1.42057 4.635613,2.17963 5.564591,1.54095 4.7707323,1.06339 4.4926785,1.38444 0.2515186,0.0436 4.24877766,0.18708 0.45908244,-0.0876 2.8177109,-1.26257 0.3704186,-0.28363 2.1398047,-2.61868 0.204381,-0.42057 0.6304169,-2.82426 -0.00477,-0.46187 -0.7022797,-2.86668 -1.8885065,-4.69785 -0.2107794,-0.32503 -0.2692337,-0.27854 -4.56755832,-3.18755 -0.26108404,-0.13053 -5.03860314,-1.65809 -0.2202474,-0.0459 -4.9620274,-0.46364 -4.581913,-0.87484 -4.732207,-0.15488 -5.22239,-1.03628 -5.283073,-1.29414 -5.299938,-0.67012 -4.286898,-1.01148 -4.926525,-1.88244 -5.358714,-1.28004 -4.550825,-1.71534 -3.801097,-3.2639 -3.693333,-3.21871 -4.137623,-3.2408 -3.958078,-2.95108 -3.433617,-3.06933 -3.761436,-2.94613 -2.156551,-4.48886 -1.034759,-4.37692 -0.142366,-4.76247 0.480205,-5.74123 0.05491,-4.86231 -0.02595,-0.23835 -1.1197,-4.8218 -0.08828,-0.23816 -2.544456,-4.86579 -2.639172,-4.36835 -0.18367,-0.22351 -3.925136,-3.57346 -1.27375,-0.90006 -5.784335,-5.81328 -0.451237,-0.26327 -5.430909,-1.49377 -0.36035,-0.0318 -5.02147,0.46511 -4.61617,0.22029 -3.6566,-1.74087 -3.49949,-3.12813 -3.43429,-3.83707 -3.1181,-4.34669 -2.88257,-3.69693 -2.17758,-3.947071 -2.43872,-4.435544 -1.58249,-4.784223 -0.92016,-5.20333 -1.48566,-4.281462 -0.86197,-4.874248 -0.0797,-5.271311 -0.86678,-5.192843 -0.62741,-5.093661 -0.35843,-4.928073 -0.35707,-5.025359 -0.0824,-4.924711 -0.0823,-4.280054 1.30401,-4.684264 1.46426,-5.399213 1.28694,-5.34447 0.025,-0.31209 -0.36049,-4.724428 0.67924,-5.120882 -0.008,-0.316693 -1.04512,-5.607379 -1.67992,-4.643921 -1.81403,-4.94265396 -0.15107,-0.27199767 -2.83826,-3.63999757 -1.59743,-4.8292489 -1.8908,-4.6710049 -1.60516,-5.253584 -0.50291,-3.995663 1.19445,-4.121855 2.29299,-3.92309 2.75284,-4.727756 2.08108,-4.562868 2.42837,-4.354545 1.95833,-4.504742 2.15329,-4.518591 1.19045,-1.937387 0.87163,-0.775918 2.1532,-0.793327 2.71687,-0.755918 1.34416,0.0059 6.3858,-1.064365 0.17032,-0.04405 7.97039,-2.828155 4.2171,-1.335402 4.90561,-0.845796 4.0228,0.338005 3.647687,0.548648 4.69255,1.161492 4.579166,0.861713 4.802297,1.256629 5.205599,1.342364 4.526732,1.958109 4.98261,1.594763 4.735476,1.761028 3.494115,2.728298 0.86192,0.983525 0.892733,0.905451 2.399558,2.433428 3.506806,3.447548 3.553076,3.054246 3.24195,3.52136 3.697785,3.845249 3.484789,3.322213 3.554615,3.349944 0.404193,0.233292 5.695838,1.707015 0.397016,0.03682 5.35973,-0.57151 5.470403,-0.558204 5.319911,-1.088805 4.9193158,-1.270922 4.5448658,-1.048822 4.6518166,-0.855485 4.8416377,-0.964787 5.0071691,-1.024774 4.78795,-0.139467 4.887902,0.155576 5.027521,0.160024 5.124091,-0.240356 5.441698,0.764854 5.005758,0.05664 5.41506,0.455936 5.144376,0.880798 0.301368,0.0058 5.276754,-0.69676 4.734575,-1.473189 0.304395,-0.155443 2.005095,-1.501058 2.939754,-2.129991 3.549557,-2.3594 0.157281,-0.129382 4.013762,-4.051886 0.113776,-0.137428 3.197352,-4.64981 0.14448,-0.315675 1.229117,-4.694437 0.639408,-5.294685 0.861254,-4.420227 1.342974,-5.012496 1.886503,-5.199268 1.050147,-4.755257 1.21738,-4.769733 1.598733,-4.984274 1.067081,-4.731902 0.686684,-5.175214 0.982282,-4.447913 1.735755,-4.783743 2.370147,-3.36911 4.21344,-1.92962 5.24896,-0.70377 4.90946,-0.44735 5.19045,-0.45141 4.66982,-0.54634 4.88542,-0.0408 4.66349,0.74304 5.09736,0.67727 4.98764,0.36367 5.12509,0.46746 4.90956,0.15929 4.93186,-0.0452 5.01637,0.2599 5.27052,-0.0426 5.63122,0.0639 5.09972,-0.67326 5.03981,-0.66535 4.96202,-1.07643 5.13537,-1.05083 4.90546,-0.87424 0.21344,-0.0631 4.95885,-2.08905 0.29534,-0.19103 3.89395,-3.62432 0.17378,-0.21318 2.85834,-4.69736 2.04325,-5.11626 0.061,-0.22699 0.75422,-5.15824 1.41514,-5.02713 1.27545,-4.35004 1.84216,-4.59105 1.8293,-5.03732 1.66355,-5.49253 0.0402,-0.37098 -0.39892,-5.10485 -0.15449,-0.4641 -0.26177,-0.41319 -3.93418,-3.75973 -0.22783,-0.16358 -4.40785,-2.30995 -0.26511,-0.0944 -5.01391,-1.02548 -5.07953,-0.27216 -5.29774,0.36817 -4.88499,1.09241 -5.6424,1.16561 -4.9739,1.38764 -4.67233,1.36404 -4.73034,1.24033 -5.08724,0.95498 -5.11816,1.26554 -4.77367,0.96583 -4.70908,1.2731 -4.61817,1.04894 -4.84585,0.96548 -4.7171,1.19191 -4.54564,1.4143 -4.74597,1.95699 -4.66026,2.60371 -5.07716,2.29221 -0.20437,0.12343 -4.48628,3.50016 -4.12646,3.48388 -3.57039,2.58653 -4.16463,2.32385 -4.978395,2.68372 -4.557277,2.5245 -4.42278,2.83745 -4.368545,2.90374 -4.222301,2.80003 -4.342565,2.9391 -3.978665,2.09152 -4.547962,0.82328 -0.193572,0.0556 -4.897012,1.95771 -0.208959,0.11393 -4.383253,3.11625 -4.382369,2.56669 -4.51894,2.90901 -4.667209,2.91248 -4.38411,3.06539 -3.917431,3.141893 -3.613292,2.867263 -3.607829,2.565 -4.995065,2.355247 -0.203509,0.12776 -4.126319,3.340896 -0.230169,0.16364" /></g></g></g><g
       transform="matrix(0.24,0,0,0.24,3.5295319e-6,1.1567132e-6)"
       style="color-interpolation:linearRGB"
       id="sprintcourse2017"><g
         id="g26"
         clip-path="url(#cp_2)"><g
           id="g28"
           transform="matrix(4.1666667,0,0,-4.1666667,1650,1275)"><path
             style="fill:none;stroke:#005ce6;stroke-width:3;stroke-linecap:round;stroke-linejoin:round;stroke-miterlimit:10;stroke-opacity:1"
             inkscape:connector-curvature="0"
             id="path30"
             stroke-miterlimit="10"
             d="m -10.785885,-90.969249 -7.405853,-1.896741 -5.208289,-1.682813 -4.676768,-1.174174 -4.329875,-1.580715 -5.531752,-1.699685 -4.538304,-2.127493 -4.904786,-2.78905 -4.316776,-1.85356 -4.700495,-1.97476 -4.67301,-1.7869 -4.183273,-1.98668 -4.471972,-1.96353 -5.347354,-2.01543 -0.172414,-0.10899 -3.581874,-3.45228 -3.922378,-3.58783 -3.524124,-3.19111 -3.521611,-3.29147 -4.13625,-3.79962 -3.362831,-3.06704 -3.711326,-3.07248 -3.89966,-3.21692 -3.41443,-3.32135 -3.2867,-3.29694 -4.10461,-2.31438 -4.03007,-2.24758 -4.413,-1.7645 -4.49884,-2.1465 -4.57156,-0.96153 -5.34457,-2.29476 -4.52147,-0.96487 -4.53278,-1.94619 -0.13102,-0.0821 -3.83169,-3.32139 -3.83262,-2.90706 -4.08357,-1.93922 -5.04521,-2.60903 -4.19155,-1.93771 -4.27725,-1.63692 -4.75498,-1.09337 -5.60958,-1.56555 -4.54348,-1.56075 -4.53885,-0.85402 -4.73585,-1.07014 -4.66533,-0.94073 -4.60061,0.23926 -4.30347,0.99326 -1.68876,1.3688 -0.34793,1.82308 1.08649,2.43548 2.2506,1.15936 4.50532,1.33565 1.89053,0.34518 2.3231,0.12913 1.95467,-0.43149 2.32037,-0.84231 0.12102,-0.0276 5.60392,-0.56386 0.19444,0.0184 5.77703,1.7183 0.15035,0.0738 3.83935,2.76003 3.97441,3.01457 3.73841,3.19753 4.04678,3.22363 0.0924,0.0963 3.34041,4.5654 2.71732,3.84466 2.75461,5.15096 2.53318,4.44929 1.14549,4.00914 1.67862,4.55621 1.28779,4.02456 1.85468,5.56404 1.37547,5.50165 1.27985,5.67949 1.44552,5.13951 1.03812,4.95122 1.52415,4.6527 1.04717,5.074513 1.19707,4.30948 1.31336,5.208088 1.18249,4.455398 1.2632,5.048158 0.84734,5.751698 -0.26844,5.192347 0.16629,1.466686 0.23301,1.057825 0.38669,1.152611 0.98481,1.087713 1.66644,0.65695 2.49973,0.374248 4.28858,0.01871 5.96068,-0.993508 7.85292,-2.786474 4.46085,-1.412588 5.42188,-0.934809 0.12734,-0.0055 4.439226,0.372996 3.883402,0.584101 4.746087,1.174743 4.59878,0.865404 4.898644,1.28184 5.427312,1.399537 4.606069,1.992428 4.907894,1.570848 5.162536,1.919844 0.134228,0.07499 4.021759,3.140297 0.990512,1.130259 0.8308,0.842636 2.383135,2.416772 3.418681,3.360912 3.609856,3.103055 3.338501,3.626232 3.63002,3.774782 3.431386,3.271302 3.206358,3.021739 4.861859,1.457075 4.968042,-0.529745 5.327545,-0.543626 5.097671,-1.04332 4.8831071,-1.261567 4.6485841,-1.072758 4.6962444,-0.863655 4.8122123,-0.958924 5.2540561,-1.075302 5.139013,-0.149692 4.979293,0.158484 4.909484,0.156267 5.286397,-0.247969 5.528672,0.777079 4.922087,0.05569 5.651735,0.475863 4.973021,0.85146 4.723091,-0.623652 4.162405,-1.295156 1.749219,-1.309505 3.007756,-2.179261 3.430166,-2.28004 3.744565,-3.780131 2.898708,-4.215503 1.089141,-4.159817 0.627931,-5.199644 0.90189,-4.628787 1.403422,-5.238112 1.863706,-5.136437 1.018332,-4.611194 1.251901,-4.904986 1.585842,-4.944085 1.00815,-4.47058 0.685806,-5.168591 1.052278,-4.764864 1.916278,-5.281268 0.06134,-0.11766 2.949353,-4.19244 0.204296,-0.16985 5.164714,-2.36527 0.142526,-0.0412 5.681265,-0.76173 4.97897,-0.45368 5.15221,-0.44809 4.78679,-0.56002 5.29783,-0.0442 4.87209,0.77627 4.97063,0.66044 4.92607,0.35918 5.06479,0.46195 4.75941,0.15443 4.96087,-0.0455 5.01802,0.25998 5.20985,-0.0421 5.4461,0.0617 4.8873,-0.64522 4.91726,-0.64917 4.85849,-1.05397 5.19012,-1.06203 4.72362,-0.84183 4.42799,-1.86541 3.43368,-3.19592 2.58476,-4.24776 1.86298,-4.66487 0.74824,-5.11732 1.47212,-5.22956 1.32072,-4.50444 1.87746,-4.67903 1.7845,-4.91394 1.53131,-5.05593 -0.32089,-4.10636 -3.2778,-3.13245 -3.90891,-2.04848 -4.5193,-0.92432 -4.67278,-0.25036 -4.88777,0.33968 -4.68793,1.04834 -5.56589,1.14981 -4.8578,1.35524 -4.69484,1.37061 -4.87327,1.27781 -5.10795,0.95887 -5.09767,1.26047 -4.74183,0.95939 -4.67472,1.26382 -4.71673,1.07132 -4.81031,0.9584 -4.5644,1.15332 -4.33984,1.35027 -4.45746,1.83802 -4.61696,2.57952 -4.97602,2.24656 -4.25203,3.3174 -4.16731,3.51836 -3.80407,2.75582 -4.3384,2.42082 -4.98248,2.68592 -4.457526,2.46924 -4.320783,2.77201 -4.349618,2.89117 -4.211852,2.7931 -4.468898,3.0246 -4.4658,2.34759 -0.144427,0.0497 -4.727051,0.8557 -4.488378,1.79435 -4.296836,3.05481 -4.442069,2.60166 -4.483526,2.88621 -4.618541,2.88211 -4.238915,2.963862 -3.846501,3.085009 -3.681383,2.921296 -3.88982,2.765482 -5.018705,2.366393 -4.012184,3.248486 -0.306672,0.218031" /></g></g></g><g
       transform="matrix(0.24,0,0,0.24,3.5295319e-6,1.1567132e-6)"
       style="color-interpolation:linearRGB"
       id="LapTrack5k10k"><g
         id="g33"
         clip-path="url(#cp_2)"><g
           id="g35"
           transform="matrix(4.1666667,0,0,-4.1666667,1650,1275)"><path
             style="fill:none;stroke:#267300;stroke-width:3;stroke-linecap:round;stroke-linejoin:round;stroke-miterlimit:10;stroke-opacity:1"
             inkscape:connector-curvature="0"
             id="path37"
             stroke-miterlimit="10"
             d="m 64.863061,-118.79555 -3.312723,0.78253 -3.297518,0.72554 -3.296631,0.67241 -3.29505,0.61963 -3.29277,0.56716 -3.289796,0.51504 -3.286123,0.46324 -3.281754,0.41178 -3.276688,0.36064 -3.270922,0.30984 -3.264459,0.25937 -3.257297,0.20923 -3.249435,0.15941 -3.240875,0.10994 -3.231613,0.0608 -3.221654,0.012 -3.2109915,-0.0365 -3.1996302,-0.0846 -3.1875675,-0.13247 -3.17480352,-0.17996 -3.16133828,-0.22711 -3.1471714,-0.27392 -3.1323027,-0.32041 -3.1167319,-0.36655 -3.10046,-0.41238 -3.083485,-0.45785 -3.065807,-0.50299 -3.047429,-0.5478 -3.028346,-0.59227 -3.008563,-0.63641 -2.988076,-0.68021 -2.9333,-0.71547 -1.007628,-0.2999 -0.904763,-0.3722 -0.849161,-0.45347 -0.790994,-0.52926 -0.729735,-0.59951 -0.664974,-0.66411 -0.59645,-0.72284 -0.52405,-0.77548 -0.447784,-0.82188 -0.367754,-0.86197 -0.284102,-0.89584 -0.196964,-0.92365 -0.106406,-0.94576 -0.01237,-0.96258 0.08537,-0.9746 0.188483,-0.98873 0.245882,-0.84516 0.312181,-0.80204 0.367046,-0.74214 0.400703,-0.65434 1.56127,-2.00058 0.969579,-0.99583 0.873483,-0.43174 1.144866,-0.51859 2.35931,-0.92874 2.366617,-0.75349 2.37976,-0.58702 2.382857,-0.4231 2.375811,-0.26177 2.358533,-0.10306 2.397917,0.0545" /></g></g></g></g></svg>