<?xml version="1.0" encoding="UTF-8" standalone="no"?>
<!-- Created with Inkscape (http://www.inkscape.org/) -->

<svg
   xmlns:dc="http://purl.org/dc/elements/1.1/"
   xmlns:cc="http://creativecommons.org/ns#"
   xmlns:rdf="http://www.w3.org/1999/02/22-rdf-syntax-ns#"
   xmlns:svg="http://www.w3.org/2000/svg"
   xmlns="http://www.w3.org/2000/svg"
   xmlns:sodipodi="http://sodipodi.sourceforge.net/DTD/sodipodi-0.dtd"
   xmlns:inkscape="http://www.inkscape.org/namespaces/inkscape"
   id="svg8480"
   version="1.1"
   inkscape:version="0.91 r13725"
   xml:space="preserve"
   width="899.10718"
   height="202.38904"
   viewBox="0 0 899.10717 202.38904"
   sodipodi:docname="sprint_elevation_stylized.svg"
   inkscape:export-filename="C:\Users\Sam\Documents\Marshall\elevation\sprint_elevation_stylized.png"
   inkscape:export-xdpi="300"
   inkscape:export-ydpi="300"><metadata
     id="metadata8486"><rdf:RDF><cc:Work
         rdf:about=""><dc:format>image/svg+xml</dc:format><dc:type
           rdf:resource="http://purl.org/dc/dcmitype/StillImage" /><dc:title /></cc:Work></rdf:RDF></metadata><defs
     id="defs8484"><clipPath
       clipPathUnits="userSpaceOnUse"
       id="clipPath8500"><path
         d="m 76.252,237.53 655.77,0 0,136.46 -655.77,0 0,-136.46 z"
         id="path8502"
         inkscape:connector-curvature="0"
         style="clip-rule:evenodd" /></clipPath><clipPath
       clipPathUnits="userSpaceOnUse"
       id="clipPath8510"><path
         d="m 51,228.24 690.24,0 0,155.4 -690.24,0 0,-155.4 z"
         id="path8512"
         inkscape:connector-curvature="0"
         style="clip-rule:evenodd" /></clipPath><clipPath
       clipPathUnits="userSpaceOnUse"
       id="clipPath8522"><path
         d="m 51,228.24 690.24,0 0,155.4 -690.24,0 0,-155.4 z"
         id="path8524"
         inkscape:connector-curvature="0"
         style="clip-rule:evenodd" /></clipPath><clipPath
       clipPathUnits="userSpaceOnUse"
       id="clipPath8534"><path
         d="m 51,228.24 690.24,0 0,155.4 -690.24,0 0,-155.4 z"
         id="path8536"
         inkscape:connector-curvature="0"
         style="clip-rule:evenodd" /></clipPath><clipPath
       clipPathUnits="userSpaceOnUse"
       id="clipPath8546"><path
         d="m 51,228.24 690.24,0 0,155.4 -690.24,0 0,-155.4 z"
         id="path8548"
         inkscape:connector-curvature="0"
         style="clip-rule:evenodd" /></clipPath><clipPath
       clipPathUnits="userSpaceOnUse"
       id="clipPath8558"><path
         d="m 51,228.24 690.24,0 0,155.4 -690.24,0 0,-155.4 z"
         id="path8560"
         inkscape:connector-curvature="0"
         style="clip-rule:evenodd" /></clipPath><clipPath
       clipPathUnits="userSpaceOnUse"
       id="clipPath8570"><path
         d="m 51,228.24 690.24,0 0,155.4 -690.24,0 0,-155.4 z"
         id="path8572"
         inkscape:connector-curvature="0"
         style="clip-rule:evenodd" /></clipPath><clipPath
       clipPathUnits="userSpaceOnUse"
       id="clipPath8582"><path
         d="m 51,228.24 690.24,0 0,155.4 -690.24,0 0,-155.4 z"
         id="path8584"
         inkscape:connector-curvature="0"
         style="clip-rule:evenodd" /></clipPath><clipPath
       clipPathUnits="userSpaceOnUse"
       id="clipPath8594"><path
         d="m 51,228.24 690.24,0 0,155.4 -690.24,0 0,-155.4 z"
         id="path8596"
         inkscape:connector-curvature="0"
         style="clip-rule:evenodd" /></clipPath><clipPath
       clipPathUnits="userSpaceOnUse"
       id="clipPath8606"><path
         d="m 51,228.24 690.24,0 0,155.4 -690.24,0 0,-155.4 z"
         id="path8608"
         inkscape:connector-curvature="0"
         style="clip-rule:evenodd" /></clipPath><clipPath
       clipPathUnits="userSpaceOnUse"
       id="clipPath8618"><path
         d="m 51,228.24 690.24,0 0,155.4 -690.24,0 0,-155.4 z"
         id="path8620"
         inkscape:connector-curvature="0"
         style="clip-rule:evenodd" /></clipPath><clipPath
       clipPathUnits="userSpaceOnUse"
       id="clipPath8630"><path
         d="m 50.4,228 691.2,0 0,156.12 -691.2,0 0,-156.12 z"
         id="path8632"
         inkscape:connector-curvature="0"
         style="clip-rule:evenodd" /></clipPath><filter
       style="color-interpolation-filters:sRGB"
       inkscape:label="Drop Shadow"
       id="filter4539"><feFlood
         flood-opacity="0.498039"
         flood-color="rgb(0,0,0)"
         result="flood"
         id="feFlood4541" /><feComposite
         in="flood"
         in2="SourceGraphic"
         operator="in"
         result="composite1"
         id="feComposite4543" /><feGaussianBlur
         in="composite1"
         stdDeviation="3"
         result="blur"
         id="feGaussianBlur4545" /><feOffset
         dx="2"
         dy="-2"
         result="offset"
         id="feOffset4547" /><feComposite
         in="SourceGraphic"
         in2="offset"
         operator="over"
         result="composite2"
         id="feComposite4549" /></filter><clipPath
       clipPathUnits="userSpaceOnUse"
       id="clipPath4616"><rect
         style="opacity:1;fill:#4d4d4d;fill-opacity:1;stroke:none;stroke-width:10;stroke-linecap:square;stroke-linejoin:round;stroke-miterlimit:4;stroke-dasharray:none;stroke-dashoffset:0;stroke-opacity:1"
         id="rect4618"
         width="358.9791"
         height="81.295517"
         x="339.3403"
         y="-122.85674" /></clipPath><clipPath
       id="clipPath9480"
       clipPathUnits="userSpaceOnUse"><path
         style="clip-rule:evenodd"
         inkscape:connector-curvature="0"
         id="path9482"
         d="m 50.88,202.32 690.36,0 0,207.12 -690.36,0 0,-207.12 z" /></clipPath><clipPath
       id="clipPath9492"
       clipPathUnits="userSpaceOnUse"><path
         style="clip-rule:evenodd"
         inkscape:connector-curvature="0"
         id="path9494"
         d="m 50.88,202.32 690.36,0 0,207.12 -690.36,0 0,-207.12 z" /></clipPath><clipPath
       id="clipPath9504"
       clipPathUnits="userSpaceOnUse"><path
         style="clip-rule:evenodd"
         inkscape:connector-curvature="0"
         id="path9506"
         d="m 50.88,202.32 690.36,0 0,207.12 -690.36,0 0,-207.12 z" /></clipPath><clipPath
       id="clipPath9516"
       clipPathUnits="userSpaceOnUse"><path
         style="clip-rule:evenodd"
         inkscape:connector-curvature="0"
         id="path9518"
         d="m 50.88,202.32 690.36,0 0,207.12 -690.36,0 0,-207.12 z" /></clipPath><clipPath
       id="clipPath9528"
       clipPathUnits="userSpaceOnUse"><path
         style="clip-rule:evenodd"
         inkscape:connector-curvature="0"
         id="path9530"
         d="m 50.88,202.32 690.36,0 0,207.12 -690.36,0 0,-207.12 z" /></clipPath><clipPath
       id="clipPath9540"
       clipPathUnits="userSpaceOnUse"><path
         style="clip-rule:evenodd"
         inkscape:connector-curvature="0"
         id="path9542"
         d="m 50.88,202.32 690.36,0 0,207.12 -690.36,0 0,-207.12 z" /></clipPath><clipPath
       id="clipPath9552"
       clipPathUnits="userSpaceOnUse"><path
         style="clip-rule:evenodd"
         inkscape:connector-curvature="0"
         id="path9554"
         d="m 50.88,202.32 690.36,0 0,207.12 -690.36,0 0,-207.12 z" /></clipPath><clipPath
       id="clipPath9564"
       clipPathUnits="userSpaceOnUse"><path
         style="clip-rule:evenodd"
         inkscape:connector-curvature="0"
         id="path9566"
         d="m 50.88,202.32 690.36,0 0,207.12 -690.36,0 0,-207.12 z" /></clipPath><clipPath
       id="clipPath9576"
       clipPathUnits="userSpaceOnUse"><path
         style="clip-rule:evenodd"
         inkscape:connector-curvature="0"
         id="path9578"
         d="m 50.88,202.32 690.36,0 0,207.12 -690.36,0 0,-207.12 z" /></clipPath><clipPath
       id="clipPath9588"
       clipPathUnits="userSpaceOnUse"><path
         style="clip-rule:evenodd"
         inkscape:connector-curvature="0"
         id="path9590"
         d="m 50.88,202.32 690.36,0 0,207.12 -690.36,0 0,-207.12 z" /></clipPath><clipPath
       id="clipPath9600"
       clipPathUnits="userSpaceOnUse"><path
         style="clip-rule:evenodd"
         inkscape:connector-curvature="0"
         id="path9602"
         d="m 50.88,202.32 690.36,0 0,207.12 -690.36,0 0,-207.12 z" /></clipPath><clipPath
       id="clipPath9612"
       clipPathUnits="userSpaceOnUse"><path
         style="clip-rule:evenodd"
         inkscape:connector-curvature="0"
         id="path9614"
         d="m 50.88,202.32 690.36,0 0,207.12 -690.36,0 0,-207.12 z" /></clipPath><clipPath
       id="clipPath9624"
       clipPathUnits="userSpaceOnUse"><path
         style="clip-rule:evenodd"
         inkscape:connector-curvature="0"
         id="path9626"
         d="m 50.88,202.32 690.36,0 0,207.12 -690.36,0 0,-207.12 z" /></clipPath><clipPath
       id="clipPath9636"
       clipPathUnits="userSpaceOnUse"><path
         style="clip-rule:evenodd"
         inkscape:connector-curvature="0"
         id="path9638"
         d="m 50.88,202.32 690.36,0 0,207.12 -690.36,0 0,-207.12 z" /></clipPath><clipPath
       id="clipPath9648"
       clipPathUnits="userSpaceOnUse"><path
         style="clip-rule:evenodd"
         inkscape:connector-curvature="0"
         id="path9650"
         d="m 50.88,202.32 690.36,0 0,207.12 -690.36,0 0,-207.12 z" /></clipPath><clipPath
       id="clipPath9660"
       clipPathUnits="userSpaceOnUse"><path
         style="clip-rule:evenodd"
         inkscape:connector-curvature="0"
         id="path9662"
         d="m 50.88,202.32 690.36,0 0,207.12 -690.36,0 0,-207.12 z" /></clipPath><clipPath
       id="clipPath9672"
       clipPathUnits="userSpaceOnUse"><path
         style="clip-rule:evenodd"
         inkscape:connector-curvature="0"
         id="path9674"
         d="m 50.88,202.32 690.36,0 0,207.12 -690.36,0 0,-207.12 z" /></clipPath><clipPath
       id="clipPath12440"
       clipPathUnits="userSpaceOnUse"><path
         style="clip-rule:evenodd"
         inkscape:connector-curvature="0"
         id="path12442"
         d="m 79.066,224.7 642.8,0 0,148.06 -642.8,0 0,-148.06 z" /></clipPath><clipPath
       id="clipPath17678"
       clipPathUnits="userSpaceOnUse"><path
         style="clip-rule:evenodd"
         inkscape:connector-curvature="0"
         id="path17680"
         d="m 50.88,202.32 690.36,0 0,207.12 -690.36,0 0,-207.12 z" /></clipPath><clipPath
       id="clipPath17690"
       clipPathUnits="userSpaceOnUse"><path
         style="clip-rule:evenodd"
         inkscape:connector-curvature="0"
         id="path17692"
         d="m 50.88,202.32 690.36,0 0,207.12 -690.36,0 0,-207.12 z" /></clipPath><clipPath
       id="clipPath17702"
       clipPathUnits="userSpaceOnUse"><path
         style="clip-rule:evenodd"
         inkscape:connector-curvature="0"
         id="path17704"
         d="m 50.88,202.32 690.36,0 0,207.12 -690.36,0 0,-207.12 z" /></clipPath><clipPath
       id="clipPath17714"
       clipPathUnits="userSpaceOnUse"><path
         style="clip-rule:evenodd"
         inkscape:connector-curvature="0"
         id="path17716"
         d="m 50.88,202.32 690.36,0 0,207.12 -690.36,0 0,-207.12 z" /></clipPath><clipPath
       id="clipPath17726"
       clipPathUnits="userSpaceOnUse"><path
         style="clip-rule:evenodd"
         inkscape:connector-curvature="0"
         id="path17728"
         d="m 50.88,202.32 690.36,0 0,207.12 -690.36,0 0,-207.12 z" /></clipPath><clipPath
       id="clipPath17738"
       clipPathUnits="userSpaceOnUse"><path
         style="clip-rule:evenodd"
         inkscape:connector-curvature="0"
         id="path17740"
         d="m 50.88,202.32 690.36,0 0,207.12 -690.36,0 0,-207.12 z" /></clipPath><clipPath
       id="clipPath17750"
       clipPathUnits="userSpaceOnUse"><path
         style="clip-rule:evenodd"
         inkscape:connector-curvature="0"
         id="path17752"
         d="m 50.88,202.32 690.36,0 0,207.12 -690.36,0 0,-207.12 z" /></clipPath><clipPath
       id="clipPath17762"
       clipPathUnits="userSpaceOnUse"><path
         style="clip-rule:evenodd"
         inkscape:connector-curvature="0"
         id="path17764"
         d="m 50.88,202.32 690.36,0 0,207.12 -690.36,0 0,-207.12 z" /></clipPath><clipPath
       id="clipPath17774"
       clipPathUnits="userSpaceOnUse"><path
         style="clip-rule:evenodd"
         inkscape:connector-curvature="0"
         id="path17776"
         d="m 50.88,202.32 690.36,0 0,207.12 -690.36,0 0,-207.12 z" /></clipPath><clipPath
       id="clipPath17786"
       clipPathUnits="userSpaceOnUse"><path
         style="clip-rule:evenodd"
         inkscape:connector-curvature="0"
         id="path17788"
         d="m 50.88,202.32 690.36,0 0,207.12 -690.36,0 0,-207.12 z" /></clipPath><clipPath
       id="clipPath17798"
       clipPathUnits="userSpaceOnUse"><path
         style="clip-rule:evenodd"
         inkscape:connector-curvature="0"
         id="path17800"
         d="m 50.88,202.32 690.36,0 0,207.12 -690.36,0 0,-207.12 z" /></clipPath><clipPath
       id="clipPath17810"
       clipPathUnits="userSpaceOnUse"><path
         style="clip-rule:evenodd"
         inkscape:connector-curvature="0"
         id="path17812"
         d="m 50.88,202.32 690.36,0 0,207.12 -690.36,0 0,-207.12 z" /></clipPath><clipPath
       id="clipPath17822"
       clipPathUnits="userSpaceOnUse"><path
         style="clip-rule:evenodd"
         inkscape:connector-curvature="0"
         id="path17824"
         d="m 50.88,202.32 690.36,0 0,207.12 -690.36,0 0,-207.12 z" /></clipPath><clipPath
       id="clipPath17834"
       clipPathUnits="userSpaceOnUse"><path
         style="clip-rule:evenodd"
         inkscape:connector-curvature="0"
         id="path17836"
         d="m 50.88,202.32 690.36,0 0,207.12 -690.36,0 0,-207.12 z" /></clipPath><clipPath
       id="clipPath17846"
       clipPathUnits="userSpaceOnUse"><path
         style="clip-rule:evenodd"
         inkscape:connector-curvature="0"
         id="path17848"
         d="m 50.88,202.32 690.36,0 0,207.12 -690.36,0 0,-207.12 z" /></clipPath><clipPath
       id="clipPath17858"
       clipPathUnits="userSpaceOnUse"><path
         style="clip-rule:evenodd"
         inkscape:connector-curvature="0"
         id="path17860"
         d="m 50.88,202.32 690.36,0 0,207.12 -690.36,0 0,-207.12 z" /></clipPath><clipPath
       id="clipPath17870"
       clipPathUnits="userSpaceOnUse"><path
         style="clip-rule:evenodd"
         inkscape:connector-curvature="0"
         id="path17872"
         d="m 50.88,202.32 690.36,0 0,207.12 -690.36,0 0,-207.12 z" /></clipPath><clipPath
       id="clipPath20628"
       clipPathUnits="userSpaceOnUse"><path
         style="clip-rule:evenodd"
         inkscape:connector-curvature="0"
         id="path20630"
         d="m 101.73,266.47 620.63,0 0,159.75 -620.63,0 0,-159.75 z" /></clipPath><clipPath
       id="clipPath20638"
       clipPathUnits="userSpaceOnUse"><path
         style="clip-rule:evenodd"
         inkscape:connector-curvature="0"
         id="path20640"
         d="m 51.12,119.76 689.64,0 0,372.48 -689.64,0 0,-372.48 z" /></clipPath><clipPath
       id="clipPath20650"
       clipPathUnits="userSpaceOnUse"><path
         style="clip-rule:evenodd"
         inkscape:connector-curvature="0"
         id="path20652"
         d="m 51.12,119.76 689.64,0 0,372.48 -689.64,0 0,-372.48 z" /></clipPath><clipPath
       id="clipPath20662"
       clipPathUnits="userSpaceOnUse"><path
         style="clip-rule:evenodd"
         inkscape:connector-curvature="0"
         id="path20664"
         d="m 51.12,119.76 689.64,0 0,372.48 -689.64,0 0,-372.48 z" /></clipPath><clipPath
       id="clipPath20674"
       clipPathUnits="userSpaceOnUse"><path
         style="clip-rule:evenodd"
         inkscape:connector-curvature="0"
         id="path20676"
         d="m 51.12,119.76 689.64,0 0,372.48 -689.64,0 0,-372.48 z" /></clipPath><clipPath
       id="clipPath20686"
       clipPathUnits="userSpaceOnUse"><path
         style="clip-rule:evenodd"
         inkscape:connector-curvature="0"
         id="path20688"
         d="m 51.12,119.76 689.64,0 0,372.48 -689.64,0 0,-372.48 z" /></clipPath><clipPath
       id="clipPath20698"
       clipPathUnits="userSpaceOnUse"><path
         style="clip-rule:evenodd"
         inkscape:connector-curvature="0"
         id="path20700"
         d="m 51.12,119.76 689.64,0 0,372.48 -689.64,0 0,-372.48 z" /></clipPath><clipPath
       id="clipPath20710"
       clipPathUnits="userSpaceOnUse"><path
         style="clip-rule:evenodd"
         inkscape:connector-curvature="0"
         id="path20712"
         d="m 51.12,119.76 689.64,0 0,372.48 -689.64,0 0,-372.48 z" /></clipPath><clipPath
       id="clipPath20722"
       clipPathUnits="userSpaceOnUse"><path
         style="clip-rule:evenodd"
         inkscape:connector-curvature="0"
         id="path20724"
         d="m 51.12,119.76 689.64,0 0,372.48 -689.64,0 0,-372.48 z" /></clipPath><clipPath
       id="clipPath20734"
       clipPathUnits="userSpaceOnUse"><path
         style="clip-rule:evenodd"
         inkscape:connector-curvature="0"
         id="path20736"
         d="m 51.12,119.76 689.64,0 0,372.48 -689.64,0 0,-372.48 z" /></clipPath><clipPath
       id="clipPath20746"
       clipPathUnits="userSpaceOnUse"><path
         style="clip-rule:evenodd"
         inkscape:connector-curvature="0"
         id="path20748"
         d="m 51.12,119.76 689.64,0 0,372.48 -689.64,0 0,-372.48 z" /></clipPath><clipPath
       id="clipPath20758"
       clipPathUnits="userSpaceOnUse"><path
         style="clip-rule:evenodd"
         inkscape:connector-curvature="0"
         id="path20760"
         d="m 51.12,119.76 689.64,0 0,372.48 -689.64,0 0,-372.48 z" /></clipPath><clipPath
       id="clipPath20770"
       clipPathUnits="userSpaceOnUse"><path
         style="clip-rule:evenodd"
         inkscape:connector-curvature="0"
         id="path20772"
         d="m 51.12,119.76 689.64,0 0,372.48 -689.64,0 0,-372.48 z" /></clipPath><clipPath
       id="clipPath20782"
       clipPathUnits="userSpaceOnUse"><path
         style="clip-rule:evenodd"
         inkscape:connector-curvature="0"
         id="path20784"
         d="m 51.12,119.76 689.64,0 0,372.48 -689.64,0 0,-372.48 z" /></clipPath><clipPath
       id="clipPath20794"
       clipPathUnits="userSpaceOnUse"><path
         style="clip-rule:evenodd"
         inkscape:connector-curvature="0"
         id="path20796"
         d="m 51.12,119.76 689.64,0 0,372.48 -689.64,0 0,-372.48 z" /></clipPath><clipPath
       id="clipPath20806"
       clipPathUnits="userSpaceOnUse"><path
         style="clip-rule:evenodd"
         inkscape:connector-curvature="0"
         id="path20808"
         d="m 51.12,119.76 689.64,0 0,372.48 -689.64,0 0,-372.48 z" /></clipPath><clipPath
       id="clipPath20818"
       clipPathUnits="userSpaceOnUse"><path
         style="clip-rule:evenodd"
         inkscape:connector-curvature="0"
         id="path20820"
         d="m 51.12,119.76 689.64,0 0,372.48 -689.64,0 0,-372.48 z" /></clipPath><clipPath
       id="clipPath20830"
       clipPathUnits="userSpaceOnUse"><path
         style="clip-rule:evenodd"
         inkscape:connector-curvature="0"
         id="path20832"
         d="m 51.12,119.76 689.64,0 0,372.48 -689.64,0 0,-372.48 z" /></clipPath><clipPath
       id="clipPath20842"
       clipPathUnits="userSpaceOnUse"><path
         style="clip-rule:evenodd"
         inkscape:connector-curvature="0"
         id="path20844"
         d="m 51.12,119.76 689.64,0 0,372.48 -689.64,0 0,-372.48 z" /></clipPath><clipPath
       id="clipPath20854"
       clipPathUnits="userSpaceOnUse"><path
         style="clip-rule:evenodd"
         inkscape:connector-curvature="0"
         id="path20856"
         d="m 51.12,119.76 689.64,0 0,372.48 -689.64,0 0,-372.48 z" /></clipPath><clipPath
       id="clipPath20866"
       clipPathUnits="userSpaceOnUse"><path
         style="clip-rule:evenodd"
         inkscape:connector-curvature="0"
         id="path20868"
         d="m 51.12,119.76 689.64,0 0,372.48 -689.64,0 0,-372.48 z" /></clipPath><clipPath
       id="clipPath20878"
       clipPathUnits="userSpaceOnUse"><path
         style="clip-rule:evenodd"
         inkscape:connector-curvature="0"
         id="path20880"
         d="m 51.12,119.76 689.64,0 0,372.48 -689.64,0 0,-372.48 z" /></clipPath><clipPath
       id="clipPath20890"
       clipPathUnits="userSpaceOnUse"><path
         style="clip-rule:evenodd"
         inkscape:connector-curvature="0"
         id="path20892"
         d="m 51.12,119.76 689.64,0 0,372.48 -689.64,0 0,-372.48 z" /></clipPath><clipPath
       id="clipPath20902"
       clipPathUnits="userSpaceOnUse"><path
         style="clip-rule:evenodd"
         inkscape:connector-curvature="0"
         id="path20904"
         d="m 51.12,119.76 689.64,0 0,372.48 -689.64,0 0,-372.48 z" /></clipPath><clipPath
       id="clipPath20914"
       clipPathUnits="userSpaceOnUse"><path
         style="clip-rule:evenodd"
         inkscape:connector-curvature="0"
         id="path20916"
         d="m 51.12,119.76 689.64,0 0,372.48 -689.64,0 0,-372.48 z" /></clipPath><clipPath
       id="clipPath20926"
       clipPathUnits="userSpaceOnUse"><path
         style="clip-rule:evenodd"
         inkscape:connector-curvature="0"
         id="path20928"
         d="m 51.12,119.76 689.64,0 0,372.48 -689.64,0 0,-372.48 z" /></clipPath><clipPath
       id="clipPath20938"
       clipPathUnits="userSpaceOnUse"><path
         style="clip-rule:evenodd"
         inkscape:connector-curvature="0"
         id="path20940"
         d="m 51.12,119.76 689.64,0 0,372.48 -689.64,0 0,-372.48 z" /></clipPath><clipPath
       id="clipPath20950"
       clipPathUnits="userSpaceOnUse"><path
         style="clip-rule:evenodd"
         inkscape:connector-curvature="0"
         id="path20952"
         d="m 51.12,119.76 689.64,0 0,372.48 -689.64,0 0,-372.48 z" /></clipPath><clipPath
       id="clipPath20962"
       clipPathUnits="userSpaceOnUse"><path
         style="clip-rule:evenodd"
         inkscape:connector-curvature="0"
         id="path20964"
         d="m 51.12,119.76 689.64,0 0,372.48 -689.64,0 0,-372.48 z" /></clipPath><clipPath
       id="clipPath20974"
       clipPathUnits="userSpaceOnUse"><path
         style="clip-rule:evenodd"
         inkscape:connector-curvature="0"
         id="path20976"
         d="m 51.12,119.76 689.64,0 0,372.48 -689.64,0 0,-372.48 z" /></clipPath><clipPath
       id="clipPath20986"
       clipPathUnits="userSpaceOnUse"><path
         style="clip-rule:evenodd"
         inkscape:connector-curvature="0"
         id="path20988"
         d="m 51.12,119.76 689.64,0 0,372.48 -689.64,0 0,-372.48 z" /></clipPath><clipPath
       id="clipPath20998"
       clipPathUnits="userSpaceOnUse"><path
         style="clip-rule:evenodd"
         inkscape:connector-curvature="0"
         id="path21000"
         d="m 51.12,119.76 689.64,0 0,372.48 -689.64,0 0,-372.48 z" /></clipPath><clipPath
       id="clipPath21010"
       clipPathUnits="userSpaceOnUse"><path
         style="clip-rule:evenodd"
         inkscape:connector-curvature="0"
         id="path21012"
         d="m 51.12,119.76 689.64,0 0,372.48 -689.64,0 0,-372.48 z" /></clipPath><clipPath
       id="clipPath21022"
       clipPathUnits="userSpaceOnUse"><path
         style="clip-rule:evenodd"
         inkscape:connector-curvature="0"
         id="path21024"
         d="m 51.12,119.76 689.64,0 0,372.48 -689.64,0 0,-372.48 z" /></clipPath><clipPath
       id="clipPath21034"
       clipPathUnits="userSpaceOnUse"><path
         style="clip-rule:evenodd"
         inkscape:connector-curvature="0"
         id="path21036"
         d="m 51.12,119.76 689.64,0 0,372.48 -689.64,0 0,-372.48 z" /></clipPath><clipPath
       id="clipPath21046"
       clipPathUnits="userSpaceOnUse"><path
         style="clip-rule:evenodd"
         inkscape:connector-curvature="0"
         id="path21048"
         d="m 51.12,119.76 689.64,0 0,372.48 -689.64,0 0,-372.48 z" /></clipPath><clipPath
       id="clipPath21058"
       clipPathUnits="userSpaceOnUse"><path
         style="clip-rule:evenodd"
         inkscape:connector-curvature="0"
         id="path21060"
         d="m 51.12,119.76 689.64,0 0,372.48 -689.64,0 0,-372.48 z" /></clipPath><clipPath
       id="clipPath21070"
       clipPathUnits="userSpaceOnUse"><path
         style="clip-rule:evenodd"
         inkscape:connector-curvature="0"
         id="path21072"
         d="m 51.12,119.76 689.64,0 0,372.48 -689.64,0 0,-372.48 z" /></clipPath><clipPath
       id="clipPath21082"
       clipPathUnits="userSpaceOnUse"><path
         style="clip-rule:evenodd"
         inkscape:connector-curvature="0"
         id="path21084"
         d="m 51.12,119.76 689.64,0 0,372.48 -689.64,0 0,-372.48 z" /></clipPath><clipPath
       id="clipPath21094"
       clipPathUnits="userSpaceOnUse"><path
         style="clip-rule:evenodd"
         inkscape:connector-curvature="0"
         id="path21096"
         d="m 51.12,119.76 689.64,0 0,372.48 -689.64,0 0,-372.48 z" /></clipPath><clipPath
       id="clipPath21106"
       clipPathUnits="userSpaceOnUse"><path
         style="clip-rule:evenodd"
         inkscape:connector-curvature="0"
         id="path21108"
         d="m 51.12,119.76 689.64,0 0,372.48 -689.64,0 0,-372.48 z" /></clipPath><clipPath
       id="clipPath21118"
       clipPathUnits="userSpaceOnUse"><path
         style="clip-rule:evenodd"
         inkscape:connector-curvature="0"
         id="path21120"
         d="m 51.12,119.76 689.64,0 0,372.48 -689.64,0 0,-372.48 z" /></clipPath><clipPath
       id="clipPath21130"
       clipPathUnits="userSpaceOnUse"><path
         style="clip-rule:evenodd"
         inkscape:connector-curvature="0"
         id="path21132"
         d="m 51.12,119.76 689.64,0 0,372.48 -689.64,0 0,-372.48 z" /></clipPath><clipPath
       id="clipPath21144"
       clipPathUnits="userSpaceOnUse"><path
         style="clip-rule:evenodd"
         inkscape:connector-curvature="0"
         id="path21146"
         d="m 51.12,119.76 689.64,0 0,372.48 -689.64,0 0,-372.48 z" /></clipPath><clipPath
       id="clipPath21156"
       clipPathUnits="userSpaceOnUse"><path
         style="clip-rule:evenodd"
         inkscape:connector-curvature="0"
         id="path21158"
         d="m 50.4,118.92 691.2,0 0,374.28 -691.2,0 0,-374.28 z" /></clipPath></defs><sodipodi:namedview
     pagecolor="#ffffff"
     bordercolor="#666666"
     borderopacity="1"
     objecttolerance="10"
     gridtolerance="10"
     guidetolerance="10"
     inkscape:pageopacity="0"
     inkscape:pageshadow="2"
     inkscape:window-width="1600"
     inkscape:window-height="837"
     id="namedview8482"
     showgrid="false"
     inkscape:zoom="1.2278848"
     inkscape:cx="295.96818"
     inkscape:cy="4.202468"
     inkscape:window-x="-8"
     inkscape:window-y="-8"
     inkscape:window-maximized="1"
     inkscape:current-layer="g21988"
     inkscape:snap-global="true"
     fit-margin-top="0"
     fit-margin-left="0"
     fit-margin-right="0"
     fit-margin-bottom="0"
     inkscape:object-paths="true"
     inkscape:snap-center="true"
     inkscape:snap-bbox="true" /><g
     id="g8488"
     inkscape:groupmode="layer"
     inkscape:label="jnq_elevation"
     transform="matrix(1.25,0,0,-1.25,-77.278158,222.37529)"><g
       transform="matrix(1.0419297,0,0,1.0418328,8.8028915,-221.88227)"
       id="g4533"
       style="fill:#ffffff;stroke:none"><g
         clip-path="url(#clipPath8630)"
         id="g4535"
         style="fill:#ffffff;stroke:none"><path
           inkscape:connector-curvature="0"
           id="path4537"
           style="fill:#ffffff;stroke:none;stroke-width:0.66894001;stroke-linecap:butt;stroke-linejoin:round;stroke-miterlimit:10;stroke-dasharray:none;stroke-opacity:1"
           d="m 50.886,228.32 690.34,0 0,155.41 -690.34,0 0,-155.41 z" /></g></g><g
       id="g22060"
       transform="translate(0,263.85925)"><g
         style="stroke:#1a1a1a;stroke-width:2.35124946"
         id="g21874"
         transform="matrix(1.0445583,0,0,0.99908058,-0.55022928,-531.11549)"><g
           style="stroke:#1a1a1a;stroke-width:2.35124946"
           clip-path="url(#clipPath20628)"
           id="g21876"><path
             sodipodi:nodetypes="ccccccccccccccccccccccccccccccccc"
             inkscape:connector-curvature="0"
             id="path21878"
             d="m 723.03038,342.39 c -11.84412,0.55039 -23.38512,1.32978 -34.90038,-1.93 -5.85369,2.38251 -10.78517,-1.20462 -15.61,-4.06 -6.94071,-1.83176 -14.20547,-2.75037 -19.89,-7.7 -9.70094,-8.01635 -22.99188,-8.71532 -34.64,-5.99 -10.42404,0.2985 -16.65043,10.24938 -26.52,12.19 -10.26674,-0.20106 -20.82588,1.8691 -30.8,-0.21 -3.35238,-3.58897 -8.03418,0.57374 -12.4,-0.64 -12.42354,2.09402 -24.56979,0.59329 -37,1.28 -5.29871,-2.11987 -7.38608,3.18923 -10.26,6.2 -11.95781,-1.04742 -24.05482,-0.1607 -35.72,0.64 -7.29013,7.89336 -10.09296,21.13622 -19.46,26.31 -4.02965,0.0116 -8.55726,2.8696 -13.26,1.71 -4.47542,3.26062 -10.85671,4.85337 -14.54,9.84 -7.20279,5.04559 -11.86746,13.82134 -20.11,16.89 -7.83296,-3.96708 -13.29669,-12.99383 -22.24,-14.33 -8.58221,3.38546 -18.25963,4.23111 -26.09,9.2 -6.54799,5.51813 -8.40461,16.57609 -16.47,19.68 -9.1023,1.17341 -13.16721,-9.25079 -18.17,-15.4 -5.8909,-11.98868 -10.62223,-26.22109 -21.82,-34.01 -5.53256,-1.6876 -11.65286,-3.05473 -16.89,-3.2 -4.75754,-2.65815 -9.49597,-6.31705 -15.19,-6.21 -5.37268,0.14033 -9.90147,2.10804 -15.18,3.43 -4.96942,-0.22489 -9.97052,4.24661 -14.76,0.85 -7.27454,-0.95705 -14.05937,-4.81933 -20.96,-5.13 -4.91395,0.0707 -10.49398,-0.68356 -14.97,-3.21 -6.34336,-2.40807 -12.97173,-5.39703 -20.1,-4.28 -11.92722,-0.81063 -23.91517,1.66506 -35.5,-0.21 -6.57006,-6.3112 -15.71407,-0.98417 -23.31,-2.14 -4.48486,0.93468 -9.80914,0.0591 -14.26792,0.43 l 0,-39.11322 621.0283,0 z"
             style="fill:#808080;fill-opacity:1;stroke:none;stroke-width:2.35124946;stroke-linecap:round;stroke-linejoin:round;stroke-miterlimit:10;stroke-dasharray:none;stroke-opacity:1" /></g></g><g
         id="g21862"><path
           inkscape:connector-curvature="0"
           id="path21804"
           d="m 105.99689,-228.11755 648,0"
           style="fill:none;fill-rule:evenodd;stroke:#b3b3b3;stroke-width:1.12246239;stroke-linecap:butt;stroke-linejoin:miter;stroke-opacity:1" /><path
           style="fill:none;fill-rule:evenodd;stroke:#b3b3b3;stroke-width:1.12246239;stroke-linecap:butt;stroke-linejoin:miter;stroke-opacity:1"
           d="m 105.99689,-210.4904 648,0"
           id="path21806"
           inkscape:connector-curvature="0" /><path
           inkscape:connector-curvature="0"
           id="path21808"
           d="m 105.99689,-192.86326 648,0"
           style="fill:none;fill-rule:evenodd;stroke:#b3b3b3;stroke-width:1.12246239;stroke-linecap:butt;stroke-linejoin:miter;stroke-opacity:1" /><path
           style="fill:none;fill-rule:evenodd;stroke:#b3b3b3;stroke-width:1.12246239;stroke-linecap:butt;stroke-linejoin:miter;stroke-opacity:1"
           d="m 105.99689,-175.23613 648,0"
           id="path21810"
           inkscape:connector-curvature="0" /><path
           inkscape:connector-curvature="0"
           id="path21812"
           d="m 105.99689,-157.60898 648,0"
           style="fill:none;fill-rule:evenodd;stroke:#b3b3b3;stroke-width:1.12246239;stroke-linecap:butt;stroke-linejoin:miter;stroke-opacity:1" /><path
           style="fill:none;fill-rule:evenodd;stroke:#b3b3b3;stroke-width:1.12246239;stroke-linecap:butt;stroke-linejoin:miter;stroke-opacity:1"
           d="m 105.99689,-139.98183 648,0"
           id="path21814"
           inkscape:connector-curvature="0" /><path
           inkscape:connector-curvature="0"
           id="path21816"
           d="m 105.99689,-122.3547 648,0"
           style="fill:none;fill-rule:evenodd;stroke:#b3b3b3;stroke-width:1.12246239;stroke-linecap:butt;stroke-linejoin:miter;stroke-opacity:1" /><path
           id="path21818"
           d="m 105.99689,-104.72755 648,0"
           style="fill:none;fill-rule:evenodd;stroke:#b3b3b3;stroke-width:1.12246239;stroke-linecap:butt;stroke-linejoin:miter;stroke-opacity:1"
           inkscape:connector-curvature="0" /></g><path
         sodipodi:nodetypes="cc"
         style="fill:none;fill-rule:evenodd;stroke:#ffffff;stroke-width:2.4000001;stroke-linecap:butt;stroke-linejoin:miter;stroke-opacity:1"
         d="m 645.73019,-209.78411 0,-18.33344"
         id="path21902"
         inkscape:connector-curvature="0" /><path
         sodipodi:nodetypes="cc"
         inkscape:connector-curvature="0"
         id="path21908"
         d="m 510.89684,-192.18302 0,-35.93453"
         style="fill:none;fill-rule:evenodd;stroke:#ffffff;stroke-width:2.4000001;stroke-linecap:butt;stroke-linejoin:miter;stroke-opacity:1" /><path
         sodipodi:nodetypes="cc"
         inkscape:connector-curvature="0"
         id="path21912"
         d="m 376.06354,-144.73101 0,-83.38654"
         style="fill:none;fill-rule:evenodd;stroke:#ffffff;stroke-width:2.4000001;stroke-linecap:butt;stroke-linejoin:miter;stroke-opacity:1" /><path
         sodipodi:nodetypes="cc"
         inkscape:connector-curvature="0"
         id="path21916"
         d="m 241.23022,-176.05855 0,-52.059"
         style="fill:none;fill-rule:evenodd;stroke:#ffffff;stroke-width:2.4000001;stroke-linecap:butt;stroke-linejoin:miter;stroke-opacity:1" /><text
         xml:space="preserve"
         style="font-style:normal;font-weight:normal;font-size:32px;line-height:125%;font-family:sans-serif;letter-spacing:0px;word-spacing:0px;fill:#666666;fill-opacity:1;stroke:none;stroke-width:1px;stroke-linecap:butt;stroke-linejoin:miter;stroke-opacity:1"
         x="86.097679"
         y="107.52755"
         id="text21822"
         sodipodi:linespacing="125%"
         transform="scale(1,-1)"><tspan
           sodipodi:role="line"
           id="tspan21824"
           x="86.097679"
           y="107.52755"
           style="font-style:normal;font-variant:normal;font-weight:bold;font-stretch:normal;font-size:8px;font-family:'Gotham Bold';-inkscape-font-specification:'Gotham Bold, Bold';fill:#666666">370</tspan></text>
<text
         transform="scale(1,-1)"
         sodipodi:linespacing="125%"
         id="text21826"
         y="125.15469"
         x="86.593933"
         style="font-style:normal;font-weight:normal;font-size:32px;line-height:125%;font-family:sans-serif;letter-spacing:0px;word-spacing:0px;fill:#666666;fill-opacity:1;stroke:none;stroke-width:1px;stroke-linecap:butt;stroke-linejoin:miter;stroke-opacity:1"
         xml:space="preserve"><tspan
           style="font-style:normal;font-variant:normal;font-weight:bold;font-stretch:normal;font-size:8px;font-family:'Gotham Bold';-inkscape-font-specification:'Gotham Bold, Bold';fill:#666666"
           y="125.15469"
           x="86.593933"
           id="tspan21828"
           sodipodi:role="line">365</tspan></text>
<text
         xml:space="preserve"
         style="font-style:normal;font-weight:normal;font-size:32px;line-height:125%;font-family:sans-serif;letter-spacing:0px;word-spacing:0px;fill:#666666;fill-opacity:1;stroke:none;stroke-width:1px;stroke-linecap:butt;stroke-linejoin:miter;stroke-opacity:1"
         x="85.753929"
         y="142.78183"
         id="text21830"
         sodipodi:linespacing="125%"
         transform="scale(1,-1)"><tspan
           sodipodi:role="line"
           id="tspan21832"
           x="85.753929"
           y="142.78183"
           style="font-style:normal;font-variant:normal;font-weight:bold;font-stretch:normal;font-size:8px;font-family:'Gotham Bold';-inkscape-font-specification:'Gotham Bold, Bold';fill:#666666">360</tspan></text>
<text
         transform="scale(1,-1)"
         sodipodi:linespacing="125%"
         id="text21834"
         y="160.36098"
         x="86.843933"
         style="font-style:normal;font-weight:normal;font-size:32px;line-height:125%;font-family:sans-serif;letter-spacing:0px;word-spacing:0px;fill:#666666;fill-opacity:1;stroke:none;stroke-width:1px;stroke-linecap:butt;stroke-linejoin:miter;stroke-opacity:1"
         xml:space="preserve"><tspan
           style="font-style:normal;font-variant:normal;font-weight:bold;font-stretch:normal;font-size:8px;font-family:'Gotham Bold';-inkscape-font-specification:'Gotham Bold, Bold';fill:#666666"
           y="160.36098"
           x="86.843933"
           id="tspan21836"
           sodipodi:role="line">355</tspan></text>
<text
         xml:space="preserve"
         style="font-style:normal;font-weight:normal;font-size:32px;line-height:125%;font-family:sans-serif;letter-spacing:0px;word-spacing:0px;fill:#666666;fill-opacity:1;stroke:none;stroke-width:1px;stroke-linecap:butt;stroke-linejoin:miter;stroke-opacity:1"
         x="86.003929"
         y="178.03613"
         id="text21838"
         sodipodi:linespacing="125%"
         transform="scale(1,-1)"><tspan
           sodipodi:role="line"
           id="tspan21840"
           x="86.003929"
           y="178.03613"
           style="font-style:normal;font-variant:normal;font-weight:bold;font-stretch:normal;font-size:8px;font-family:'Gotham Bold';-inkscape-font-specification:'Gotham Bold, Bold';fill:#666666">350</tspan></text>
<text
         transform="scale(1,-1)"
         sodipodi:linespacing="125%"
         id="text21842"
         y="195.63525"
         x="86.375183"
         style="font-style:normal;font-weight:normal;font-size:32px;line-height:125%;font-family:sans-serif;letter-spacing:0px;word-spacing:0px;fill:#666666;fill-opacity:1;stroke:none;stroke-width:1px;stroke-linecap:butt;stroke-linejoin:miter;stroke-opacity:1"
         xml:space="preserve"><tspan
           style="font-style:normal;font-variant:normal;font-weight:bold;font-stretch:normal;font-size:8px;font-family:'Gotham Bold';-inkscape-font-specification:'Gotham Bold, Bold';fill:#666666"
           y="195.63525"
           x="86.375183"
           id="tspan21844"
           sodipodi:role="line">345</tspan></text>
<text
         xml:space="preserve"
         style="font-style:normal;font-weight:normal;font-size:32px;line-height:125%;font-family:sans-serif;letter-spacing:0px;word-spacing:0px;fill:#666666;fill-opacity:1;stroke:none;stroke-width:1px;stroke-linecap:butt;stroke-linejoin:miter;stroke-opacity:1"
         x="85.535179"
         y="213.29042"
         id="text21846"
         sodipodi:linespacing="125%"
         transform="scale(1,-1)"><tspan
           sodipodi:role="line"
           id="tspan21848"
           x="85.535179"
           y="213.29042"
           style="font-style:normal;font-variant:normal;font-weight:bold;font-stretch:normal;font-size:8px;font-family:'Gotham Bold';-inkscape-font-specification:'Gotham Bold, Bold';fill:#666666">340</tspan></text>
<text
         transform="scale(1,-1)"
         sodipodi:linespacing="125%"
         id="text21850"
         y="230.86955"
         x="86.922058"
         style="font-style:normal;font-weight:normal;font-size:32px;line-height:125%;font-family:sans-serif;letter-spacing:0px;word-spacing:0px;fill:#666666;fill-opacity:1;stroke:none;stroke-width:1px;stroke-linecap:butt;stroke-linejoin:miter;stroke-opacity:1"
         xml:space="preserve"><tspan
           style="font-style:normal;font-variant:normal;font-weight:bold;font-stretch:normal;font-size:8px;font-family:'Gotham Bold';-inkscape-font-specification:'Gotham Bold, Bold';fill:#666666"
           y="230.86955"
           x="86.922058"
           id="tspan21852"
           sodipodi:role="line">335</tspan></text>
<path
         inkscape:connector-curvature="0"
         id="path21928"
         style="fill:none;stroke:#ffffff;stroke-width:6.4000001;stroke-linecap:round;stroke-linejoin:round;stroke-miterlimit:10;stroke-dasharray:none;stroke-opacity:1"
         d="m 107.21383,-189.04066 0.44861,-0.2198 0.44862,0 0.6677,0 0.44862,0.2198 0.44861,-0.2198 0.43817,0 0.44862,0.2198 0.6677,0 0.44862,0 0.44861,0 0.44862,0 0.6677,0 0.44861,0 0.43818,0 0.44861,0 0.44862,0 0.66769,0 0.44862,0 0.44862,0 0.43817,0 0.67814,0 0.43818,-0.2198 0.44862,0 0.44861,0.2198 0.4486,0 0.66771,0 0.44861,-0.2198 0.43819,0 0.4486,0 0.44861,-0.2098 0.66772,0 0.4486,0.2098 0.44862,-0.2098 0.43818,0 0.67814,-0.20982 0.43817,0 0.44861,0.20982 0.44862,0 0.44862,0 0.6677,0 0.44861,0.2098 0.43818,-0.2098 0.44862,0 0.66769,0 0.44862,0 0.44861,0 0.4486,-0.20982 0.43819,0 0.67814,-0.21981 0.43818,0 0.44861,0 0.44861,-0.2098 0.44862,-0.20981 0.6677,-0.2198 0.44861,0 0.43818,0 0.44862,0 0.6677,-0.20981 0.4486,0 0.44863,0.20981 0.44861,0 0.43819,0.2198 0.67812,0 0.43818,0 0.44862,0 0.4486,0 0.66771,0.20981 0.44861,0.2098 0.44863,0 0.43817,0 0.44861,0.21981 0.66771,0 0.44861,0.20982 0.44861,0.2098 0.44861,0.2198 0.43818,0.42961 0.66771,0.41962 0.4486,0.42962 0.44862,0.4296 0.44862,0 0.6677,0.20981 0.44861,0 0.43818,0.21981 0.44862,-0.21981 0.44861,0.21981 0.6677,0 0.44861,0.20981 0.44861,0 0.44862,0 0.6677,0 0.43818,-0.20981 0.44862,0 0.4486,0.20981 0.44862,0 0.6677,0 0.44861,0 0.43818,0 0.44861,0.2098 0.44862,0 0.66769,0 0.44863,0 0.44861,0 0.43818,0 0.67813,0 0.43818,-0.2098 0.44862,0 0.44861,0 0.44861,0 0.6677,0 0.44862,0 0.43818,0 0.44861,0 0.66771,0 0.44861,0 0.4486,-0.20981 0.44862,0 0.43818,0 0.67814,0 0.43818,0 0.4486,0 0.44863,0 0.44861,-0.21981 0.6677,0 0.44861,0 0.43819,-0.20981 0.44861,0 0.66769,0.20981 0.44862,0 0.44861,0 0.44863,-0.20981 0.43816,0 0.67815,0 0.43818,0.20981 0.44861,0 0.44861,0 0.6677,0 0.44862,-0.20981 0.4486,0 0.43818,0 0.44862,0.20981 0.6677,0 0.44862,0 0.44861,0 0.44861,0 0.43819,0 0.67812,0 0.43819,0 0.44861,0 0.44861,0 0.6677,0 0.44862,0 0.44862,0 0.43818,0 0.4486,0 0.66771,0 0.44861,0 0.44861,-0.20981 0.44861,0 0.66772,0 0.4486,0.20981 0.43817,0 0.44863,-0.20981 0.44861,0 0.66771,0 0.4486,0.20981 0.44861,0 0.43819,0 0.44861,0 0.6677,0 0.44861,0.21981 0.44863,0.20981 0.4486,0 0.6677,0 0.43819,0 0.44861,0.2098 0.44861,0 0.44861,0.42962 0.6677,0.21979 0.44862,0 0.44861,0.20982 0.43818,0 0.44862,0 0.6677,0.20981 0.44861,0 0.44861,0.2198 0.44862,0.4296 0.66769,0.20982 0.43818,0.20981 0.44862,0.42962 0.44861,0.21979 0.44862,0.41962 0.6677,0.21981 0.44862,0 0.43818,0.20981 0.4486,0 0.66771,0 0.44861,0.2098 0.44862,0 0.4486,0.2198 0.44862,0.42961 0.66771,0.20982 0.43818,0 0.44861,0 0.44861,0.20981 0.44861,0.2198 0.6677,0.42961 0.44861,0.2098 0.43819,0.20983 0.44861,0.21979 0.6677,0.20981 0.44862,0 0.44861,0 0.44862,0 0.43818,0.20981 0.67813,0 0.43818,0 0.44861,0 0.44861,0 0.6677,0 0.44863,0 0.4486,0 0.43817,0 0.44863,0 0.6677,0 0.44861,0 0.44861,0 0.44862,-0.20981 0.43818,0.42961 0.67813,0 0.43818,-0.2198 0.44862,0.2198 0.44862,0.42962 0.66769,0 0.44861,0.2098 0.44862,-0.2098 0.43818,0 0.44861,0 0.6677,-0.21981 0.44862,0.42961 0.44861,0.20982 0.44861,0.21979 0.66771,0 0.44861,0.20981 0.43819,0 0.4486,0.21981 0.44861,0.41962 0.66771,0.2198 0.4486,0.2098 0.44863,0 0.43817,0.20982 0.44861,0.2198 0.66771,0.20981 0.44861,0 0.44862,0.2198 0.4486,0 0.66771,0.20981 0.44861,-0.20981 0.43818,0.20981 0.44862,0.20981 0.44861,0.42962 0.66771,0 0.44861,0 0.4486,0.2198 0.43819,0 0.6677,0 0.44862,0.2098 0.4486,0 0.44861,0.20981 0.44863,0 0.66769,0 0.44862,0.21981 0.43818,0.2098 0.44861,0.20982 0.44862,0 0.66769,0 0.44862,0.21979 0.44861,0.20982 0.43818,0.4296 0.6677,0.20981 0.44861,0.21982 0.44863,0 0.4486,-0.21982 0.44862,0 0.6677,0 0.43818,0 0.44861,-0.20981 0.44861,0 0.66771,-0.2098 0.44861,-0.2198 0.44862,-0.20982 0.44861,-0.21979 0.43818,-0.20982 0.66771,-0.2098 0.4486,0 0.44862,-0.21981 0.44861,-0.20981 0.4486,0 0.66771,0 0.43818,0 0.44862,-0.2098 0.44861,-0.2198 0.6677,0 0.44862,0.2198 0.44861,0 0.43818,0 0.44861,-0.2198 0.66771,0 0.44861,-0.20983 0.4486,-0.21979 0.44863,-0.20981 0.6677,0 0.44861,-0.20981 0.43818,-0.2198 0.44861,-0.20981 0.44862,0 0.66769,-0.2198 0.44862,-0.63942 0.44861,-0.20981 0.43818,0 0.44861,0.20981 0.6677,0 0.44863,0 0.44861,-0.20981 0.4486,-0.20981 0.66771,-0.21981 0.44861,0 0.43819,0.21981 0.4486,-0.21981 0.44861,0 0.66771,0 0.44861,0 0.44862,-0.20981 0.43818,-0.21979 0.67814,-0.20982 0.43817,0.20982 0.44861,0.21979 0.44862,0.20981 0.44861,-0.20981 0.6677,0 0.44862,0.20981 0.43817,0 0.44863,0.21981 0.4486,0 0.66771,0 0.44861,0 0.44861,0 0.43818,0.20981 0.67813,0 0.43819,0.20981 0.4486,0.2198 0.44863,0.41962 0.44861,0.2198 0.66771,0.42961 0.4486,0.41962 0.43818,0.21979 0.44862,0.20983 0.44861,0.4296 0.6677,0.20981 0.44861,0 0.44862,0.42961 0.43818,0.20982 0.67813,0.21979 0.43819,0.63942 0.44861,0 0.4486,0.20981 0.44862,0.21982 0.6677,0.4296 0.44862,0.2098 0.43818,0.20982 0.4486,0 0.66771,-0.41962 0.44862,0.41962 0.44861,-0.20982 0.44861,0 0.43818,-0.2098 0.66771,0 0.4486,0.2098 0.44862,0.20982 0.44861,0.2198 0.44861,-0.2198 0.66771,0.2198 0.44861,0.20981 0.43819,0.2198 0.44861,0 0.6677,0 0.44861,0 0.44861,0.20982 0.44861,0.2098 0.43818,0 0.66771,0 0.44861,0.2198 0.44861,0.2098 0.44862,0.20983 0.6677,-0.20983 0.44861,0.20983 0.43818,0 0.44861,0.2198 0.44862,0 0.6677,0.4296 0.44861,0 0.44862,0 0.43817,0.20982 0.44863,0.2098 0.66769,0.21981 0.44862,0.42961 0.44861,0.20981 0.44861,0.2098 0.6677,0.42963 0.44863,0.4296 0.43817,0.42961 0.4486,0.63943 0.44863,0.4296 0.6677,0.41963 0.44862,0.42961 0.4486,0.2098 0.43818,0.85923 0.67814,0.85921 0.43818,0.63943 0.44861,0.63942 0.44861,0.84923 0.44862,0.64942 0.6677,0.63942 0.44861,0.63942 0.43819,0.84923 0.44861,0.64942 0.4486,0.84922 0.66771,0.63943 0.44861,1.06903 0.44863,0.42961 0.43816,0.63943 0.67815,1.06903 0.43818,0.85922 0.44861,0.84923 0.44861,0.85923 0.44861,0.84922 0.66771,1.06903 0.4486,0.85923 0.43818,1.06904 0.44862,1.06903 0.6677,0.84923 0.44862,0.85922 0.44861,1.06903 0.44861,1.27885 0.43819,1.06903 0.67812,1.06902 0.43819,1.27885 0.44861,0.85922 0.44861,0.84924 0.44861,0.85922 0.66771,0.84923 0.44862,0.63943 0.43818,0.6494 0.44861,0.63942 0.6677,0.84923 0.44861,0.63943 0.44861,0.64941 0.44861,0.63943 0.43819,0.6394 0.67814,0.63943 0.43816,0.42962 0.44863,0.63941 0.44861,0.63942 0.66771,0.63943 0.4486,0.64941 0.44862,0.63943 0.43818,0.41961 0.44861,0.64942 0.6677,0.63942 0.44861,0.42961 0.44863,0.63942 0.4486,0.41961 0.43817,0.42963 0.67815,0.21979 0.43818,0.20981 0.44861,0 0.44861,0.20981 0.66771,0.2198 0.44861,0 0.44861,0 0.43818,0 0.44862,0.20982 0.66771,0.34967 0.4486,-0.12988 0.44861,-0.21979 0.44862,0 0.66769,0 0.43819,0.21979 0.44861,0 0.44861,-0.21979 0.44862,0 0.6677,-0.20982 0.44862,-0.42961 0.43818,-0.20981 0.44861,-0.64942 0.44861,-0.63941 0.6677,-0.20981 0.44862,-0.42961 0.4486,-0.63942 0.44863,-0.85923 0.6677,-0.63942 0.43817,-0.84923 0.44862,-0.63943 0.44861,-0.4296 0.44862,-0.63942 0.66769,-0.85923 0.44861,-0.63943 0.43819,-0.85921 0.44861,-0.63942 0.6677,-1.06904 0.44861,-0.84923 0.44862,-0.63942 0.44862,-0.6494 0.43818,-0.63943 0.67813,-0.84923 0.43818,-0.42962 0.44861,-0.63941 0.44861,-0.85922 0.44861,-0.41962 0.66771,-0.42962 0.44861,-0.42961 0.43818,-0.63943 0.44862,-0.4296 0.6677,-0.42961 0.44861,-0.41963 0.44861,-0.42961 0.44862,-0.4296 0.43818,0 0.67813,-0.20982 0.43818,-0.2198 0.44861,0 0.44863,-0.20981 0.4486,-0.2198 0.66771,-0.20981 0.44861,0 0.43818,-0.20981 0.44861,-0.21979 0.6677,-0.42963 0.44862,0 0.44861,-0.2098 0.44861,0 0.43818,-0.20981 0.67814,0 0.43819,0 0.4486,-0.2198 0.44861,-0.20981 0.66771,-0.20982 0.4486,-0.21979 0.44862,0 0.43818,-0.20981 0.44861,0 0.6677,-0.21981 0.44862,-0.2098 0.44862,-0.20981 0.44861,-0.21981 0.43817,0 0.67814,0 0.43818,-0.20981 0.44862,-0.2198 0.4486,-0.41961 0.66771,0 0.44862,0 0.4486,-0.21982 0.43819,-0.2098 0.44861,0 0.66771,-0.20981 0.4486,0 0.44862,0 0.44861,-0.2198 0.66769,-0.20981 0.44863,-0.2198 0.43817,-0.20981 0.44863,0 0.44861,-0.20982 0.66769,0 0.44862,-0.2198 0.44861,-0.2098 0.43819,-0.2198 0.4486,0 0.6677,0 0.44862,0 0.44861,0.2198 0.44862,0.2098 0.6677,0 0.43819,0.2198 0.4486,0.20982 0.44861,0.20981 0.44862,0.42961 0.6677,0.2198 0.44861,0.20981 0.44862,0.2098 0.43817,0.42963 0.66771,0.4296 0.44861,0.20981 0.44862,0.42962 0.44861,0.2098 0.4486,0.42962 0.66771,0.42961 0.43818,0.42961 0.44862,0.20981 0.4486,0.42961 0.44862,0.42961 0.66771,0.41962 0.44861,0.42961 0.43818,0.42962 0.44861,0.4296 0.66771,0.42961 0.44861,0.20982 0.4486,0.42961 0.44862,0.41961 0.44862,0.42963 0.6677,0.4296 0.43817,0.42961 0.44862,0.20981 0.44862,0.21981 0.66769,0.41962 0.44862,0.21979 0.44861,0.41962 0.43818,0.21981 0.44861,0.20981 0.6677,0.2198 0.44862,0.41962 0.44862,0.42961 0.44861,0.2198 0.43818,0.41962 0.67813,-0.20981 0.43819,-0.20981 0.4486,0 0.44862,0 0.6677,-0.2198 0.44862,-0.42961 0.44861,-0.20982 0.43817,-0.63941 0.44863,-0.42962 0.66769,-0.4296 0.44862,-0.41962 0.44861,-0.21981 0.44861,-0.20981 0.6677,-0.63942 0.44862,-0.64942 0.43818,-0.41961 0.44861,-0.2198 0.44861,-0.41963 0.66771,-0.42961 0.44861,-0.21979 0.44861,-0.63943 0.43818,-0.63942 0.44861,-0.63942 0.66771,-0.42961 0.4486,-0.20981 0.44863,-0.63943 0.44861,-0.4296 0.66771,-0.42961 0.4486,-0.63943 0.43818,-0.4296 0.44862,-0.42963 0.44861,-0.41961 0.6677,-0.64941 0.44861,-0.41963 0.44862,-0.4296 0.43818,-0.2198 0.67813,-0.41963 0.43819,-0.63942 0.44861,-0.2198 0.4486,-0.42961 0.44862,-0.20982 0.6677,-0.6394 0.44862,-0.63943 0.43818,-0.42962 0.4486,-0.4296 0.44862,-0.20981 0.66771,-0.42962 0.44861,-0.4296 0.44861,-0.42962 0.43818,-0.41962 0.66771,-0.2198 0.4486,-0.4296 0.44862,-0.41963 0.44861,-0.42961 0.44863,-0.42962 0.66769,-0.4296 0.44862,0 0.43818,-0.20982 0.44861,-0.2098 0.6677,-0.2198 0.44861,-0.20982 0.44862,-0.42961 0.4486,-0.20981 0.43818,-0.21979 0.66771,-0.20982 0.44861,-0.20981 0.44862,0 0.44861,-0.2198 0.44861,0 0.6677,-0.20981 0.43818,-0.42961 0.44862,-0.20981 0.44861,-0.85922 0.66771,0 0.4486,0 0.44862,0 0.44862,0 0.43818,0.2098 0.6677,0 0.44861,0 0.44861,0 0.44861,-0.2098 0.44861,0 0.66771,0 0.43818,0 0.4486,0 0.44863,-0.20981 0.6677,0 0.44862,-0.2198 0.4486,-0.41963 0.43818,-0.21979 0.44862,0 0.6677,0 0.44861,-0.20982 0.44861,0 0.44862,0 0.6677,-0.4296 0.44861,-0.20983 0.43819,-0.21979 0.44861,0 0.4486,0.42962 0.66771,-0.20983 0.44861,-0.4296 0.44862,-0.2198 0.43817,0.2198 0.44861,-0.2198 0.66771,-0.63942 0.44862,-0.63942 0.44861,-0.63943 0.44861,-0.4296 0.66771,-0.63942 0.4486,-0.63943 0.43818,-0.4296 0.44862,-0.63943 0.44861,-0.85923 0.6677,-0.63942 0.44862,-0.63943 0.44862,-0.6394 0.43818,-0.85923 0.67813,-0.84922 0.43818,-0.63943 0.44861,-0.64941 0.44862,-0.84924 0.4486,-0.85922 0.66771,-0.84923 0.44862,-0.85922 0.43817,-0.63943 0.44862,-0.84922 0.44861,-0.85923 0.66771,-1.06903 0.4486,-0.84924 0.44861,-0.85921 0.43819,-0.84924 0.67813,-0.85922 0.43818,-0.63942 0.44861,-0.42961 0.44862,-0.42961 0.44862,-0.42962 0.66769,-0.63942 0.44862,-0.84922 0.43818,-0.85923 0.44861,-0.42961 0.6677,-0.2098 0.44861,0 0.44862,-0.20982 0.44861,0 0.43817,0 0.67815,0 0.43818,0.20982 0.44861,0 0.44861,-0.20982 0.44862,0 0.6677,0 0.4486,-0.21981 0.43819,0 0.44861,0 0.66771,0 0.44861,0.21981 0.44861,0 0.44862,-0.21981 0.43818,0 0.6677,0 0.44861,0 0.44861,0 0.44861,0 0.6677,0 0.44863,0 0.44861,0 0.43818,-0.2098 0.44861,0.2098 0.6677,0 0.44862,-0.2098 0.4486,0 0.44862,0 0.43818,0 0.6677,0 0.44861,0 0.44862,0 0.44862,-0.20981 0.66769,0 0.44862,-0.2198 0.43818,0 0.44861,0.2198 0.44862,0 0.66769,0 0.44862,0 0.44862,0 0.43817,0 0.67814,0 0.43818,0 0.44862,0 0.4486,0 0.44861,0 0.66771,0 0.4486,0 0.43819,0 0.44861,0 0.44862,0 0.66771,0 0.4486,0 0.44862,0 0.43818,0 0.67813,-0.2198 0.43818,0 0.44861,0.2198 0.44862,0 0.44861,0 0.66771,0 0.44861,0 0.43818,0 0.44861,0 0.6677,0 0.44862,0.20981 0.44861,0.2098 0.4486,0 0.43819,0 0.67814,0 0.43818,-0.2098 0.44861,-0.20981 0.44862,-0.85922 0.44861,-0.42962 0.66769,-0.63943 0.44862,-0.84922 0.43818,-0.85923 0.44862,-0.85922 0.66769,-0.63941 0.44862,-0.20982 0.44862,-0.42961 0.44861,0 0.43818,-0.2098 0.67813,0 0.43818,0 0.44862,0 0.4486,0 0.66771,0 0.44862,0 0.44861,0 0.43817,0 0.44862,0.2098 0.66771,0 0.4486,0 0.44862,0 0.44861,0 0.43818,0 0.67814,-0.2098 0.43817,0.2098 0.44863,0 0.44861,0 0.6677,-0.2098 0.44861,0 0.44861,0 0.43819,0 0.4486,0 0.66771,0 0.44861,0 0.44861,0 0.44862,0 0.43817,0 0.67815,-0.21981 0.43817,0.21981 0.44861,0.2098 0.44862,-0.2098 0.6677,0 0.44861,0 0.44862,0 0.43817,0 0.44862,0.2098 0.6677,0 0.44862,0 0.44861,0 0.44861,-0.2098 0.6677,0 0.43818,0 0.44862,0 0.4486,-0.21981 0.44863,0 0.6677,0 0.44861,0.21981 0.43819,0 0.4486,0.2098 0.44862,0 0.6677,0 0.4486,0 0.44862,0 0.44862,-0.2098 0.6677,0 0.43817,0 0.44863,0 0.44861,0.2098 0.4486,0 0.66771,0 0.44861,0 0.43819,0 0.44861,0 0.66769,0 0.44862,-0.2098 0.44862,0 0.44861,0 0.43818,-0.21981 0.67814,0 0.43818,0 0.4486,0 0.44862,0 0.44861,0 0.6677,-0.20981 0.44862,-0.2098 0.43817,0 0.44863,0 0.66769,0 0.44862,-0.21981 0.44861,0 0.44861,0 0.43819,0 0.67812,0 0.43819,0 0.44861,0 0.44861,-0.20982 0.66771,0 0.44861,0 0.44861,0 0.43818,0.20982 0.44861,-0.20982 0.66771,-0.21979 0.44861,0 0.44861,0 0.44862,0.21979 0.43817,0 0.67814,0 0.43818,-0.21979 0.44862,0 0.44861,-0.20981 0.6677,0 0.44861,0.20981 0.44862,-0.41962 0.43818,-0.2198 0.4486,-0.20982 0.66771,-0.21979 0.44862,0.21979 0.44862,0.20982 0.4486,0.2198 0.6677,0.41962 0.44862,0.21979 0.43818,0.63943 0.44861,0 0.44861,0.20981 0.6677,0.21981 0.44862,0.2098 0.44861,0 0.43819,0.20981 0.44861,0 0.66769,-0.20981 0.44862,0.20981 0.44861,0 0.44862,0 0.66769,-0.20981 0.44863,0 0.43817,0.20981 0.44862,0 0.44861,0 0.6677,0 0.44862,-0.20981 0.4486,0 0.43818,0 0.66771,0.20981 0.44861,0 0.44861,0.2198 0.44862,0 0.44861,0 0.6677,0 0.43818,0 0.44862,-0.2198 0.44861,0 0.44861,0 0.6677,0 0.44861,0 0.44863,0 0.43817,-0.20981 0.6677,0 0.44862,0.20981 0.44861,-0.20981 0.44861,0 0.44861,0 0.66771,-0.2098 0.43818,0 0.4486,0 0.44862,0 0.6677,0 0.44863,0 0.4486,0 0.43818,0 0.44862,0 0.6677,-0.21981 0.44861,0 0.44861,0.21981 0.44862,0 0.44861,0 0.6677,0 0.43818,0 0.44862,0 0.44861,0 0.6677,0 0.44862,0 0.44861,-0.21981 0.43817,0 0.44862,0 0.6677,-0.20981 0.44862,0 0.44861,0.20981 0.44861,0 0.66771,-0.20981 0.4486,0 0.43819,-0.2098 0.44861,-0.21981 0.44861,-0.20982 0.6677,-0.21979 0.44861,-0.20981 0.44863,-0.20981 0.43817,-0.2198 0.44862,-0.20982 0.6677,0 0.44861,-0.21979 0.44862,-0.20982 0.4486,-0.2098 0.66771,-0.2198 0.44862,-0.41963 0.43817,-0.2198 0.44861,-0.4296 0.44862,-0.41962 0.66771,-0.21981 0.4486,-0.42961 0.44861,-0.41962 0.43819,-0.2198 0.44861,-0.20982 0.6677,-0.63941 0.44861,-0.42962 0.44861,-0.4296 0.44863,-0.20982 0.66769,-0.4296 0.44862,-0.20982 0.43818,-0.2198 0.44861,-0.20981 0.44861,-0.4296 0.6677,-0.20982 0.44862,-0.21981 0.44861,-0.2098 0.43817,-0.20982 0.67815,-0.21979 0.43818,0 0.44861,-0.20981 0.44861,-0.42962 0.44862,0 0.6677,-0.20981 0.44861,0 0.43818,-0.21979 0.44861,-0.20981 0.44862,0 0.6677,-0.21981 0.44862,-0.2098 0.44861,0 0.43818,-0.20982 0.6677,-0.2198 0.44861,0 0.44862,0 0.4486,0 0.44861,-0.20981 0.66772,0 0.44861,0 0.43819,0 0.4486,0 0.66771,-0.20981 0.44861,0 0.4486,0 0.44862,-0.21979 0.43818,0 0.66771,-0.20981 0.4486,0 0.44862,-0.21982 0.44862,0.21982 0.44861,-0.21982 0.6677,0 0.43818,0 0.44861,-0.2098 0.44862,0 0.66769,0 0.44862,-0.20981 0.44862,0 0.4486,0 0.43818,0 0.66771,0 0.44862,0 0.4486,0 0.44861,0 0.66771,0 0.4486,0 0.43819,-0.0499 0.44861,0.0499 0.44862,0 0.66771,0 0.4486,0 0.44862,0.20981 0.43818,0 0.44862,0 0.66769,0.2098 0.44861,0 0.44862,0.21982 0.44861,0 0.66771,0.20981 0.44861,0.21979 0.43818,0.20981 0.44861,0 0.44861,0 0.66771,0.20981 0.44861,0 0.44861,0.2198 0.43818,0.20982 0.67815,0.2098 0.43817,0 0.44861,0.21981 0.44862,0 0.44861,0.4296 0.6677,0.20981 0.44861,0.20982 0.43818,0.2198 0.44862,0.20981 0.4486,0.21979 0.66771,0.20982 0.44862,0.42961 0.44861,0.20982 0.43818,0.21979 0.67813,0.41962 0.43819,0.2198 0.44861,0.41962 0.4486,0.2198 0.44862,0.42961 0.6677,0.20981 0.44862,0.42962 0.43817,0.20981 0.44862,0.2198 0.66771,0.2098 0.4486,0.20982 0.44862,0.42961 0.44861,0.42961 0.43818,0.20981 0.67813,0.42961 0.43818,0.20982 0.44862,0.4296 0.44862,0.42962 0.44861,0.20981 0.6677,0.2198 0.44861,0.41962 0.43819,0.21979 0.4486,0.20982 0.66771,0 0.44861,0.2198 0.4486,0.20981 0.44863,0 0.43817,0.20981 0.67815,0.21979 0.43817,0 0.44861,0.20982 0.44862,0 0.6677,0.21981 0.44861,0.2098 0.44861,0 0.43818,0 0.44862,0.20981 0.66769,0 0.44863,0 0.44861,0.21981 0.44861,0.2098 0.43818,0 0.6677,0 0.44862,0.20981 0.4486,0.2198 0.44862,0 0.6677,0.20982 0.44863,0.2198 0.4486,0.2098 0.43818,0 0.44862,0.20981 0.6677,0.21981 0.44861,0.20981 0.44861,0.2198 0.44861,0.41962 0.6677,0.2198 0.43818,0.42961 0.44862,0.20982 0.44862,0.2098 0.4486,0.2198 0.66771,0.41962 0.44861,0.42961 0.43819,0.2198 0.44861,0.20982 0.4486,0.42961 0.66771,0.20981 0.44861,0 0.44862,0.2198 0.43817,0 0.67815,0 0.43818,0 0.4486,0 0.44862,0 0.44861,0 0.6677,0 0.44861,-0.2198 0.43818,0 0.44862,0 0.44862,0 0.6677,-0.20981 0.44861,0 0.44861,0 0.43819,-0.21981 0.67812,0.21981 0.43819,0 0.44861,0 0.44861,0 0.44862,0.20981 0.6677,0.2198 0.44861,0.20981 0.43818,0 0.44862,0.2098 0.6677,0.21981 0.44861,0 0.44861,0.20982 0.44861,0 0.43819,0 0.67813,0 0.43817,0.2098 0.44863,0 0.44861,0 0.44861,0 0.6677,0.2198 0.44862,0 0.43818,0 0.4486,0 0.66771,0 0.44861,0 0.44863,0.20981 0.4486,0 0.43818,0 0.67814,0 0.43818,0.2198 0.44861,-0.2198 0.44861,0 0.66771,0 0.44861,0.2198 0.44861,-0.2198 0.43818,0.2198 0.44862,0 0.6677,0.20981 0.44861,0 0.44861,0 0.44862,0 0.43817,0 0.67815,0 0.43817,0.20981 0.44861,0 0.44862,-0.20981 0.6677,0 0.44862,0 0.4486,0 0.43818,0 0.44862,0 0.6677,-0.20981 0.44861,0 0.44862,0 0.44862,-0.2198 0.6677,0 0.4486,0 0.43819,0 0.44861,0 0.44862,0 0.66769,-0.20981 0.44861,0 0.44863,0 0.43817,0 0.44861,0 0.66771,0 0.44861,0.20981 0.44861,-0.20981 0.52164,0" /><path
         d="m 107.21383,-189.04066 0.44861,-0.2198 0.44862,0 0.6677,0 0.44862,0.2198 0.44861,-0.2198 0.43817,0 0.44862,0.2198 0.6677,0 0.44862,0 0.44861,0 0.44862,0 0.6677,0 0.44861,0 0.43818,0 0.44861,0 0.44862,0 0.66769,0 0.44862,0 0.44862,0 0.43817,0 0.67814,0 0.43818,-0.2198 0.44862,0 0.44861,0.2198 0.4486,0 0.66771,0 0.44861,-0.2198 0.43819,0 0.4486,0 0.44861,-0.2098 0.66772,0 0.4486,0.2098 0.44862,-0.2098 0.43818,0 0.67814,-0.20982 0.43817,0 0.44861,0.20982 0.44862,0 0.44862,0 0.6677,0 0.44861,0.2098 0.43818,-0.2098 0.44862,0 0.66769,0 0.44862,0 0.44861,0 0.4486,-0.20982 0.43819,0 0.67814,-0.21981 0.43818,0 0.44861,0 0.44861,-0.2098 0.44862,-0.20981 0.6677,-0.2198 0.44861,0 0.43818,0 0.44862,0 0.6677,-0.20981 0.4486,0 0.44863,0.20981 0.44861,0 0.43819,0.2198 0.67812,0 0.43818,0 0.44862,0 0.4486,0 0.66771,0.20981 0.44861,0.2098 0.44863,0 0.43817,0 0.44861,0.21981 0.66771,0 0.44861,0.20982 0.44861,0.2098 0.44861,0.2198 0.43818,0.42961 0.66771,0.41962 0.4486,0.42962 0.44862,0.4296 0.44862,0 0.6677,0.20981 0.44861,0 0.43818,0.21981 0.44862,-0.21981 0.44861,0.21981 0.6677,0 0.44861,0.20981 0.44861,0 0.44862,0 0.6677,0 0.43818,-0.20981 0.44862,0 0.4486,0.20981 0.44862,0 0.6677,0 0.44861,0 0.43818,0 0.44861,0.2098 0.44862,0 0.66769,0 0.44863,0 0.44861,0 0.43818,0 0.67813,0 0.43818,-0.2098 0.44862,0 0.44861,0 0.44861,0 0.6677,0 0.44862,0 0.43818,0 0.44861,0 0.66771,0 0.44861,0 0.4486,-0.20981 0.44862,0 0.43818,0 0.67814,0 0.43818,0 0.4486,0 0.44863,0 0.44861,-0.21981 0.6677,0 0.44861,0 0.43819,-0.20981 0.44861,0 0.66769,0.20981 0.44862,0 0.44861,0 0.44863,-0.20981 0.43816,0 0.67815,0 0.43818,0.20981 0.44861,0 0.44861,0 0.6677,0 0.44862,-0.20981 0.4486,0 0.43818,0 0.44862,0.20981 0.6677,0 0.44862,0 0.44861,0 0.44861,0 0.43819,0 0.67812,0 0.43819,0 0.44861,0 0.44861,0 0.6677,0 0.44862,0 0.44862,0 0.43818,0 0.4486,0 0.66771,0 0.44861,0 0.44861,-0.20981 0.44861,0 0.66772,0 0.4486,0.20981 0.43817,0 0.44863,-0.20981 0.44861,0 0.66771,0 0.4486,0.20981 0.44861,0 0.43819,0 0.44861,0 0.6677,0 0.44861,0.21981 0.44863,0.20981 0.4486,0 0.6677,0 0.43819,0 0.44861,0.2098 0.44861,0 0.44861,0.42962 0.6677,0.21979 0.44862,0 0.44861,0.20982 0.43818,0 0.44862,0 0.6677,0.20981 0.44861,0 0.44861,0.2198 0.44862,0.4296 0.66769,0.20982 0.43818,0.20981 0.44862,0.42962 0.44861,0.21979 0.44862,0.41962 0.6677,0.21981 0.44862,0 0.43818,0.20981 0.4486,0 0.66771,0 0.44861,0.2098 0.44862,0 0.4486,0.2198 0.44862,0.42961 0.66771,0.20982 0.43818,0 0.44861,0 0.44861,0.20981 0.44861,0.2198 0.6677,0.42961 0.44861,0.2098 0.43819,0.20983 0.44861,0.21979 0.6677,0.20981 0.44862,0 0.44861,0 0.44862,0 0.43818,0.20981 0.67813,0 0.43818,0 0.44861,0 0.44861,0 0.6677,0 0.44863,0 0.4486,0 0.43817,0 0.44863,0 0.6677,0 0.44861,0 0.44861,0 0.44862,-0.20981 0.43818,0.42961 0.67813,0 0.43818,-0.2198 0.44862,0.2198 0.44862,0.42962 0.66769,0 0.44861,0.2098 0.44862,-0.2098 0.43818,0 0.44861,0 0.6677,-0.21981 0.44862,0.42961 0.44861,0.20982 0.44861,0.21979 0.66771,0 0.44861,0.20981 0.43819,0 0.4486,0.21981 0.44861,0.41962 0.66771,0.2198 0.4486,0.2098 0.44863,0 0.43817,0.20982 0.44861,0.2198 0.66771,0.20981 0.44861,0 0.44862,0.2198 0.4486,0 0.66771,0.20981 0.44861,-0.20981 0.43818,0.20981 0.44862,0.20981 0.44861,0.42962 0.66771,0 0.44861,0 0.4486,0.2198 0.43819,0 0.6677,0 0.44862,0.2098 0.4486,0 0.44861,0.20981 0.44863,0 0.66769,0 0.44862,0.21981 0.43818,0.2098 0.44861,0.20982 0.44862,0 0.66769,0 0.44862,0.21979 0.44861,0.20982 0.43818,0.4296 0.6677,0.20981 0.44861,0.21982 0.44863,0 0.4486,-0.21982 0.44862,0 0.6677,0 0.43818,0 0.44861,-0.20981 0.44861,0 0.66771,-0.2098 0.44861,-0.2198 0.44862,-0.20982 0.44861,-0.21979 0.43818,-0.20982 0.66771,-0.2098 0.4486,0 0.44862,-0.21981 0.44861,-0.20981 0.4486,0 0.66771,0 0.43818,0 0.44862,-0.2098 0.44861,-0.2198 0.6677,0 0.44862,0.2198 0.44861,0 0.43818,0 0.44861,-0.2198 0.66771,0 0.44861,-0.20983 0.4486,-0.21979 0.44863,-0.20981 0.6677,0 0.44861,-0.20981 0.43818,-0.2198 0.44861,-0.20981 0.44862,0 0.66769,-0.2198 0.44862,-0.63942 0.44861,-0.20981 0.43818,0 0.44861,0.20981 0.6677,0 0.44863,0 0.44861,-0.20981 0.4486,-0.20981 0.66771,-0.21981 0.44861,0 0.43819,0.21981 0.4486,-0.21981 0.44861,0 0.66771,0 0.44861,0 0.44862,-0.20981 0.43818,-0.21979 0.67814,-0.20982 0.43817,0.20982 0.44861,0.21979 0.44862,0.20981 0.44861,-0.20981 0.6677,0 0.44862,0.20981 0.43817,0 0.44863,0.21981 0.4486,0 0.66771,0 0.44861,0 0.44861,0 0.43818,0.20981 0.67813,0 0.43819,0.20981 0.4486,0.2198 0.44863,0.41962 0.44861,0.2198 0.66771,0.42961 0.4486,0.41962 0.43818,0.21979 0.44862,0.20983 0.44861,0.4296 0.6677,0.20981 0.44861,0 0.44862,0.42961 0.43818,0.20982 0.67813,0.21979 0.43819,0.63942 0.44861,0 0.4486,0.20981 0.44862,0.21982 0.6677,0.4296 0.44862,0.2098 0.43818,0.20982 0.4486,0 0.66771,-0.41962 0.44862,0.41962 0.44861,-0.20982 0.44861,0 0.43818,-0.2098 0.66771,0 0.4486,0.2098 0.44862,0.20982 0.44861,0.2198 0.44861,-0.2198 0.66771,0.2198 0.44861,0.20981 0.43819,0.2198 0.44861,0 0.6677,0 0.44861,0 0.44861,0.20982 0.44861,0.2098 0.43818,0 0.66771,0 0.44861,0.2198 0.44861,0.2098 0.44862,0.20983 0.6677,-0.20983 0.44861,0.20983 0.43818,0 0.44861,0.2198 0.44862,0 0.6677,0.4296 0.44861,0 0.44862,0 0.43817,0.20982 0.44863,0.2098 0.66769,0.21981 0.44862,0.42961 0.44861,0.20981 0.44861,0.2098 0.6677,0.42963 0.44863,0.4296 0.43817,0.42961 0.4486,0.63943 0.44863,0.4296 0.6677,0.41963 0.44862,0.42961 0.4486,0.2098 0.43818,0.85923 0.67814,0.85921 0.43818,0.63943 0.44861,0.63942 0.44861,0.84923 0.44862,0.64942 0.6677,0.63942 0.44861,0.63942 0.43819,0.84923 0.44861,0.64942 0.4486,0.84922 0.66771,0.63943 0.44861,1.06903 0.44863,0.42961 0.43816,0.63943 0.67815,1.06903 0.43818,0.85922 0.44861,0.84923 0.44861,0.85923 0.44861,0.84922 0.66771,1.06903 0.4486,0.85923 0.43818,1.06904 0.44862,1.06903 0.6677,0.84923 0.44862,0.85922 0.44861,1.06903 0.44861,1.27885 0.43819,1.06903 0.67812,1.06902 0.43819,1.27885 0.44861,0.85922 0.44861,0.84924 0.44861,0.85922 0.66771,0.84923 0.44862,0.63943 0.43818,0.6494 0.44861,0.63942 0.6677,0.84923 0.44861,0.63943 0.44861,0.64941 0.44861,0.63943 0.43819,0.6394 0.67814,0.63943 0.43816,0.42962 0.44863,0.63941 0.44861,0.63942 0.66771,0.63943 0.4486,0.64941 0.44862,0.63943 0.43818,0.41961 0.44861,0.64942 0.6677,0.63942 0.44861,0.42961 0.44863,0.63942 0.4486,0.41961 0.43817,0.42963 0.67815,0.21979 0.43818,0.20981 0.44861,0 0.44861,0.20981 0.66771,0.2198 0.44861,0 0.44861,0 0.43818,0 0.44862,0.20982 0.66771,0.34967 0.4486,-0.12988 0.44861,-0.21979 0.44862,0 0.66769,0 0.43819,0.21979 0.44861,0 0.44861,-0.21979 0.44862,0 0.6677,-0.20982 0.44862,-0.42961 0.43818,-0.20981 0.44861,-0.64942 0.44861,-0.63941 0.6677,-0.20981 0.44862,-0.42961 0.4486,-0.63942 0.44863,-0.85923 0.6677,-0.63942 0.43817,-0.84923 0.44862,-0.63943 0.44861,-0.4296 0.44862,-0.63942 0.66769,-0.85923 0.44861,-0.63943 0.43819,-0.85921 0.44861,-0.63942 0.6677,-1.06904 0.44861,-0.84923 0.44862,-0.63942 0.44862,-0.6494 0.43818,-0.63943 0.67813,-0.84923 0.43818,-0.42962 0.44861,-0.63941 0.44861,-0.85922 0.44861,-0.41962 0.66771,-0.42962 0.44861,-0.42961 0.43818,-0.63943 0.44862,-0.4296 0.6677,-0.42961 0.44861,-0.41963 0.44861,-0.42961 0.44862,-0.4296 0.43818,0 0.67813,-0.20982 0.43818,-0.2198 0.44861,0 0.44863,-0.20981 0.4486,-0.2198 0.66771,-0.20981 0.44861,0 0.43818,-0.20981 0.44861,-0.21979 0.6677,-0.42963 0.44862,0 0.44861,-0.2098 0.44861,0 0.43818,-0.20981 0.67814,0 0.43819,0 0.4486,-0.2198 0.44861,-0.20981 0.66771,-0.20982 0.4486,-0.21979 0.44862,0 0.43818,-0.20981 0.44861,0 0.6677,-0.21981 0.44862,-0.2098 0.44862,-0.20981 0.44861,-0.21981 0.43817,0 0.67814,0 0.43818,-0.20981 0.44862,-0.2198 0.4486,-0.41961 0.66771,0 0.44862,0 0.4486,-0.21982 0.43819,-0.2098 0.44861,0 0.66771,-0.20981 0.4486,0 0.44862,0 0.44861,-0.2198 0.66769,-0.20981 0.44863,-0.2198 0.43817,-0.20981 0.44863,0 0.44861,-0.20982 0.66769,0 0.44862,-0.2198 0.44861,-0.2098 0.43819,-0.2198 0.4486,0 0.6677,0 0.44862,0 0.44861,0.2198 0.44862,0.2098 0.6677,0 0.43819,0.2198 0.4486,0.20982 0.44861,0.20981 0.44862,0.42961 0.6677,0.2198 0.44861,0.20981 0.44862,0.2098 0.43817,0.42963 0.66771,0.4296 0.44861,0.20981 0.44862,0.42962 0.44861,0.2098 0.4486,0.42962 0.66771,0.42961 0.43818,0.42961 0.44862,0.20981 0.4486,0.42961 0.44862,0.42961 0.66771,0.41962 0.44861,0.42961 0.43818,0.42962 0.44861,0.4296 0.66771,0.42961 0.44861,0.20982 0.4486,0.42961 0.44862,0.41961 0.44862,0.42963 0.6677,0.4296 0.43817,0.42961 0.44862,0.20981 0.44862,0.21981 0.66769,0.41962 0.44862,0.21979 0.44861,0.41962 0.43818,0.21981 0.44861,0.20981 0.6677,0.2198 0.44862,0.41962 0.44862,0.42961 0.44861,0.2198 0.43818,0.41962 0.67813,-0.20981 0.43819,-0.20981 0.4486,0 0.44862,0 0.6677,-0.2198 0.44862,-0.42961 0.44861,-0.20982 0.43817,-0.63941 0.44863,-0.42962 0.66769,-0.4296 0.44862,-0.41962 0.44861,-0.21981 0.44861,-0.20981 0.6677,-0.63942 0.44862,-0.64942 0.43818,-0.41961 0.44861,-0.2198 0.44861,-0.41963 0.66771,-0.42961 0.44861,-0.21979 0.44861,-0.63943 0.43818,-0.63942 0.44861,-0.63942 0.66771,-0.42961 0.4486,-0.20981 0.44863,-0.63943 0.44861,-0.4296 0.66771,-0.42961 0.4486,-0.63943 0.43818,-0.4296 0.44862,-0.42963 0.44861,-0.41961 0.6677,-0.64941 0.44861,-0.41963 0.44862,-0.4296 0.43818,-0.2198 0.67813,-0.41963 0.43819,-0.63942 0.44861,-0.2198 0.4486,-0.42961 0.44862,-0.20982 0.6677,-0.6394 0.44862,-0.63943 0.43818,-0.42962 0.4486,-0.4296 0.44862,-0.20981 0.66771,-0.42962 0.44861,-0.4296 0.44861,-0.42962 0.43818,-0.41962 0.66771,-0.2198 0.4486,-0.4296 0.44862,-0.41963 0.44861,-0.42961 0.44863,-0.42962 0.66769,-0.4296 0.44862,0 0.43818,-0.20982 0.44861,-0.2098 0.6677,-0.2198 0.44861,-0.20982 0.44862,-0.42961 0.4486,-0.20981 0.43818,-0.21979 0.66771,-0.20982 0.44861,-0.20981 0.44862,0 0.44861,-0.2198 0.44861,0 0.6677,-0.20981 0.43818,-0.42961 0.44862,-0.20981 0.44861,-0.85922 0.66771,0 0.4486,0 0.44862,0 0.44862,0 0.43818,0.2098 0.6677,0 0.44861,0 0.44861,0 0.44861,-0.2098 0.44861,0 0.66771,0 0.43818,0 0.4486,0 0.44863,-0.20981 0.6677,0 0.44862,-0.2198 0.4486,-0.41963 0.43818,-0.21979 0.44862,0 0.6677,0 0.44861,-0.20982 0.44861,0 0.44862,0 0.6677,-0.4296 0.44861,-0.20983 0.43819,-0.21979 0.44861,0 0.4486,0.42962 0.66771,-0.20983 0.44861,-0.4296 0.44862,-0.2198 0.43817,0.2198 0.44861,-0.2198 0.66771,-0.63942 0.44862,-0.63942 0.44861,-0.63943 0.44861,-0.4296 0.66771,-0.63942 0.4486,-0.63943 0.43818,-0.4296 0.44862,-0.63943 0.44861,-0.85923 0.6677,-0.63942 0.44862,-0.63943 0.44862,-0.6394 0.43818,-0.85923 0.67813,-0.84922 0.43818,-0.63943 0.44861,-0.64941 0.44862,-0.84924 0.4486,-0.85922 0.66771,-0.84923 0.44862,-0.85922 0.43817,-0.63943 0.44862,-0.84922 0.44861,-0.85923 0.66771,-1.06903 0.4486,-0.84924 0.44861,-0.85921 0.43819,-0.84924 0.67813,-0.85922 0.43818,-0.63942 0.44861,-0.42961 0.44862,-0.42961 0.44862,-0.42962 0.66769,-0.63942 0.44862,-0.84922 0.43818,-0.85923 0.44861,-0.42961 0.6677,-0.2098 0.44861,0 0.44862,-0.20982 0.44861,0 0.43817,0 0.67815,0 0.43818,0.20982 0.44861,0 0.44861,-0.20982 0.44862,0 0.6677,0 0.4486,-0.21981 0.43819,0 0.44861,0 0.66771,0 0.44861,0.21981 0.44861,0 0.44862,-0.21981 0.43818,0 0.6677,0 0.44861,0 0.44861,0 0.44861,0 0.6677,0 0.44863,0 0.44861,0 0.43818,-0.2098 0.44861,0.2098 0.6677,0 0.44862,-0.2098 0.4486,0 0.44862,0 0.43818,0 0.6677,0 0.44861,0 0.44862,0 0.44862,-0.20981 0.66769,0 0.44862,-0.2198 0.43818,0 0.44861,0.2198 0.44862,0 0.66769,0 0.44862,0 0.44862,0 0.43817,0 0.67814,0 0.43818,0 0.44862,0 0.4486,0 0.44861,0 0.66771,0 0.4486,0 0.43819,0 0.44861,0 0.44862,0 0.66771,0 0.4486,0 0.44862,0 0.43818,0 0.67813,-0.2198 0.43818,0 0.44861,0.2198 0.44862,0 0.44861,0 0.66771,0 0.44861,0 0.43818,0 0.44861,0 0.6677,0 0.44862,0.20981 0.44861,0.2098 0.4486,0 0.43819,0 0.67814,0 0.43818,-0.2098 0.44861,-0.20981 0.44862,-0.85922 0.44861,-0.42962 0.66769,-0.63943 0.44862,-0.84922 0.43818,-0.85923 0.44862,-0.85922 0.66769,-0.63941 0.44862,-0.20982 0.44862,-0.42961 0.44861,0 0.43818,-0.2098 0.67813,0 0.43818,0 0.44862,0 0.4486,0 0.66771,0 0.44862,0 0.44861,0 0.43817,0 0.44862,0.2098 0.66771,0 0.4486,0 0.44862,0 0.44861,0 0.43818,0 0.67814,-0.2098 0.43817,0.2098 0.44863,0 0.44861,0 0.6677,-0.2098 0.44861,0 0.44861,0 0.43819,0 0.4486,0 0.66771,0 0.44861,0 0.44861,0 0.44862,0 0.43817,0 0.67815,-0.21981 0.43817,0.21981 0.44861,0.2098 0.44862,-0.2098 0.6677,0 0.44861,0 0.44862,0 0.43817,0 0.44862,0.2098 0.6677,0 0.44862,0 0.44861,0 0.44861,-0.2098 0.6677,0 0.43818,0 0.44862,0 0.4486,-0.21981 0.44863,0 0.6677,0 0.44861,0.21981 0.43819,0 0.4486,0.2098 0.44862,0 0.6677,0 0.4486,0 0.44862,0 0.44862,-0.2098 0.6677,0 0.43817,0 0.44863,0 0.44861,0.2098 0.4486,0 0.66771,0 0.44861,0 0.43819,0 0.44861,0 0.66769,0 0.44862,-0.2098 0.44862,0 0.44861,0 0.43818,-0.21981 0.67814,0 0.43818,0 0.4486,0 0.44862,0 0.44861,0 0.6677,-0.20981 0.44862,-0.2098 0.43817,0 0.44863,0 0.66769,0 0.44862,-0.21981 0.44861,0 0.44861,0 0.43819,0 0.67812,0 0.43819,0 0.44861,0 0.44861,-0.20982 0.66771,0 0.44861,0 0.44861,0 0.43818,0.20982 0.44861,-0.20982 0.66771,-0.21979 0.44861,0 0.44861,0 0.44862,0.21979 0.43817,0 0.67814,0 0.43818,-0.21979 0.44862,0 0.44861,-0.20981 0.6677,0 0.44861,0.20981 0.44862,-0.41962 0.43818,-0.2198 0.4486,-0.20982 0.66771,-0.21979 0.44862,0.21979 0.44862,0.20982 0.4486,0.2198 0.6677,0.41962 0.44862,0.21979 0.43818,0.63943 0.44861,0 0.44861,0.20981 0.6677,0.21981 0.44862,0.2098 0.44861,0 0.43819,0.20981 0.44861,0 0.66769,-0.20981 0.44862,0.20981 0.44861,0 0.44862,0 0.66769,-0.20981 0.44863,0 0.43817,0.20981 0.44862,0 0.44861,0 0.6677,0 0.44862,-0.20981 0.4486,0 0.43818,0 0.66771,0.20981 0.44861,0 0.44861,0.2198 0.44862,0 0.44861,0 0.6677,0 0.43818,0 0.44862,-0.2198 0.44861,0 0.44861,0 0.6677,0 0.44861,0 0.44863,0 0.43817,-0.20981 0.6677,0 0.44862,0.20981 0.44861,-0.20981 0.44861,0 0.44861,0 0.66771,-0.2098 0.43818,0 0.4486,0 0.44862,0 0.6677,0 0.44863,0 0.4486,0 0.43818,0 0.44862,0 0.6677,-0.21981 0.44861,0 0.44861,0.21981 0.44862,0 0.44861,0 0.6677,0 0.43818,0 0.44862,0 0.44861,0 0.6677,0 0.44862,0 0.44861,-0.21981 0.43817,0 0.44862,0 0.6677,-0.20981 0.44862,0 0.44861,0.20981 0.44861,0 0.66771,-0.20981 0.4486,0 0.43819,-0.2098 0.44861,-0.21981 0.44861,-0.20982 0.6677,-0.21979 0.44861,-0.20981 0.44863,-0.20981 0.43817,-0.2198 0.44862,-0.20982 0.6677,0 0.44861,-0.21979 0.44862,-0.20982 0.4486,-0.2098 0.66771,-0.2198 0.44862,-0.41963 0.43817,-0.2198 0.44861,-0.4296 0.44862,-0.41962 0.66771,-0.21981 0.4486,-0.42961 0.44861,-0.41962 0.43819,-0.2198 0.44861,-0.20982 0.6677,-0.63941 0.44861,-0.42962 0.44861,-0.4296 0.44863,-0.20982 0.66769,-0.4296 0.44862,-0.20982 0.43818,-0.2198 0.44861,-0.20981 0.44861,-0.4296 0.6677,-0.20982 0.44862,-0.21981 0.44861,-0.2098 0.43817,-0.20982 0.67815,-0.21979 0.43818,0 0.44861,-0.20981 0.44861,-0.42962 0.44862,0 0.6677,-0.20981 0.44861,0 0.43818,-0.21979 0.44861,-0.20981 0.44862,0 0.6677,-0.21981 0.44862,-0.2098 0.44861,0 0.43818,-0.20982 0.6677,-0.2198 0.44861,0 0.44862,0 0.4486,0 0.44861,-0.20981 0.66772,0 0.44861,0 0.43819,0 0.4486,0 0.66771,-0.20981 0.44861,0 0.4486,0 0.44862,-0.21979 0.43818,0 0.66771,-0.20981 0.4486,0 0.44862,-0.21982 0.44862,0.21982 0.44861,-0.21982 0.6677,0 0.43818,0 0.44861,-0.2098 0.44862,0 0.66769,0 0.44862,-0.20981 0.44862,0 0.4486,0 0.43818,0 0.66771,0 0.44862,0 0.4486,0 0.44861,0 0.66771,0 0.4486,0 0.43819,-0.0499 0.44861,0.0499 0.44862,0 0.66771,0 0.4486,0 0.44862,0.20981 0.43818,0 0.44862,0 0.66769,0.2098 0.44861,0 0.44862,0.21982 0.44861,0 0.66771,0.20981 0.44861,0.21979 0.43818,0.20981 0.44861,0 0.44861,0 0.66771,0.20981 0.44861,0 0.44861,0.2198 0.43818,0.20982 0.67815,0.2098 0.43817,0 0.44861,0.21981 0.44862,0 0.44861,0.4296 0.6677,0.20981 0.44861,0.20982 0.43818,0.2198 0.44862,0.20981 0.4486,0.21979 0.66771,0.20982 0.44862,0.42961 0.44861,0.20982 0.43818,0.21979 0.67813,0.41962 0.43819,0.2198 0.44861,0.41962 0.4486,0.2198 0.44862,0.42961 0.6677,0.20981 0.44862,0.42962 0.43817,0.20981 0.44862,0.2198 0.66771,0.2098 0.4486,0.20982 0.44862,0.42961 0.44861,0.42961 0.43818,0.20981 0.67813,0.42961 0.43818,0.20982 0.44862,0.4296 0.44862,0.42962 0.44861,0.20981 0.6677,0.2198 0.44861,0.41962 0.43819,0.21979 0.4486,0.20982 0.66771,0 0.44861,0.2198 0.4486,0.20981 0.44863,0 0.43817,0.20981 0.67815,0.21979 0.43817,0 0.44861,0.20982 0.44862,0 0.6677,0.21981 0.44861,0.2098 0.44861,0 0.43818,0 0.44862,0.20981 0.66769,0 0.44863,0 0.44861,0.21981 0.44861,0.2098 0.43818,0 0.6677,0 0.44862,0.20981 0.4486,0.2198 0.44862,0 0.6677,0.20982 0.44863,0.2198 0.4486,0.2098 0.43818,0 0.44862,0.20981 0.6677,0.21981 0.44861,0.20981 0.44861,0.2198 0.44861,0.41962 0.6677,0.2198 0.43818,0.42961 0.44862,0.20982 0.44862,0.2098 0.4486,0.2198 0.66771,0.41962 0.44861,0.42961 0.43819,0.2198 0.44861,0.20982 0.4486,0.42961 0.66771,0.20981 0.44861,0 0.44862,0.2198 0.43817,0 0.67815,0 0.43818,0 0.4486,0 0.44862,0 0.44861,0 0.6677,0 0.44861,-0.2198 0.43818,0 0.44862,0 0.44862,0 0.6677,-0.20981 0.44861,0 0.44861,0 0.43819,-0.21981 0.67812,0.21981 0.43819,0 0.44861,0 0.44861,0 0.44862,0.20981 0.6677,0.2198 0.44861,0.20981 0.43818,0 0.44862,0.2098 0.6677,0.21981 0.44861,0 0.44861,0.20982 0.44861,0 0.43819,0 0.67813,0 0.43817,0.2098 0.44863,0 0.44861,0 0.44861,0 0.6677,0.2198 0.44862,0 0.43818,0 0.4486,0 0.66771,0 0.44861,0 0.44863,0.20981 0.4486,0 0.43818,0 0.67814,0 0.43818,0.2198 0.44861,-0.2198 0.44861,0 0.66771,0 0.44861,0.2198 0.44861,-0.2198 0.43818,0.2198 0.44862,0 0.6677,0.20981 0.44861,0 0.44861,0 0.44862,0 0.43817,0 0.67815,0 0.43817,0.20981 0.44861,0 0.44862,-0.20981 0.6677,0 0.44862,0 0.4486,0 0.43818,0 0.44862,0 0.6677,-0.20981 0.44861,0 0.44862,0 0.44862,-0.2198 0.6677,0 0.4486,0 0.43819,0 0.44861,0 0.44862,0 0.66769,-0.20981 0.44861,0 0.44863,0 0.43817,0 0.44861,0 0.66771,0 0.44861,0.20981 0.44861,-0.20981 0.52164,0"
         style="fill:none;stroke:#fe4310;stroke-width:2.40314007;stroke-linecap:round;stroke-linejoin:round;stroke-miterlimit:10;stroke-dasharray:none;stroke-opacity:1"
         id="path20632"
         inkscape:connector-curvature="0" /><text
         xml:space="preserve"
         style="font-style:normal;font-weight:normal;font-size:32px;line-height:125%;font-family:sans-serif;letter-spacing:0px;word-spacing:0px;fill:#666666;fill-opacity:1;stroke:none;stroke-width:1px;stroke-linecap:butt;stroke-linejoin:miter;stroke-opacity:1"
         x="635.39893"
         y="244.49916"
         id="text21930"
         sodipodi:linespacing="125%"
         transform="scale(1,-1)"><tspan
           sodipodi:role="line"
           id="tspan21932"
           x="635.39893"
           y="244.49916"
           style="font-style:normal;font-variant:normal;font-weight:bold;font-stretch:normal;font-size:8px;font-family:'Gotham Bold';-inkscape-font-specification:'Gotham Bold, Bold';fill:#666666">1000</tspan></text>
<text
         transform="scale(1,-1)"
         sodipodi:linespacing="125%"
         id="text21934"
         y="244.49916"
         x="367.74222"
         style="font-style:normal;font-weight:normal;font-size:32px;line-height:125%;font-family:sans-serif;letter-spacing:0px;word-spacing:0px;fill:#666666;fill-opacity:1;stroke:none;stroke-width:1px;stroke-linecap:butt;stroke-linejoin:miter;stroke-opacity:1"
         xml:space="preserve"><tspan
           style="font-style:normal;font-variant:normal;font-weight:bold;font-stretch:normal;font-size:8px;font-family:'Gotham Bold';-inkscape-font-specification:'Gotham Bold, Bold';fill:#666666"
           y="244.49916"
           x="367.74222"
           id="tspan21936"
           sodipodi:role="line">500</tspan><tspan
           style="font-style:normal;font-variant:normal;font-weight:bold;font-stretch:normal;font-size:8px;font-family:'Gotham Bold';-inkscape-font-specification:'Gotham Bold, Bold';fill:#666666"
           y="254.49916"
           x="367.74222"
           sodipodi:role="line"
           id="tspan21938" /></text>
<text
         xml:space="preserve"
         style="font-style:normal;font-weight:normal;font-size:32px;line-height:125%;font-family:sans-serif;letter-spacing:0px;word-spacing:0px;fill:#666666;fill-opacity:1;stroke:none;stroke-width:1px;stroke-linecap:butt;stroke-linejoin:miter;stroke-opacity:1"
         x="502.92084"
         y="244.49916"
         id="text21944"
         sodipodi:linespacing="125%"
         transform="scale(1,-1)"><tspan
           sodipodi:role="line"
           id="tspan21946"
           x="502.92084"
           y="244.49916"
           style="font-style:normal;font-variant:normal;font-weight:bold;font-stretch:normal;font-size:8px;font-family:'Gotham Bold';-inkscape-font-specification:'Gotham Bold, Bold';fill:#666666">750</tspan><tspan
           id="tspan21948"
           sodipodi:role="line"
           x="502.92084"
           y="254.49916"
           style="font-style:normal;font-variant:normal;font-weight:bold;font-stretch:normal;font-size:8px;font-family:'Gotham Bold';-inkscape-font-specification:'Gotham Bold, Bold';fill:#666666" /></text>
<text
         xml:space="preserve"
         style="font-style:normal;font-weight:normal;font-size:32px;line-height:125%;font-family:sans-serif;letter-spacing:0px;word-spacing:0px;fill:#666666;fill-opacity:1;stroke:none;stroke-width:1px;stroke-linecap:butt;stroke-linejoin:miter;stroke-opacity:1"
         x="233.31459"
         y="244.49916"
         id="text21950"
         sodipodi:linespacing="125%"
         transform="scale(1,-1)"><tspan
           id="tspan21954"
           sodipodi:role="line"
           x="233.31459"
           y="244.49916"
           style="font-style:normal;font-variant:normal;font-weight:bold;font-stretch:normal;font-size:8px;font-family:'Gotham Bold';-inkscape-font-specification:'Gotham Bold, Bold';fill:#666666">250</tspan></text>
<text
         transform="scale(1,-1)"
         sodipodi:linespacing="125%"
         id="text21958"
         y="244.49916"
         x="742.89532"
         style="font-style:normal;font-weight:normal;font-size:32px;line-height:125%;font-family:sans-serif;letter-spacing:0px;word-spacing:0px;fill:#666666;fill-opacity:1;stroke:none;stroke-width:1px;stroke-linecap:butt;stroke-linejoin:miter;stroke-opacity:1"
         xml:space="preserve"><tspan
           id="tspan21962"
           style="font-style:normal;font-variant:normal;font-weight:bold;font-stretch:normal;font-size:8px;font-family:'Gotham Bold';-inkscape-font-specification:'Gotham Bold, Bold';fill:#666666"
           y="244.49916"
           x="742.89532"
           sodipodi:role="line">1200</tspan></text>
<g
         transform="translate(-3.2576346,-37.462798)"
         id="g21988"><g
           transform="translate(-29.484743,-222.98736)"
           id="g21972"><path
             style="fill:none;fill-rule:evenodd;stroke:#4d4d4d;stroke-width:1.60000002;stroke-linecap:butt;stroke-linejoin:miter;stroke-opacity:1"
             d="m 357.87717,116.9722 -21.35913,28.26982 -17.03758,0"
             id="path21974"
             inkscape:connector-curvature="0"
             sodipodi:nodetypes="ccc" /><circle
             style="opacity:1;fill:#4d4d4d;fill-opacity:1;stroke:none;stroke-width:3;stroke-linecap:square;stroke-linejoin:round;stroke-miterlimit:10;stroke-dasharray:none;stroke-dashoffset:0;stroke-opacity:1"
             id="circle21976"
             cx="357.75272"
             cy="-117.13693"
             r="3.1340568"
             transform="scale(1,-1)" /></g><g
           style="fill:#00b17c;fill-opacity:1"
           transform="matrix(0.31538106,0,0,0.31538106,158.04318,-126.39749)"
           id="g21978"><text
             transform="scale(1,-1)"
             sodipodi:linespacing="125%"
             id="text21980"
             y="-144.66998"
             x="258.37598"
             style="font-style:normal;font-weight:normal;font-size:32px;line-height:125%;font-family:sans-serif;letter-spacing:0px;word-spacing:0px;fill:#00b17c;fill-opacity:1;stroke:#ffffff;stroke-width:6.4000001;stroke-linecap:butt;stroke-linejoin:miter;stroke-opacity:1"
             xml:space="preserve"><tspan
               style="font-style:normal;font-variant:normal;font-weight:bold;font-stretch:normal;font-family:'Gotham Bold';-inkscape-font-specification:'Gotham Bold, Bold';fill:#00b17c;fill-opacity:1;stroke:#ffffff;stroke-width:6.4000001"
               y="-144.66998"
               x="258.37598"
               id="tspan21982"
               sodipodi:role="line">Sunbeam</tspan></text>
<text
             xml:space="preserve"
             style="font-style:normal;font-weight:normal;font-size:32px;line-height:125%;font-family:sans-serif;letter-spacing:0px;word-spacing:0px;fill:#00b17c;fill-opacity:1;stroke:none;stroke-width:1px;stroke-linecap:butt;stroke-linejoin:miter;stroke-opacity:1"
             x="258.37598"
             y="-144.66998"
             id="text21984"
             sodipodi:linespacing="125%"
             transform="scale(1,-1)"><tspan
               sodipodi:role="line"
               id="tspan21986"
               x="258.37598"
               y="-144.66998"
               style="font-style:normal;font-variant:normal;font-weight:bold;font-stretch:normal;font-family:'Gotham Bold';-inkscape-font-specification:'Gotham Bold, Bold';fill:#00b17c;fill-opacity:1">Sunbeam</tspan></text>
</g></g></g></g></svg>